<?xml version="1.0" encoding="utf-8" standalone="no"?>
<!DOCTYPE svg PUBLIC "-//W3C//DTD SVG 1.1//EN"
  "http://www.w3.org/Graphics/SVG/1.1/DTD/svg11.dtd">
<svg xmlns:xlink="http://www.w3.org/1999/xlink" width="1283.590428pt" height="1167.12pt" viewBox="0 0 1283.590428 1167.12" xmlns="http://www.w3.org/2000/svg" version="1.1">
 <metadata>
  <rdf:RDF xmlns:dc="http://purl.org/dc/elements/1.1/" xmlns:cc="http://creativecommons.org/ns#" xmlns:rdf="http://www.w3.org/1999/02/22-rdf-syntax-ns#">
   <cc:Work>
    <dc:type rdf:resource="http://purl.org/dc/dcmitype/StillImage"/>
    <dc:date>2026-07-20T20:37:44.340992</dc:date>
    <dc:format>image/svg+xml</dc:format>
    <dc:creator>
     <cc:Agent>
      <dc:title>Matplotlib v3.11.0, https://matplotlib.org/</dc:title>
     </cc:Agent>
    </dc:creator>
   </cc:Work>
  </rdf:RDF>
 </metadata>
 <defs>
  <style type="text/css">*{stroke-linejoin: round; stroke-linecap: butt}</style>
 </defs>
 <g id="figure_1">
  <g id="patch_1">
   <path d="M 0 1167.12 
L 1283.590428 1167.12 
L 1283.590428 0 
L 0 0 
z
" style="fill: #ffffff"/>
  </g>
  <g id="axes_1">
   <g id="patch_2">
    <path d="M 300.92767 127.332809 
C 277.570209 127.332809 254.373895 131.209651 232.285865 138.805038 
C 210.197834 146.400425 189.522865 157.609554 171.105146 171.974741 
C 152.687426 186.339927 136.781088 203.662956 124.035611 223.236505 
C 111.290133 242.810053 101.881381 264.364039 96.193528 287.018383 
C 90.505675 309.672727 88.617202 333.114838 90.605219 356.387543 
C 92.593237 379.660247 98.430313 402.442421 107.878111 423.803837 
C 117.32591 445.165253 130.254068 464.81116 146.13471 481.939387 
C 162.015353 499.067615 180.629354 513.441823 201.216679 524.475094 
C 221.804003 535.508364 244.080581 543.048456 267.136829 546.787497 
C 290.193077 550.526538 313.710857 550.412935 336.729907 546.451329 
C 359.748957 542.489722 381.951653 534.734773 402.431427 523.503129 
C 422.911201 512.271485 441.385469 497.718122 457.099899 480.437275 
C 472.814329 463.156428 485.552089 443.386543 494.79308 421.934851 
C 504.034071 400.48316 509.650782 377.645658 511.413875 354.354834 
C 513.176968 331.06401 511.062115 307.641236 505.155669 285.042898 
C 499.249224 262.44456 489.632683 240.982476 476.698706 221.532972 
L 415.178843 262.443862 
C 423.585929 275.08604 429.83668 289.036395 433.67587 303.725315 
C 437.515059 318.414234 438.889714 333.639037 437.743703 348.778073 
C 436.597693 363.917108 432.946831 378.761484 426.940187 392.705084 
C 420.933543 406.648684 412.653998 419.499109 402.439619 430.73166 
C 392.225239 441.96421 380.216965 451.423896 366.905112 458.724465 
C 353.593259 466.025033 339.161507 471.06575 324.199124 473.640794 
C 309.236742 476.215839 293.950184 476.28968 278.963623 473.859303 
C 263.977063 471.428927 249.497287 466.527867 236.115526 459.356241 
C 222.733765 452.184616 210.634664 442.84138 200.312246 431.708032 
C 189.989829 420.574684 181.586526 407.804845 175.445457 393.919925 
C 169.304388 380.035005 165.510288 365.226591 164.218077 350.099333 
C 162.925866 334.972076 164.153373 319.734703 167.850478 305.009379 
C 171.547583 290.284056 177.663271 276.273965 185.947832 263.551159 
C 194.232392 250.828352 204.571512 239.568383 216.543029 230.231012 
C 228.514547 220.893641 241.953277 213.607707 256.310497 208.670705 
C 270.667716 203.733704 285.745321 201.213756 300.92767 201.213756 
z
" style="fill: #2e7d32; stroke: #ffffff; stroke-width: 1.5; stroke-linejoin: miter"/>
   </g>
   <g id="patch_3">
    <path d="M 476.698706 221.532972 
C 462.509913 200.196536 444.553997 181.620831 423.711153 166.71643 
C 402.868308 151.81203 379.484761 140.826517 354.706767 134.298398 
L 335.884083 205.74139 
C 351.989779 209.984667 367.189085 217.12525 380.736934 226.81311 
C 394.284783 236.500971 405.956128 248.575179 415.178843 262.443862 
z
" style="fill: #b71c1c; stroke: #ffffff; stroke-width: 1.5; stroke-linejoin: miter"/>
   </g>
   <g id="patch_4">
    <path d="M 354.706767 134.298398 
C 345.982507 131.999866 337.119853 130.263012 328.173349 129.098525 
C 319.226845 127.934038 310.21488 127.344312 301.192916 127.332975 
L 301.10008 201.213865 
C 306.964357 201.221233 312.822134 201.604556 318.637362 202.361472 
C 324.452589 203.118389 330.213314 204.247344 335.884083 205.74139 
z
" style="fill: #0d47a1; stroke: #ffffff; stroke-width: 1.5; stroke-linejoin: miter"/>
   </g>
   <g id="patch_5">
    <path d="M 301.192916 127.332975 
C 301.148708 127.33292 301.104501 127.332878 301.060293 127.33285 
C 301.016086 127.332822 300.971878 127.332809 300.92767 127.332809 
L 300.92767 201.213756 
C 300.956405 201.213756 300.98514 201.213765 301.013875 201.213783 
C 301.04261 201.213801 301.071345 201.213828 301.10008 201.213865 
z
" style="fill: #e65100; stroke: #ffffff; stroke-width: 1.5; stroke-linejoin: miter"/>
   </g>
   <g id="matplotlib.axis_1"/>
   <g id="matplotlib.axis_2"/>
   <g id="text_1">
    <!-- 14,080,868 -->
    <g transform="translate(262.972045 334.336777) scale(0.12 -0.12)">
     <defs>
      <path id="DejaVuSans-Bold-14" d="M 750 831 
L 1813 831 
L 1813 3847 
L 722 3622 
L 722 4441 
L 1806 4666 
L 2950 4666 
L 2950 831 
L 4013 831 
L 4013 0 
L 750 0 
L 750 831 
z
" transform="scale(0.015625)"/>
      <path id="DejaVuSans-Bold-17" d="M 2356 3675 
L 1038 1722 
L 2356 1722 
L 2356 3675 
z
M 2156 4666 
L 3494 4666 
L 3494 1722 
L 4159 1722 
L 4159 850 
L 3494 850 
L 3494 0 
L 2356 0 
L 2356 850 
L 288 850 
L 288 1881 
L 2156 4666 
z
" transform="scale(0.015625)"/>
      <path id="DejaVuSans-Bold-f" d="M 653 1209 
L 1778 1209 
L 1778 256 
L 1006 -909 
L 341 -909 
L 653 256 
L 653 1209 
z
" transform="scale(0.015625)"/>
      <path id="DejaVuSans-Bold-13" d="M 2944 2338 
Q 2944 3213 2780 3570 
Q 2616 3928 2228 3928 
Q 1841 3928 1675 3570 
Q 1509 3213 1509 2338 
Q 1509 1453 1675 1090 
Q 1841 728 2228 728 
Q 2613 728 2778 1090 
Q 2944 1453 2944 2338 
z
M 4147 2328 
Q 4147 1169 3647 539 
Q 3147 -91 2228 -91 
Q 1306 -91 806 539 
Q 306 1169 306 2328 
Q 306 3491 806 4120 
Q 1306 4750 2228 4750 
Q 3147 4750 3647 4120 
Q 4147 3491 4147 2328 
z
" transform="scale(0.015625)"/>
      <path id="DejaVuSans-Bold-1b" d="M 2228 2088 
Q 1891 2088 1709 1903 
Q 1528 1719 1528 1375 
Q 1528 1031 1709 848 
Q 1891 666 2228 666 
Q 2563 666 2741 848 
Q 2919 1031 2919 1375 
Q 2919 1722 2741 1905 
Q 2563 2088 2228 2088 
z
M 1350 2484 
Q 925 2613 709 2878 
Q 494 3144 494 3541 
Q 494 4131 934 4440 
Q 1375 4750 2228 4750 
Q 3075 4750 3515 4442 
Q 3956 4134 3956 3541 
Q 3956 3144 3739 2878 
Q 3522 2613 3097 2484 
Q 3572 2353 3814 2058 
Q 4056 1763 4056 1313 
Q 4056 619 3595 264 
Q 3134 -91 2228 -91 
Q 1319 -91 855 264 
Q 391 619 391 1313 
Q 391 1763 633 2058 
Q 875 2353 1350 2484 
z
M 1631 3419 
Q 1631 3141 1786 2991 
Q 1941 2841 2228 2841 
Q 2509 2841 2662 2991 
Q 2816 3141 2816 3419 
Q 2816 3697 2662 3845 
Q 2509 3994 2228 3994 
Q 1941 3994 1786 3844 
Q 1631 3694 1631 3419 
z
" transform="scale(0.015625)"/>
      <path id="DejaVuSans-Bold-19" d="M 2316 2303 
Q 2000 2303 1842 2098 
Q 1684 1894 1684 1484 
Q 1684 1075 1842 870 
Q 2000 666 2316 666 
Q 2634 666 2792 870 
Q 2950 1075 2950 1484 
Q 2950 1894 2792 2098 
Q 2634 2303 2316 2303 
z
M 3803 4544 
L 3803 3681 
Q 3506 3822 3243 3889 
Q 2981 3956 2731 3956 
Q 2194 3956 1894 3657 
Q 1594 3359 1544 2772 
Q 1750 2925 1990 3001 
Q 2231 3078 2516 3078 
Q 3231 3078 3670 2659 
Q 4109 2241 4109 1563 
Q 4109 813 3618 361 
Q 3128 -91 2303 -91 
Q 1394 -91 895 523 
Q 397 1138 397 2266 
Q 397 3422 980 4083 
Q 1563 4744 2578 4744 
Q 2900 4744 3203 4694 
Q 3506 4644 3803 4544 
z
" transform="scale(0.015625)"/>
     </defs>
     <use xlink:href="#DejaVuSans-Bold-14"/>
     <use xlink:href="#DejaVuSans-Bold-17" transform="translate(69.578125 0)"/>
     <use xlink:href="#DejaVuSans-Bold-f" transform="translate(139.15625 0)"/>
     <use xlink:href="#DejaVuSans-Bold-13" transform="translate(177.140625 0)"/>
     <use xlink:href="#DejaVuSans-Bold-1b" transform="translate(246.71875 0)"/>
     <use xlink:href="#DejaVuSans-Bold-13" transform="translate(316.296875 0)"/>
     <use xlink:href="#DejaVuSans-Bold-f" transform="translate(385.875 0)"/>
     <use xlink:href="#DejaVuSans-Bold-1b" transform="translate(423.859375 0)"/>
     <use xlink:href="#DejaVuSans-Bold-19" transform="translate(493.4375 0)"/>
     <use xlink:href="#DejaVuSans-Bold-1b" transform="translate(563.015625 0)"/>
    </g>
    <!-- flows -->
    <g transform="translate(283.243608 348.740059) scale(0.12 -0.12)">
     <defs>
      <path id="DejaVuSans-Bold-13ac" d="M 1984 4863 
L 4206 4863 
L 4206 0 
L 3078 0 
L 3078 4128 
L 2222 4128 
Q 1984 4128 1890 4042 
Q 1797 3956 1797 3744 
L 1797 3500 
L 2675 3500 
L 2675 2700 
L 1797 2700 
L 1797 0 
L 678 0 
L 678 2700 
L 122 2700 
L 122 3500 
L 678 3500 
L 678 3744 
Q 678 4316 997 4589 
Q 1316 4863 1984 4863 
z
" transform="scale(0.015625)"/>
      <path id="DejaVuSans-Bold-52" d="M 2203 2784 
Q 1831 2784 1636 2517 
Q 1441 2250 1441 1747 
Q 1441 1244 1636 976 
Q 1831 709 2203 709 
Q 2569 709 2762 976 
Q 2956 1244 2956 1747 
Q 2956 2250 2762 2517 
Q 2569 2784 2203 2784 
z
M 2203 3584 
Q 3106 3584 3614 3096 
Q 4122 2609 4122 1747 
Q 4122 884 3614 396 
Q 3106 -91 2203 -91 
Q 1297 -91 786 396 
Q 275 884 275 1747 
Q 275 2609 786 3096 
Q 1297 3584 2203 3584 
z
" transform="scale(0.015625)"/>
      <path id="DejaVuSans-Bold-5a" d="M 225 3500 
L 1313 3500 
L 1900 1088 
L 2491 3500 
L 3425 3500 
L 4013 1113 
L 4603 3500 
L 5691 3500 
L 4769 0 
L 3547 0 
L 2956 2406 
L 2369 0 
L 1147 0 
L 225 3500 
z
" transform="scale(0.015625)"/>
      <path id="DejaVuSans-Bold-56" d="M 3272 3391 
L 3272 2541 
Q 2913 2691 2578 2766 
Q 2244 2841 1947 2841 
Q 1628 2841 1473 2761 
Q 1319 2681 1319 2516 
Q 1319 2381 1436 2309 
Q 1553 2238 1856 2203 
L 2053 2175 
Q 2913 2066 3209 1816 
Q 3506 1566 3506 1031 
Q 3506 472 3093 190 
Q 2681 -91 1863 -91 
Q 1516 -91 1145 -36 
Q 775 19 384 128 
L 384 978 
Q 719 816 1070 734 
Q 1422 653 1784 653 
Q 2113 653 2278 743 
Q 2444 834 2444 1013 
Q 2444 1163 2330 1236 
Q 2216 1309 1875 1350 
L 1678 1375 
Q 931 1469 631 1722 
Q 331 1975 331 2491 
Q 331 3047 712 3315 
Q 1094 3584 1881 3584 
Q 2191 3584 2531 3537 
Q 2872 3491 3272 3391 
z
" transform="scale(0.015625)"/>
     </defs>
     <use xlink:href="#DejaVuSans-Bold-13ac"/>
     <use xlink:href="#DejaVuSans-Bold-52" transform="translate(74.125 0)"/>
     <use xlink:href="#DejaVuSans-Bold-5a" transform="translate(142.828125 0)"/>
     <use xlink:href="#DejaVuSans-Bold-56" transform="translate(235.21875 0)"/>
    </g>
   </g>
   <g id="text_2">
    <!-- NF-CICIDS2018 -->
    <g transform="translate(250.230483 64.560703) scale(0.12 -0.12)">
     <defs>
      <path id="DejaVuSans-Bold-31" d="M 588 4666 
L 1931 4666 
L 3628 1466 
L 3628 4666 
L 4769 4666 
L 4769 0 
L 3425 0 
L 1728 3200 
L 1728 0 
L 588 0 
L 588 4666 
z
" transform="scale(0.015625)"/>
      <path id="DejaVuSans-Bold-29" d="M 588 4666 
L 3834 4666 
L 3834 3756 
L 1791 3756 
L 1791 2888 
L 3713 2888 
L 3713 1978 
L 1791 1978 
L 1791 0 
L 588 0 
L 588 4666 
z
" transform="scale(0.015625)"/>
      <path id="DejaVuSans-Bold-10" d="M 347 2297 
L 2309 2297 
L 2309 1388 
L 347 1388 
L 347 2297 
z
" transform="scale(0.015625)"/>
      <path id="DejaVuSans-Bold-26" d="M 4288 256 
Q 3956 84 3597 -3 
Q 3238 -91 2847 -91 
Q 1681 -91 1000 561 
Q 319 1213 319 2328 
Q 319 3447 1000 4098 
Q 1681 4750 2847 4750 
Q 3238 4750 3597 4662 
Q 3956 4575 4288 4403 
L 4288 3438 
Q 3953 3666 3628 3772 
Q 3303 3878 2944 3878 
Q 2300 3878 1931 3465 
Q 1563 3053 1563 2328 
Q 1563 1606 1931 1193 
Q 2300 781 2944 781 
Q 3303 781 3628 887 
Q 3953 994 4288 1222 
L 4288 256 
z
" transform="scale(0.015625)"/>
      <path id="DejaVuSans-Bold-2c" d="M 588 4666 
L 1791 4666 
L 1791 0 
L 588 0 
L 588 4666 
z
" transform="scale(0.015625)"/>
      <path id="DejaVuSans-Bold-27" d="M 1791 3756 
L 1791 909 
L 2222 909 
Q 2959 909 3348 1275 
Q 3738 1641 3738 2338 
Q 3738 3031 3350 3393 
Q 2963 3756 2222 3756 
L 1791 3756 
z
M 588 4666 
L 1856 4666 
Q 2919 4666 3439 4514 
Q 3959 4363 4331 4000 
Q 4659 3684 4818 3271 
Q 4978 2859 4978 2338 
Q 4978 1809 4818 1395 
Q 4659 981 4331 666 
Q 3956 303 3431 151 
Q 2906 0 1856 0 
L 588 0 
L 588 4666 
z
" transform="scale(0.015625)"/>
      <path id="DejaVuSans-Bold-36" d="M 3834 4519 
L 3834 3531 
Q 3450 3703 3084 3790 
Q 2719 3878 2394 3878 
Q 1963 3878 1756 3759 
Q 1550 3641 1550 3391 
Q 1550 3203 1689 3098 
Q 1828 2994 2194 2919 
L 2706 2816 
Q 3484 2659 3812 2340 
Q 4141 2022 4141 1434 
Q 4141 663 3683 286 
Q 3225 -91 2284 -91 
Q 1841 -91 1394 -6 
Q 947 78 500 244 
L 500 1259 
Q 947 1022 1364 901 
Q 1781 781 2169 781 
Q 2563 781 2772 912 
Q 2981 1044 2981 1288 
Q 2981 1506 2839 1625 
Q 2697 1744 2272 1838 
L 1806 1941 
Q 1106 2091 782 2419 
Q 459 2747 459 3303 
Q 459 4000 909 4375 
Q 1359 4750 2203 4750 
Q 2588 4750 2994 4692 
Q 3400 4634 3834 4519 
z
" transform="scale(0.015625)"/>
      <path id="DejaVuSans-Bold-15" d="M 1844 884 
L 3897 884 
L 3897 0 
L 506 0 
L 506 884 
L 2209 2388 
Q 2438 2594 2547 2791 
Q 2656 2988 2656 3200 
Q 2656 3528 2436 3728 
Q 2216 3928 1850 3928 
Q 1569 3928 1234 3808 
Q 900 3688 519 3450 
L 519 4475 
Q 925 4609 1322 4679 
Q 1719 4750 2100 4750 
Q 2938 4750 3402 4381 
Q 3866 4013 3866 3353 
Q 3866 2972 3669 2642 
Q 3472 2313 2841 1759 
L 1844 884 
z
" transform="scale(0.015625)"/>
     </defs>
     <use xlink:href="#DejaVuSans-Bold-31"/>
     <use xlink:href="#DejaVuSans-Bold-29" transform="translate(83.6875 0)"/>
     <use xlink:href="#DejaVuSans-Bold-10" transform="translate(148.921875 0)"/>
     <use xlink:href="#DejaVuSans-Bold-26" transform="translate(190.421875 0)"/>
     <use xlink:href="#DejaVuSans-Bold-2c" transform="translate(263.8125 0)"/>
     <use xlink:href="#DejaVuSans-Bold-26" transform="translate(301.015625 0)"/>
     <use xlink:href="#DejaVuSans-Bold-2c" transform="translate(374.40625 0)"/>
     <use xlink:href="#DejaVuSans-Bold-27" transform="translate(411.609375 0)"/>
     <use xlink:href="#DejaVuSans-Bold-36" transform="translate(494.625 0)"/>
     <use xlink:href="#DejaVuSans-Bold-15" transform="translate(566.640625 0)"/>
     <use xlink:href="#DejaVuSans-Bold-13" transform="translate(636.21875 0)"/>
     <use xlink:href="#DejaVuSans-Bold-14" transform="translate(705.796875 0)"/>
     <use xlink:href="#DejaVuSans-Bold-1b" transform="translate(775.375 0)"/>
    </g>
   </g>
   <g id="legend_1">
    <g id="patch_6">
     <path d="M 569.688198 385.827559 
L 637.62976 385.827559 
Q 639.02976 385.827559 639.02976 384.427559 
L 639.02976 292.414902 
Q 639.02976 291.014902 637.62976 291.014902 
L 569.688198 291.014902 
Q 568.288198 291.014902 568.288198 292.414902 
L 568.288198 384.427559 
Q 568.288198 385.827559 569.688198 385.827559 
z
" style="fill: #ffffff; opacity: 0.8; stroke: #cccccc; stroke-linejoin: miter"/>
    </g>
    <g id="text_3">
     <!-- Classes -->
     <g transform="translate(588.590854 299.893652) scale(0.08 -0.08)">
      <defs>
       <path id="DejaVuSans-26" d="M 4122 4306 
L 4122 3641 
Q 3803 3938 3442 4084 
Q 3081 4231 2675 4231 
Q 1875 4231 1450 3742 
Q 1025 3253 1025 2328 
Q 1025 1406 1450 917 
Q 1875 428 2675 428 
Q 3081 428 3442 575 
Q 3803 722 4122 1019 
L 4122 359 
Q 3791 134 3420 21 
Q 3050 -91 2638 -91 
Q 1578 -91 968 557 
Q 359 1206 359 2328 
Q 359 3453 968 4101 
Q 1578 4750 2638 4750 
Q 3056 4750 3426 4639 
Q 3797 4528 4122 4306 
z
" transform="scale(0.015625)"/>
       <path id="DejaVuSans-4f" d="M 603 4863 
L 1178 4863 
L 1178 0 
L 603 0 
L 603 4863 
z
" transform="scale(0.015625)"/>
       <path id="DejaVuSans-44" d="M 2194 1759 
Q 1497 1759 1228 1600 
Q 959 1441 959 1056 
Q 959 750 1161 570 
Q 1363 391 1709 391 
Q 2188 391 2477 730 
Q 2766 1069 2766 1631 
L 2766 1759 
L 2194 1759 
z
M 3341 1997 
L 3341 0 
L 2766 0 
L 2766 531 
Q 2569 213 2275 61 
Q 1981 -91 1556 -91 
Q 1019 -91 701 211 
Q 384 513 384 1019 
Q 384 1609 779 1909 
Q 1175 2209 1959 2209 
L 2766 2209 
L 2766 2266 
Q 2766 2663 2505 2880 
Q 2244 3097 1772 3097 
Q 1472 3097 1187 3025 
Q 903 2953 641 2809 
L 641 3341 
Q 956 3463 1253 3523 
Q 1550 3584 1831 3584 
Q 2591 3584 2966 3190 
Q 3341 2797 3341 1997 
z
" transform="scale(0.015625)"/>
       <path id="DejaVuSans-56" d="M 2834 3397 
L 2834 2853 
Q 2591 2978 2328 3040 
Q 2066 3103 1784 3103 
Q 1356 3103 1142 2972 
Q 928 2841 928 2578 
Q 928 2378 1081 2264 
Q 1234 2150 1697 2047 
L 1894 2003 
Q 2506 1872 2764 1633 
Q 3022 1394 3022 966 
Q 3022 478 2636 193 
Q 2250 -91 1575 -91 
Q 1294 -91 989 -36 
Q 684 19 347 128 
L 347 722 
Q 666 556 975 473 
Q 1284 391 1588 391 
Q 1994 391 2212 530 
Q 2431 669 2431 922 
Q 2431 1156 2273 1281 
Q 2116 1406 1581 1522 
L 1381 1569 
Q 847 1681 609 1914 
Q 372 2147 372 2553 
Q 372 3047 722 3315 
Q 1072 3584 1716 3584 
Q 2034 3584 2315 3537 
Q 2597 3491 2834 3397 
z
" transform="scale(0.015625)"/>
       <path id="DejaVuSans-48" d="M 3597 1894 
L 3597 1613 
L 953 1613 
Q 991 1019 1311 708 
Q 1631 397 2203 397 
Q 2534 397 2845 478 
Q 3156 559 3463 722 
L 3463 178 
Q 3153 47 2828 -22 
Q 2503 -91 2169 -91 
Q 1331 -91 842 396 
Q 353 884 353 1716 
Q 353 2575 817 3079 
Q 1281 3584 2069 3584 
Q 2775 3584 3186 3129 
Q 3597 2675 3597 1894 
z
M 3022 2063 
Q 3016 2534 2758 2815 
Q 2500 3097 2075 3097 
Q 1594 3097 1305 2825 
Q 1016 2553 972 2059 
L 3022 2063 
z
" transform="scale(0.015625)"/>
      </defs>
      <use xlink:href="#DejaVuSans-26"/>
      <use xlink:href="#DejaVuSans-4f" transform="translate(69.828125 0)"/>
      <use xlink:href="#DejaVuSans-44" transform="translate(97.609375 0)"/>
      <use xlink:href="#DejaVuSans-56" transform="translate(158.890625 0)"/>
      <use xlink:href="#DejaVuSans-56" transform="translate(210.984375 0)"/>
      <use xlink:href="#DejaVuSans-48" transform="translate(263.078125 0)"/>
      <use xlink:href="#DejaVuSans-56" transform="translate(324.609375 0)"/>
     </g>
    </g>
    <g id="patch_7">
     <path d="M 571.088198 316.376621 
L 585.088198 316.376621 
L 585.088198 311.476621 
L 571.088198 311.476621 
z
" style="fill: #2e7d32; stroke: #ffffff; stroke-width: 1.5; stroke-linejoin: miter"/>
    </g>
    <g id="text_4">
     <!-- Benign -->
     <g transform="translate(590.688198 311.335117) scale(0.07 -0.07)">
      <defs>
       <path id="DejaVuSans-25" d="M 1259 2228 
L 1259 519 
L 2272 519 
Q 2781 519 3026 730 
Q 3272 941 3272 1375 
Q 3272 1813 3026 2020 
Q 2781 2228 2272 2228 
L 1259 2228 
z
M 1259 4147 
L 1259 2741 
L 2194 2741 
Q 2656 2741 2882 2914 
Q 3109 3088 3109 3444 
Q 3109 3797 2882 3972 
Q 2656 4147 2194 4147 
L 1259 4147 
z
M 628 4666 
L 2241 4666 
Q 2963 4666 3353 4366 
Q 3744 4066 3744 3513 
Q 3744 3084 3544 2831 
Q 3344 2578 2956 2516 
Q 3422 2416 3680 2098 
Q 3938 1781 3938 1306 
Q 3938 681 3513 340 
Q 3088 0 2303 0 
L 628 0 
L 628 4666 
z
" transform="scale(0.015625)"/>
       <path id="DejaVuSans-51" d="M 3513 2113 
L 3513 0 
L 2938 0 
L 2938 2094 
Q 2938 2591 2744 2837 
Q 2550 3084 2163 3084 
Q 1697 3084 1428 2787 
Q 1159 2491 1159 1978 
L 1159 0 
L 581 0 
L 581 3500 
L 1159 3500 
L 1159 2956 
Q 1366 3272 1645 3428 
Q 1925 3584 2291 3584 
Q 2894 3584 3203 3211 
Q 3513 2838 3513 2113 
z
" transform="scale(0.015625)"/>
       <path id="DejaVuSans-4c" d="M 603 3500 
L 1178 3500 
L 1178 0 
L 603 0 
L 603 3500 
z
M 603 4863 
L 1178 4863 
L 1178 4134 
L 603 4134 
L 603 4863 
z
" transform="scale(0.015625)"/>
       <path id="DejaVuSans-4a" d="M 2906 1791 
Q 2906 2416 2648 2759 
Q 2391 3103 1925 3103 
Q 1463 3103 1205 2759 
Q 947 2416 947 1791 
Q 947 1169 1205 825 
Q 1463 481 1925 481 
Q 2391 481 2648 825 
Q 2906 1169 2906 1791 
z
M 3481 434 
Q 3481 -459 3084 -895 
Q 2688 -1331 1869 -1331 
Q 1566 -1331 1297 -1286 
Q 1028 -1241 775 -1147 
L 775 -588 
Q 1028 -725 1275 -790 
Q 1522 -856 1778 -856 
Q 2344 -856 2625 -561 
Q 2906 -266 2906 331 
L 2906 616 
Q 2728 306 2450 153 
Q 2172 0 1784 0 
Q 1141 0 747 490 
Q 353 981 353 1791 
Q 353 2603 747 3093 
Q 1141 3584 1784 3584 
Q 2172 3584 2450 3431 
Q 2728 3278 2906 2969 
L 2906 3500 
L 3481 3500 
L 3481 434 
z
" transform="scale(0.015625)"/>
      </defs>
      <use xlink:href="#DejaVuSans-25"/>
      <use xlink:href="#DejaVuSans-48" transform="translate(68.609375 0)"/>
      <use xlink:href="#DejaVuSans-51" transform="translate(130.140625 0)"/>
      <use xlink:href="#DejaVuSans-4c" transform="translate(193.515625 0)"/>
      <use xlink:href="#DejaVuSans-4a" transform="translate(221.296875 0)"/>
      <use xlink:href="#DejaVuSans-51" transform="translate(284.78125 0)"/>
     </g>
     <!-- (11,875,805) -->
     <g transform="translate(590.688198 319.736484) scale(0.07 -0.07)">
      <defs>
       <path id="DejaVuSans-b" d="M 1984 4856 
Q 1566 4138 1362 3434 
Q 1159 2731 1159 2009 
Q 1159 1288 1364 580 
Q 1569 -128 1984 -844 
L 1484 -844 
Q 1016 -109 783 600 
Q 550 1309 550 2009 
Q 550 2706 781 3412 
Q 1013 4119 1484 4856 
L 1984 4856 
z
" transform="scale(0.015625)"/>
       <path id="DejaVuSans-14" d="M 794 531 
L 1825 531 
L 1825 4091 
L 703 3866 
L 703 4441 
L 1819 4666 
L 2450 4666 
L 2450 531 
L 3481 531 
L 3481 0 
L 794 0 
L 794 531 
z
" transform="scale(0.015625)"/>
       <path id="DejaVuSans-f" d="M 750 794 
L 1409 794 
L 1409 256 
L 897 -744 
L 494 -744 
L 750 256 
L 750 794 
z
" transform="scale(0.015625)"/>
       <path id="DejaVuSans-1b" d="M 2034 2216 
Q 1584 2216 1326 1975 
Q 1069 1734 1069 1313 
Q 1069 891 1326 650 
Q 1584 409 2034 409 
Q 2484 409 2743 651 
Q 3003 894 3003 1313 
Q 3003 1734 2745 1975 
Q 2488 2216 2034 2216 
z
M 1403 2484 
Q 997 2584 770 2862 
Q 544 3141 544 3541 
Q 544 4100 942 4425 
Q 1341 4750 2034 4750 
Q 2731 4750 3128 4425 
Q 3525 4100 3525 3541 
Q 3525 3141 3298 2862 
Q 3072 2584 2669 2484 
Q 3125 2378 3379 2068 
Q 3634 1759 3634 1313 
Q 3634 634 3220 271 
Q 2806 -91 2034 -91 
Q 1263 -91 848 271 
Q 434 634 434 1313 
Q 434 1759 690 2068 
Q 947 2378 1403 2484 
z
M 1172 3481 
Q 1172 3119 1398 2916 
Q 1625 2713 2034 2713 
Q 2441 2713 2670 2916 
Q 2900 3119 2900 3481 
Q 2900 3844 2670 4047 
Q 2441 4250 2034 4250 
Q 1625 4250 1398 4047 
Q 1172 3844 1172 3481 
z
" transform="scale(0.015625)"/>
       <path id="DejaVuSans-1a" d="M 525 4666 
L 3525 4666 
L 3525 4397 
L 1831 0 
L 1172 0 
L 2766 4134 
L 525 4134 
L 525 4666 
z
" transform="scale(0.015625)"/>
       <path id="DejaVuSans-18" d="M 691 4666 
L 3169 4666 
L 3169 4134 
L 1269 4134 
L 1269 2991 
Q 1406 3038 1543 3061 
Q 1681 3084 1819 3084 
Q 2600 3084 3056 2656 
Q 3513 2228 3513 1497 
Q 3513 744 3044 326 
Q 2575 -91 1722 -91 
Q 1428 -91 1123 -41 
Q 819 9 494 109 
L 494 744 
Q 775 591 1075 516 
Q 1375 441 1709 441 
Q 2250 441 2565 725 
Q 2881 1009 2881 1497 
Q 2881 1984 2565 2268 
Q 2250 2553 1709 2553 
Q 1456 2553 1204 2497 
Q 953 2441 691 2322 
L 691 4666 
z
" transform="scale(0.015625)"/>
       <path id="DejaVuSans-13" d="M 2034 4250 
Q 1547 4250 1301 3770 
Q 1056 3291 1056 2328 
Q 1056 1369 1301 889 
Q 1547 409 2034 409 
Q 2525 409 2770 889 
Q 3016 1369 3016 2328 
Q 3016 3291 2770 3770 
Q 2525 4250 2034 4250 
z
M 2034 4750 
Q 2819 4750 3233 4129 
Q 3647 3509 3647 2328 
Q 3647 1150 3233 529 
Q 2819 -91 2034 -91 
Q 1250 -91 836 529 
Q 422 1150 422 2328 
Q 422 3509 836 4129 
Q 1250 4750 2034 4750 
z
" transform="scale(0.015625)"/>
       <path id="DejaVuSans-c" d="M 513 4856 
L 1013 4856 
Q 1481 4119 1714 3412 
Q 1947 2706 1947 2009 
Q 1947 1309 1714 600 
Q 1481 -109 1013 -844 
L 513 -844 
Q 928 -128 1133 580 
Q 1338 1288 1338 2009 
Q 1338 2731 1133 3434 
Q 928 4138 513 4856 
z
" transform="scale(0.015625)"/>
      </defs>
      <use xlink:href="#DejaVuSans-b"/>
      <use xlink:href="#DejaVuSans-14" transform="translate(39.015625 0)"/>
      <use xlink:href="#DejaVuSans-14" transform="translate(102.640625 0)"/>
      <use xlink:href="#DejaVuSans-f" transform="translate(166.265625 0)"/>
      <use xlink:href="#DejaVuSans-1b" transform="translate(198.046875 0)"/>
      <use xlink:href="#DejaVuSans-1a" transform="translate(261.671875 0)"/>
      <use xlink:href="#DejaVuSans-18" transform="translate(325.296875 0)"/>
      <use xlink:href="#DejaVuSans-f" transform="translate(388.921875 0)"/>
      <use xlink:href="#DejaVuSans-1b" transform="translate(420.703125 0)"/>
      <use xlink:href="#DejaVuSans-13" transform="translate(484.328125 0)"/>
      <use xlink:href="#DejaVuSans-18" transform="translate(547.953125 0)"/>
      <use xlink:href="#DejaVuSans-c" transform="translate(611.578125 0)"/>
     </g>
    </g>
    <g id="patch_8">
     <path d="M 571.088198 336.679629 
L 585.088198 336.679629 
L 585.088198 331.779629 
L 571.088198 331.779629 
z
" style="fill: #b71c1c; stroke: #ffffff; stroke-width: 1.5; stroke-linejoin: miter"/>
    </g>
    <g id="text_5">
     <!-- DoS/DDoS -->
     <g transform="translate(590.688198 331.637852) scale(0.07 -0.07)">
      <defs>
       <path id="DejaVuSans-27" d="M 1259 4147 
L 1259 519 
L 2022 519 
Q 2988 519 3436 956 
Q 3884 1394 3884 2338 
Q 3884 3275 3436 3711 
Q 2988 4147 2022 4147 
L 1259 4147 
z
M 628 4666 
L 1925 4666 
Q 3281 4666 3915 4102 
Q 4550 3538 4550 2338 
Q 4550 1131 3912 565 
Q 3275 0 1925 0 
L 628 0 
L 628 4666 
z
" transform="scale(0.015625)"/>
       <path id="DejaVuSans-52" d="M 1959 3097 
Q 1497 3097 1228 2736 
Q 959 2375 959 1747 
Q 959 1119 1226 758 
Q 1494 397 1959 397 
Q 2419 397 2687 759 
Q 2956 1122 2956 1747 
Q 2956 2369 2687 2733 
Q 2419 3097 1959 3097 
z
M 1959 3584 
Q 2709 3584 3137 3096 
Q 3566 2609 3566 1747 
Q 3566 888 3137 398 
Q 2709 -91 1959 -91 
Q 1206 -91 779 398 
Q 353 888 353 1747 
Q 353 2609 779 3096 
Q 1206 3584 1959 3584 
z
" transform="scale(0.015625)"/>
       <path id="DejaVuSans-36" d="M 3425 4513 
L 3425 3897 
Q 3066 4069 2747 4153 
Q 2428 4238 2131 4238 
Q 1616 4238 1336 4038 
Q 1056 3838 1056 3469 
Q 1056 3159 1242 3001 
Q 1428 2844 1947 2747 
L 2328 2669 
Q 3034 2534 3370 2195 
Q 3706 1856 3706 1288 
Q 3706 609 3251 259 
Q 2797 -91 1919 -91 
Q 1588 -91 1214 -16 
Q 841 59 441 206 
L 441 856 
Q 825 641 1194 531 
Q 1563 422 1919 422 
Q 2459 422 2753 634 
Q 3047 847 3047 1241 
Q 3047 1584 2836 1778 
Q 2625 1972 2144 2069 
L 1759 2144 
Q 1053 2284 737 2584 
Q 422 2884 422 3419 
Q 422 4038 858 4394 
Q 1294 4750 2059 4750 
Q 2388 4750 2728 4690 
Q 3069 4631 3425 4513 
z
" transform="scale(0.015625)"/>
       <path id="DejaVuSans-12" d="M 1625 4666 
L 2156 4666 
L 531 -594 
L 0 -594 
L 1625 4666 
z
" transform="scale(0.015625)"/>
      </defs>
      <use xlink:href="#DejaVuSans-27"/>
      <use xlink:href="#DejaVuSans-52" transform="translate(77 0)"/>
      <use xlink:href="#DejaVuSans-36" transform="translate(138.1875 0)"/>
      <use xlink:href="#DejaVuSans-12" transform="translate(201.671875 0)"/>
      <use xlink:href="#DejaVuSans-27" transform="translate(235.359375 0)"/>
      <use xlink:href="#DejaVuSans-27" transform="translate(312.359375 0)"/>
      <use xlink:href="#DejaVuSans-52" transform="translate(389.359375 0)"/>
      <use xlink:href="#DejaVuSans-36" transform="translate(450.546875 0)"/>
     </g>
     <!-- (1,627,748) -->
     <g transform="translate(590.688198 340.039219) scale(0.07 -0.07)">
      <defs>
       <path id="DejaVuSans-19" d="M 2113 2584 
Q 1688 2584 1439 2293 
Q 1191 2003 1191 1497 
Q 1191 994 1439 701 
Q 1688 409 2113 409 
Q 2538 409 2786 701 
Q 3034 994 3034 1497 
Q 3034 2003 2786 2293 
Q 2538 2584 2113 2584 
z
M 3366 4563 
L 3366 3988 
Q 3128 4100 2886 4159 
Q 2644 4219 2406 4219 
Q 1781 4219 1451 3797 
Q 1122 3375 1075 2522 
Q 1259 2794 1537 2939 
Q 1816 3084 2150 3084 
Q 2853 3084 3261 2657 
Q 3669 2231 3669 1497 
Q 3669 778 3244 343 
Q 2819 -91 2113 -91 
Q 1303 -91 875 529 
Q 447 1150 447 2328 
Q 447 3434 972 4092 
Q 1497 4750 2381 4750 
Q 2619 4750 2861 4703 
Q 3103 4656 3366 4563 
z
" transform="scale(0.015625)"/>
       <path id="DejaVuSans-15" d="M 1228 531 
L 3431 531 
L 3431 0 
L 469 0 
L 469 531 
Q 828 903 1448 1529 
Q 2069 2156 2228 2338 
Q 2531 2678 2651 2914 
Q 2772 3150 2772 3378 
Q 2772 3750 2511 3984 
Q 2250 4219 1831 4219 
Q 1534 4219 1204 4116 
Q 875 4013 500 3803 
L 500 4441 
Q 881 4594 1212 4672 
Q 1544 4750 1819 4750 
Q 2544 4750 2975 4387 
Q 3406 4025 3406 3419 
Q 3406 3131 3298 2873 
Q 3191 2616 2906 2266 
Q 2828 2175 2409 1742 
Q 1991 1309 1228 531 
z
" transform="scale(0.015625)"/>
       <path id="DejaVuSans-17" d="M 2419 4116 
L 825 1625 
L 2419 1625 
L 2419 4116 
z
M 2253 4666 
L 3047 4666 
L 3047 1625 
L 3713 1625 
L 3713 1100 
L 3047 1100 
L 3047 0 
L 2419 0 
L 2419 1100 
L 313 1100 
L 313 1709 
L 2253 4666 
z
" transform="scale(0.015625)"/>
      </defs>
      <use xlink:href="#DejaVuSans-b"/>
      <use xlink:href="#DejaVuSans-14" transform="translate(39.015625 0)"/>
      <use xlink:href="#DejaVuSans-f" transform="translate(102.640625 0)"/>
      <use xlink:href="#DejaVuSans-19" transform="translate(134.421875 0)"/>
      <use xlink:href="#DejaVuSans-15" transform="translate(198.046875 0)"/>
      <use xlink:href="#DejaVuSans-1a" transform="translate(261.671875 0)"/>
      <use xlink:href="#DejaVuSans-f" transform="translate(325.296875 0)"/>
      <use xlink:href="#DejaVuSans-1a" transform="translate(357.078125 0)"/>
      <use xlink:href="#DejaVuSans-17" transform="translate(420.703125 0)"/>
      <use xlink:href="#DejaVuSans-1b" transform="translate(484.328125 0)"/>
      <use xlink:href="#DejaVuSans-c" transform="translate(547.953125 0)"/>
     </g>
    </g>
    <g id="patch_9">
     <path d="M 571.088198 356.982363 
L 585.088198 356.982363 
L 585.088198 352.082363 
L 571.088198 352.082363 
z
" style="fill: #0d47a1; stroke: #ffffff; stroke-width: 1.5; stroke-linejoin: miter"/>
    </g>
    <g id="text_6">
     <!-- Brute Force -->
     <g transform="translate(590.688198 351.940586) scale(0.07 -0.07)">
      <defs>
       <path id="DejaVuSans-55" d="M 2631 2963 
Q 2534 3019 2420 3045 
Q 2306 3072 2169 3072 
Q 1681 3072 1420 2755 
Q 1159 2438 1159 1844 
L 1159 0 
L 581 0 
L 581 3500 
L 1159 3500 
L 1159 2956 
Q 1341 3275 1631 3429 
Q 1922 3584 2338 3584 
Q 2397 3584 2469 3576 
Q 2541 3569 2628 3553 
L 2631 2963 
z
" transform="scale(0.015625)"/>
       <path id="DejaVuSans-58" d="M 544 1381 
L 544 3500 
L 1119 3500 
L 1119 1403 
Q 1119 906 1312 657 
Q 1506 409 1894 409 
Q 2359 409 2629 706 
Q 2900 1003 2900 1516 
L 2900 3500 
L 3475 3500 
L 3475 0 
L 2900 0 
L 2900 538 
Q 2691 219 2414 64 
Q 2138 -91 1772 -91 
Q 1169 -91 856 284 
Q 544 659 544 1381 
z
M 1991 3584 
L 1991 3584 
z
" transform="scale(0.015625)"/>
       <path id="DejaVuSans-57" d="M 1172 4494 
L 1172 3500 
L 2356 3500 
L 2356 3053 
L 1172 3053 
L 1172 1153 
Q 1172 725 1289 603 
Q 1406 481 1766 481 
L 2356 481 
L 2356 0 
L 1766 0 
Q 1100 0 847 248 
Q 594 497 594 1153 
L 594 3053 
L 172 3053 
L 172 3500 
L 594 3500 
L 594 4494 
L 1172 4494 
z
" transform="scale(0.015625)"/>
       <path id="DejaVuSans-3" transform="scale(0.015625)"/>
       <path id="DejaVuSans-29" d="M 628 4666 
L 3309 4666 
L 3309 4134 
L 1259 4134 
L 1259 2759 
L 3109 2759 
L 3109 2228 
L 1259 2228 
L 1259 0 
L 628 0 
L 628 4666 
z
" transform="scale(0.015625)"/>
       <path id="DejaVuSans-46" d="M 3122 3366 
L 3122 2828 
Q 2878 2963 2633 3030 
Q 2388 3097 2138 3097 
Q 1578 3097 1268 2742 
Q 959 2388 959 1747 
Q 959 1106 1268 751 
Q 1578 397 2138 397 
Q 2388 397 2633 464 
Q 2878 531 3122 666 
L 3122 134 
Q 2881 22 2623 -34 
Q 2366 -91 2075 -91 
Q 1284 -91 818 406 
Q 353 903 353 1747 
Q 353 2603 823 3093 
Q 1294 3584 2113 3584 
Q 2378 3584 2631 3529 
Q 2884 3475 3122 3366 
z
" transform="scale(0.015625)"/>
      </defs>
      <use xlink:href="#DejaVuSans-25"/>
      <use xlink:href="#DejaVuSans-55" transform="translate(68.609375 0)"/>
      <use xlink:href="#DejaVuSans-58" transform="translate(109.71875 0)"/>
      <use xlink:href="#DejaVuSans-57" transform="translate(173.09375 0)"/>
      <use xlink:href="#DejaVuSans-48" transform="translate(212.296875 0)"/>
      <use xlink:href="#DejaVuSans-3" transform="translate(273.828125 0)"/>
      <use xlink:href="#DejaVuSans-29" transform="translate(305.609375 0)"/>
      <use xlink:href="#DejaVuSans-52" transform="translate(359.5625 0)"/>
      <use xlink:href="#DejaVuSans-55" transform="translate(420.75 0)"/>
      <use xlink:href="#DejaVuSans-46" transform="translate(459.65625 0)"/>
      <use xlink:href="#DejaVuSans-48" transform="translate(514.640625 0)"/>
     </g>
     <!-- (574,499) -->
     <g transform="translate(590.688198 360.341953) scale(0.07 -0.07)">
      <defs>
       <path id="DejaVuSans-1c" d="M 703 97 
L 703 672 
Q 941 559 1184 500 
Q 1428 441 1663 441 
Q 2288 441 2617 861 
Q 2947 1281 2994 2138 
Q 2813 1869 2534 1725 
Q 2256 1581 1919 1581 
Q 1219 1581 811 2004 
Q 403 2428 403 3163 
Q 403 3881 828 4315 
Q 1253 4750 1959 4750 
Q 2769 4750 3195 4129 
Q 3622 3509 3622 2328 
Q 3622 1225 3098 567 
Q 2575 -91 1691 -91 
Q 1453 -91 1209 -44 
Q 966 3 703 97 
z
M 1959 2075 
Q 2384 2075 2632 2365 
Q 2881 2656 2881 3163 
Q 2881 3666 2632 3958 
Q 2384 4250 1959 4250 
Q 1534 4250 1286 3958 
Q 1038 3666 1038 3163 
Q 1038 2656 1286 2365 
Q 1534 2075 1959 2075 
z
" transform="scale(0.015625)"/>
      </defs>
      <use xlink:href="#DejaVuSans-b"/>
      <use xlink:href="#DejaVuSans-18" transform="translate(39.015625 0)"/>
      <use xlink:href="#DejaVuSans-1a" transform="translate(102.640625 0)"/>
      <use xlink:href="#DejaVuSans-17" transform="translate(166.265625 0)"/>
      <use xlink:href="#DejaVuSans-f" transform="translate(229.890625 0)"/>
      <use xlink:href="#DejaVuSans-17" transform="translate(261.671875 0)"/>
      <use xlink:href="#DejaVuSans-1c" transform="translate(325.296875 0)"/>
      <use xlink:href="#DejaVuSans-1c" transform="translate(388.921875 0)"/>
      <use xlink:href="#DejaVuSans-c" transform="translate(452.546875 0)"/>
     </g>
    </g>
    <g id="patch_10">
     <path d="M 571.088198 377.285371 
L 585.088198 377.285371 
L 585.088198 372.385371 
L 571.088198 372.385371 
z
" style="fill: #e65100; stroke: #ffffff; stroke-width: 1.5; stroke-linejoin: miter"/>
    </g>
    <g id="text_7">
     <!-- Web Attack -->
     <g transform="translate(590.688198 372.243867) scale(0.07 -0.07)">
      <defs>
       <path id="DejaVuSans-3a" d="M 213 4666 
L 850 4666 
L 1831 722 
L 2809 4666 
L 3519 4666 
L 4500 722 
L 5478 4666 
L 6119 4666 
L 4947 0 
L 4153 0 
L 3169 4050 
L 2175 0 
L 1381 0 
L 213 4666 
z
" transform="scale(0.015625)"/>
       <path id="DejaVuSans-45" d="M 3116 1747 
Q 3116 2381 2855 2742 
Q 2594 3103 2138 3103 
Q 1681 3103 1420 2742 
Q 1159 2381 1159 1747 
Q 1159 1113 1420 752 
Q 1681 391 2138 391 
Q 2594 391 2855 752 
Q 3116 1113 3116 1747 
z
M 1159 2969 
Q 1341 3281 1617 3432 
Q 1894 3584 2278 3584 
Q 2916 3584 3314 3078 
Q 3713 2572 3713 1747 
Q 3713 922 3314 415 
Q 2916 -91 2278 -91 
Q 1894 -91 1617 61 
Q 1341 213 1159 525 
L 1159 0 
L 581 0 
L 581 4863 
L 1159 4863 
L 1159 2969 
z
" transform="scale(0.015625)"/>
       <path id="DejaVuSans-24" d="M 2188 4044 
L 1331 1722 
L 3047 1722 
L 2188 4044 
z
M 1831 4666 
L 2547 4666 
L 4325 0 
L 3669 0 
L 3244 1197 
L 1141 1197 
L 716 0 
L 50 0 
L 1831 4666 
z
" transform="scale(0.015625)"/>
       <path id="DejaVuSans-4e" d="M 581 4863 
L 1159 4863 
L 1159 1991 
L 2875 3500 
L 3609 3500 
L 1753 1863 
L 3688 0 
L 2938 0 
L 1159 1709 
L 1159 0 
L 581 0 
L 581 4863 
z
" transform="scale(0.015625)"/>
      </defs>
      <use xlink:href="#DejaVuSans-3a"/>
      <use xlink:href="#DejaVuSans-48" transform="translate(93.015625 0)"/>
      <use xlink:href="#DejaVuSans-45" transform="translate(154.546875 0)"/>
      <use xlink:href="#DejaVuSans-3" transform="translate(218.03125 0)"/>
      <use xlink:href="#DejaVuSans-24" transform="translate(249.8125 0)"/>
      <use xlink:href="#DejaVuSans-57" transform="translate(316.46875 0)"/>
      <use xlink:href="#DejaVuSans-57" transform="translate(355.671875 0)"/>
      <use xlink:href="#DejaVuSans-44" transform="translate(394.875 0)"/>
      <use xlink:href="#DejaVuSans-46" transform="translate(456.15625 0)"/>
      <use xlink:href="#DejaVuSans-4e" transform="translate(511.140625 0)"/>
     </g>
     <!-- (2,816) -->
     <g transform="translate(590.688198 380.645234) scale(0.07 -0.07)">
      <use xlink:href="#DejaVuSans-b"/>
      <use xlink:href="#DejaVuSans-15" transform="translate(39.015625 0)"/>
      <use xlink:href="#DejaVuSans-f" transform="translate(102.640625 0)"/>
      <use xlink:href="#DejaVuSans-1b" transform="translate(134.421875 0)"/>
      <use xlink:href="#DejaVuSans-14" transform="translate(198.046875 0)"/>
      <use xlink:href="#DejaVuSans-19" transform="translate(261.671875 0)"/>
      <use xlink:href="#DejaVuSans-c" transform="translate(325.296875 0)"/>
     </g>
    </g>
   </g>
  </g>
  <g id="axes_2">
   <g id="patch_11">
    <path d="M 923.497557 127.332809 
C 896.879016 127.332809 870.499103 132.367761 845.751756 142.171613 
C 821.004409 151.975466 798.333334 166.372441 778.936491 184.601791 
C 759.539648 202.83114 743.764811 224.566022 732.445537 248.657944 
C 721.126263 272.749867 714.4655 298.766877 712.815209 325.334211 
C 711.164918 351.901545 714.554687 378.542867 722.805398 403.850424 
C 731.05611 429.157982 744.019833 452.678025 761.011552 473.167734 
C 778.003272 493.657443 798.718336 510.749449 822.062143 523.540594 
C 845.40595 536.331739 870.959957 544.592686 897.373869 547.886919 
C 923.787781 551.181152 950.58801 549.449607 976.35841 542.783781 
C 1002.128809 536.117955 1026.407328 524.637361 1047.91107 508.948646 
C 1069.414812 493.259931 1087.758226 473.644383 1101.97203 451.138506 
C 1116.185834 428.632629 1126.015182 403.639941 1130.940682 377.481077 
C 1135.866183 351.322213 1135.799524 324.466188 1130.744229 298.332097 
C 1125.688934 272.198006 1115.735641 247.25442 1101.410292 224.819379 
C 1087.084942 202.384338 1068.64438 182.860091 1047.063023 167.278315 
C 1025.481666 151.69654 1001.146454 140.336609 975.343283 133.798791 
L 957.197279 205.416645 
C 973.96934 209.666226 989.787228 217.050182 1003.81511 227.178336 
C 1017.842992 237.30649 1029.829357 249.99725 1039.140834 264.580027 
C 1048.452312 279.162804 1054.921952 295.376135 1058.207894 312.363294 
C 1061.493836 329.350453 1061.537164 346.806869 1058.335588 363.810131 
C 1055.134013 380.813392 1048.744937 397.05864 1039.505964 411.68746 
C 1030.266992 426.31628 1018.343773 439.066386 1004.366341 449.264051 
C 990.388908 459.461716 974.60787 466.924101 957.857111 471.256888 
C 941.106352 475.589675 923.686203 476.71518 906.51716 474.573928 
C 889.348117 472.432677 872.738012 467.063061 857.564538 458.748817 
C 842.391064 450.434572 828.926272 439.324769 817.881654 426.006458 
C 806.837036 412.688147 798.410616 397.400119 793.047654 380.950206 
C 787.684691 364.500294 785.481341 347.183435 786.554031 329.914668 
C 787.62672 312.645901 791.956216 295.734844 799.313744 280.075095 
C 806.671272 264.415345 816.924916 250.287672 829.532864 238.438595 
C 842.140812 226.589517 856.877011 217.231483 872.962786 210.858979 
C 889.048562 204.486475 906.195505 201.213756 923.497557 201.213756 
z
" style="fill: #2e7d32; stroke: #ffffff; stroke-width: 1.5; stroke-linejoin: miter"/>
   </g>
   <g id="patch_12">
    <path d="M 975.343283 133.798791 
C 970.286289 132.517488 965.183535 131.42409 960.045531 130.520852 
C 954.907528 129.617613 949.737806 128.905155 944.547016 128.384943 
L 937.179705 201.897644 
C 940.553719 202.235781 943.914038 202.698879 947.25374 203.285984 
C 950.593443 203.873089 953.910233 204.583798 957.197279 205.416645 
z
" style="fill: #b71c1c; stroke: #ffffff; stroke-width: 1.5; stroke-linejoin: miter"/>
   </g>
   <g id="patch_13">
    <path d="M 944.547016 128.384943 
C 943.315472 128.26152 942.082867 128.148931 940.849343 128.047189 
C 939.615819 127.945447 938.381423 127.854556 937.1463 127.774527 
L 932.36924 201.500873 
C 933.17207 201.552892 933.974427 201.611971 934.776218 201.678103 
C 935.578008 201.744236 936.379202 201.817419 937.179705 201.897644 
z
" style="fill: #0d47a1; stroke: #ffffff; stroke-width: 1.5; stroke-linejoin: miter"/>
   </g>
   <g id="patch_14">
    <path d="M 937.1463 127.774527 
C 935.955271 127.697355 934.763608 127.630286 933.57144 127.573326 
C 932.379273 127.516367 931.186643 127.46952 929.993681 127.43279 
L 927.720038 201.278744 
C 928.495463 201.302618 929.270672 201.333069 930.045581 201.370093 
C 930.82049 201.407116 931.595071 201.450711 932.36924 201.500873 
z
" style="fill: #e65100; stroke: #ffffff; stroke-width: 1.5; stroke-linejoin: miter"/>
   </g>
   <g id="patch_15">
    <path d="M 929.993681 127.43279 
C 929.55191 127.419188 929.110097 127.406974 928.668249 127.396147 
C 928.226401 127.385321 927.78452 127.375882 927.342613 127.367831 
L 925.996843 201.236521 
C 926.284083 201.241754 926.571305 201.247889 926.858507 201.254926 
C 927.145708 201.261964 927.432886 201.269903 927.720038 201.278744 
z
" style="fill: #4a148c; stroke: #ffffff; stroke-width: 1.5; stroke-linejoin: miter"/>
   </g>
   <g id="patch_16">
    <path d="M 927.342613 127.367831 
C 926.900705 127.35978 926.458774 127.353117 926.016825 127.347842 
C 925.574875 127.342568 925.132911 127.338681 924.690937 127.336182 
L 924.273254 201.215949 
C 924.560537 201.217573 924.847814 201.2201 925.135081 201.223528 
C 925.422348 201.226957 925.709603 201.231288 925.996843 201.236521 
z
" style="fill: #004d40; stroke: #ffffff; stroke-width: 1.5; stroke-linejoin: miter"/>
   </g>
   <g id="patch_17">
    <path d="M 924.690937 127.336182 
C 924.492043 127.335058 924.293146 127.334214 924.094249 127.333652 
C 923.895352 127.33309 923.696455 127.332809 923.497557 127.332809 
L 923.497557 201.213756 
C 923.62684 201.213756 923.756124 201.213939 923.885407 201.214304 
C 924.01469 201.21467 924.143973 201.215218 924.273254 201.215949 
z
" style="fill: #bf360c; stroke: #ffffff; stroke-width: 1.5; stroke-linejoin: miter"/>
   </g>
   <g id="matplotlib.axis_3"/>
   <g id="matplotlib.axis_4"/>
   <g id="text_8">
    <!-- 1,655,958 -->
    <g transform="translate(889.716619 334.336777) scale(0.12 -0.12)">
     <defs>
      <path id="DejaVuSans-Bold-18" d="M 678 4666 
L 3669 4666 
L 3669 3781 
L 1638 3781 
L 1638 3059 
Q 1775 3097 1914 3117 
Q 2053 3138 2203 3138 
Q 3056 3138 3531 2711 
Q 4006 2284 4006 1522 
Q 4006 766 3489 337 
Q 2972 -91 2053 -91 
Q 1656 -91 1267 -14 
Q 878 63 494 219 
L 494 1166 
Q 875 947 1217 837 
Q 1559 728 1863 728 
Q 2300 728 2551 942 
Q 2803 1156 2803 1522 
Q 2803 1891 2551 2103 
Q 2300 2316 1863 2316 
Q 1603 2316 1309 2248 
Q 1016 2181 678 2041 
L 678 4666 
z
" transform="scale(0.015625)"/>
      <path id="DejaVuSans-Bold-1c" d="M 641 103 
L 641 966 
Q 928 831 1190 764 
Q 1453 697 1709 697 
Q 2247 697 2547 995 
Q 2847 1294 2900 1881 
Q 2688 1725 2447 1647 
Q 2206 1569 1925 1569 
Q 1209 1569 770 1986 
Q 331 2403 331 3084 
Q 331 3838 820 4291 
Q 1309 4744 2131 4744 
Q 3044 4744 3544 4128 
Q 4044 3513 4044 2388 
Q 4044 1231 3459 570 
Q 2875 -91 1856 -91 
Q 1528 -91 1228 -42 
Q 928 6 641 103 
z
M 2125 2350 
Q 2441 2350 2600 2554 
Q 2759 2759 2759 3169 
Q 2759 3575 2600 3781 
Q 2441 3988 2125 3988 
Q 1809 3988 1650 3781 
Q 1491 3575 1491 3169 
Q 1491 2759 1650 2554 
Q 1809 2350 2125 2350 
z
" transform="scale(0.015625)"/>
     </defs>
     <use xlink:href="#DejaVuSans-Bold-14"/>
     <use xlink:href="#DejaVuSans-Bold-f" transform="translate(69.578125 0)"/>
     <use xlink:href="#DejaVuSans-Bold-19" transform="translate(107.5625 0)"/>
     <use xlink:href="#DejaVuSans-Bold-18" transform="translate(177.140625 0)"/>
     <use xlink:href="#DejaVuSans-Bold-18" transform="translate(246.71875 0)"/>
     <use xlink:href="#DejaVuSans-Bold-f" transform="translate(316.296875 0)"/>
     <use xlink:href="#DejaVuSans-Bold-1c" transform="translate(354.28125 0)"/>
     <use xlink:href="#DejaVuSans-Bold-18" transform="translate(423.859375 0)"/>
     <use xlink:href="#DejaVuSans-Bold-1b" transform="translate(493.4375 0)"/>
    </g>
    <!-- flows -->
    <g transform="translate(905.813494 348.740059) scale(0.12 -0.12)">
     <use xlink:href="#DejaVuSans-Bold-13ac"/>
     <use xlink:href="#DejaVuSans-Bold-52" transform="translate(74.125 0)"/>
     <use xlink:href="#DejaVuSans-Bold-5a" transform="translate(142.828125 0)"/>
     <use xlink:href="#DejaVuSans-Bold-56" transform="translate(235.21875 0)"/>
    </g>
   </g>
   <g id="text_9">
    <!-- NF-UNSW-NB15 -->
    <g transform="translate(871.075369 64.560703) scale(0.12 -0.12)">
     <defs>
      <path id="DejaVuSans-Bold-38" d="M 588 4666 
L 1791 4666 
L 1791 1869 
Q 1791 1291 1980 1042 
Q 2169 794 2597 794 
Q 3028 794 3217 1042 
Q 3406 1291 3406 1869 
L 3406 4666 
L 4609 4666 
L 4609 1869 
Q 4609 878 4112 393 
Q 3616 -91 2597 -91 
Q 1581 -91 1084 393 
Q 588 878 588 1869 
L 588 4666 
z
" transform="scale(0.015625)"/>
      <path id="DejaVuSans-Bold-3a" d="M 191 4666 
L 1344 4666 
L 2150 1275 
L 2950 4666 
L 4109 4666 
L 4909 1275 
L 5716 4666 
L 6859 4666 
L 5759 0 
L 4372 0 
L 3525 3547 
L 2688 0 
L 1300 0 
L 191 4666 
z
" transform="scale(0.015625)"/>
      <path id="DejaVuSans-Bold-25" d="M 2456 2859 
Q 2741 2859 2887 2984 
Q 3034 3109 3034 3353 
Q 3034 3594 2887 3720 
Q 2741 3847 2456 3847 
L 1791 3847 
L 1791 2859 
L 2456 2859 
z
M 2497 819 
Q 2859 819 3042 972 
Q 3225 1125 3225 1434 
Q 3225 1738 3044 1889 
Q 2863 2041 2497 2041 
L 1791 2041 
L 1791 819 
L 2497 819 
z
M 3616 2497 
Q 4003 2384 4215 2081 
Q 4428 1778 4428 1338 
Q 4428 663 3972 331 
Q 3516 0 2584 0 
L 588 0 
L 588 4666 
L 2394 4666 
Q 3366 4666 3802 4372 
Q 4238 4078 4238 3431 
Q 4238 3091 4078 2852 
Q 3919 2613 3616 2497 
z
" transform="scale(0.015625)"/>
     </defs>
     <use xlink:href="#DejaVuSans-Bold-31"/>
     <use xlink:href="#DejaVuSans-Bold-29" transform="translate(83.6875 0)"/>
     <use xlink:href="#DejaVuSans-Bold-10" transform="translate(148.921875 0)"/>
     <use xlink:href="#DejaVuSans-Bold-38" transform="translate(190.421875 0)"/>
     <use xlink:href="#DejaVuSans-Bold-31" transform="translate(271.625 0)"/>
     <use xlink:href="#DejaVuSans-Bold-36" transform="translate(355.3125 0)"/>
     <use xlink:href="#DejaVuSans-Bold-3a" transform="translate(427.328125 0)"/>
     <use xlink:href="#DejaVuSans-Bold-10" transform="translate(533.140625 0)"/>
     <use xlink:href="#DejaVuSans-Bold-31" transform="translate(574.640625 0)"/>
     <use xlink:href="#DejaVuSans-Bold-25" transform="translate(658.328125 0)"/>
     <use xlink:href="#DejaVuSans-Bold-14" transform="translate(734.546875 0)"/>
     <use xlink:href="#DejaVuSans-Bold-18" transform="translate(804.125 0)"/>
    </g>
   </g>
   <g id="legend_2">
    <g id="patch_18">
     <path d="M 1192.258084 416.282754 
L 1274.990428 416.282754 
Q 1276.390428 416.282754 1276.390428 414.882754 
L 1276.390428 261.959707 
Q 1276.390428 260.559707 1274.990428 260.559707 
L 1192.258084 260.559707 
Q 1190.858084 260.559707 1190.858084 261.959707 
L 1190.858084 414.882754 
Q 1190.858084 416.282754 1192.258084 416.282754 
z
" style="fill: #ffffff; opacity: 0.8; stroke: #cccccc; stroke-linejoin: miter"/>
    </g>
    <g id="text_10">
     <!-- Classes -->
     <g transform="translate(1218.556131 269.438457) scale(0.08 -0.08)">
      <use xlink:href="#DejaVuSans-26"/>
      <use xlink:href="#DejaVuSans-4f" transform="translate(69.828125 0)"/>
      <use xlink:href="#DejaVuSans-44" transform="translate(97.609375 0)"/>
      <use xlink:href="#DejaVuSans-56" transform="translate(158.890625 0)"/>
      <use xlink:href="#DejaVuSans-56" transform="translate(210.984375 0)"/>
      <use xlink:href="#DejaVuSans-48" transform="translate(263.078125 0)"/>
      <use xlink:href="#DejaVuSans-56" transform="translate(324.609375 0)"/>
     </g>
    </g>
    <g id="patch_19">
     <path d="M 1193.658084 285.921426 
L 1207.658084 285.921426 
L 1207.658084 281.021426 
L 1193.658084 281.021426 
z
" style="fill: #2e7d32; stroke: #ffffff; stroke-width: 1.5; stroke-linejoin: miter"/>
    </g>
    <g id="text_11">
     <!-- Benign -->
     <g transform="translate(1213.258084 280.879922) scale(0.07 -0.07)">
      <use xlink:href="#DejaVuSans-25"/>
      <use xlink:href="#DejaVuSans-48" transform="translate(68.609375 0)"/>
      <use xlink:href="#DejaVuSans-51" transform="translate(130.140625 0)"/>
      <use xlink:href="#DejaVuSans-4c" transform="translate(193.515625 0)"/>
      <use xlink:href="#DejaVuSans-4a" transform="translate(221.296875 0)"/>
      <use xlink:href="#DejaVuSans-51" transform="translate(284.78125 0)"/>
     </g>
     <!-- (1,590,557) -->
     <g transform="translate(1213.258084 289.281289) scale(0.07 -0.07)">
      <use xlink:href="#DejaVuSans-b"/>
      <use xlink:href="#DejaVuSans-14" transform="translate(39.015625 0)"/>
      <use xlink:href="#DejaVuSans-f" transform="translate(102.640625 0)"/>
      <use xlink:href="#DejaVuSans-18" transform="translate(134.421875 0)"/>
      <use xlink:href="#DejaVuSans-1c" transform="translate(198.046875 0)"/>
      <use xlink:href="#DejaVuSans-13" transform="translate(261.671875 0)"/>
      <use xlink:href="#DejaVuSans-f" transform="translate(325.296875 0)"/>
      <use xlink:href="#DejaVuSans-18" transform="translate(357.078125 0)"/>
      <use xlink:href="#DejaVuSans-18" transform="translate(420.703125 0)"/>
      <use xlink:href="#DejaVuSans-1a" transform="translate(484.328125 0)"/>
      <use xlink:href="#DejaVuSans-c" transform="translate(547.953125 0)"/>
     </g>
    </g>
    <g id="patch_20">
     <path d="M 1193.658084 306.224707 
L 1207.658084 306.224707 
L 1207.658084 301.324707 
L 1193.658084 301.324707 
z
" style="fill: #b71c1c; stroke: #ffffff; stroke-width: 1.5; stroke-linejoin: miter"/>
    </g>
    <g id="text_12">
     <!-- Exploits -->
     <g transform="translate(1213.258084 301.183203) scale(0.07 -0.07)">
      <defs>
       <path id="DejaVuSans-28" d="M 628 4666 
L 3578 4666 
L 3578 4134 
L 1259 4134 
L 1259 2753 
L 3481 2753 
L 3481 2222 
L 1259 2222 
L 1259 531 
L 3634 531 
L 3634 0 
L 628 0 
L 628 4666 
z
" transform="scale(0.015625)"/>
       <path id="DejaVuSans-5b" d="M 3513 3500 
L 2247 1797 
L 3578 0 
L 2900 0 
L 1881 1375 
L 863 0 
L 184 0 
L 1544 1831 
L 300 3500 
L 978 3500 
L 1906 2253 
L 2834 3500 
L 3513 3500 
z
" transform="scale(0.015625)"/>
       <path id="DejaVuSans-53" d="M 1159 525 
L 1159 -1331 
L 581 -1331 
L 581 3500 
L 1159 3500 
L 1159 2969 
Q 1341 3281 1617 3432 
Q 1894 3584 2278 3584 
Q 2916 3584 3314 3078 
Q 3713 2572 3713 1747 
Q 3713 922 3314 415 
Q 2916 -91 2278 -91 
Q 1894 -91 1617 61 
Q 1341 213 1159 525 
z
M 3116 1747 
Q 3116 2381 2855 2742 
Q 2594 3103 2138 3103 
Q 1681 3103 1420 2742 
Q 1159 2381 1159 1747 
Q 1159 1113 1420 752 
Q 1681 391 2138 391 
Q 2594 391 2855 752 
Q 3116 1113 3116 1747 
z
" transform="scale(0.015625)"/>
      </defs>
      <use xlink:href="#DejaVuSans-28"/>
      <use xlink:href="#DejaVuSans-5b" transform="translate(63.1875 0)"/>
      <use xlink:href="#DejaVuSans-53" transform="translate(122.375 0)"/>
      <use xlink:href="#DejaVuSans-4f" transform="translate(185.859375 0)"/>
      <use xlink:href="#DejaVuSans-52" transform="translate(213.640625 0)"/>
      <use xlink:href="#DejaVuSans-4c" transform="translate(274.828125 0)"/>
      <use xlink:href="#DejaVuSans-57" transform="translate(302.609375 0)"/>
      <use xlink:href="#DejaVuSans-56" transform="translate(341.8125 0)"/>
     </g>
     <!-- (39,076) -->
     <g transform="translate(1213.258084 309.58457) scale(0.07 -0.07)">
      <defs>
       <path id="DejaVuSans-16" d="M 2597 2516 
Q 3050 2419 3304 2112 
Q 3559 1806 3559 1356 
Q 3559 666 3084 287 
Q 2609 -91 1734 -91 
Q 1441 -91 1130 -33 
Q 819 25 488 141 
L 488 750 
Q 750 597 1062 519 
Q 1375 441 1716 441 
Q 2309 441 2620 675 
Q 2931 909 2931 1356 
Q 2931 1769 2642 2001 
Q 2353 2234 1838 2234 
L 1294 2234 
L 1294 2753 
L 1863 2753 
Q 2328 2753 2575 2939 
Q 2822 3125 2822 3475 
Q 2822 3834 2567 4026 
Q 2313 4219 1838 4219 
Q 1578 4219 1281 4162 
Q 984 4106 628 3988 
L 628 4550 
Q 988 4650 1302 4700 
Q 1616 4750 1894 4750 
Q 2613 4750 3031 4423 
Q 3450 4097 3450 3541 
Q 3450 3153 3228 2886 
Q 3006 2619 2597 2516 
z
" transform="scale(0.015625)"/>
      </defs>
      <use xlink:href="#DejaVuSans-b"/>
      <use xlink:href="#DejaVuSans-16" transform="translate(39.015625 0)"/>
      <use xlink:href="#DejaVuSans-1c" transform="translate(102.640625 0)"/>
      <use xlink:href="#DejaVuSans-f" transform="translate(166.265625 0)"/>
      <use xlink:href="#DejaVuSans-13" transform="translate(198.046875 0)"/>
      <use xlink:href="#DejaVuSans-1a" transform="translate(261.671875 0)"/>
      <use xlink:href="#DejaVuSans-19" transform="translate(325.296875 0)"/>
      <use xlink:href="#DejaVuSans-c" transform="translate(388.921875 0)"/>
     </g>
    </g>
    <g id="patch_21">
     <path d="M 1193.658084 326.527988 
L 1207.658084 326.527988 
L 1207.658084 321.627988 
L 1193.658084 321.627988 
z
" style="fill: #0d47a1; stroke: #ffffff; stroke-width: 1.5; stroke-linejoin: miter"/>
    </g>
    <g id="text_13">
     <!-- Generic -->
     <g transform="translate(1213.258084 321.486484) scale(0.07 -0.07)">
      <defs>
       <path id="DejaVuSans-2a" d="M 3809 666 
L 3809 1919 
L 2778 1919 
L 2778 2438 
L 4434 2438 
L 4434 434 
Q 4069 175 3628 42 
Q 3188 -91 2688 -91 
Q 1594 -91 976 548 
Q 359 1188 359 2328 
Q 359 3472 976 4111 
Q 1594 4750 2688 4750 
Q 3144 4750 3555 4637 
Q 3966 4525 4313 4306 
L 4313 3634 
Q 3963 3931 3569 4081 
Q 3175 4231 2741 4231 
Q 1884 4231 1454 3753 
Q 1025 3275 1025 2328 
Q 1025 1384 1454 906 
Q 1884 428 2741 428 
Q 3075 428 3337 486 
Q 3600 544 3809 666 
z
" transform="scale(0.015625)"/>
      </defs>
      <use xlink:href="#DejaVuSans-2a"/>
      <use xlink:href="#DejaVuSans-48" transform="translate(77.484375 0)"/>
      <use xlink:href="#DejaVuSans-51" transform="translate(139.015625 0)"/>
      <use xlink:href="#DejaVuSans-48" transform="translate(202.390625 0)"/>
      <use xlink:href="#DejaVuSans-55" transform="translate(263.921875 0)"/>
      <use xlink:href="#DejaVuSans-4c" transform="translate(305.03125 0)"/>
      <use xlink:href="#DejaVuSans-46" transform="translate(332.8125 0)"/>
     </g>
     <!-- (9,272) -->
     <g transform="translate(1213.258084 329.887852) scale(0.07 -0.07)">
      <use xlink:href="#DejaVuSans-b"/>
      <use xlink:href="#DejaVuSans-1c" transform="translate(39.015625 0)"/>
      <use xlink:href="#DejaVuSans-f" transform="translate(102.640625 0)"/>
      <use xlink:href="#DejaVuSans-15" transform="translate(134.421875 0)"/>
      <use xlink:href="#DejaVuSans-1a" transform="translate(198.046875 0)"/>
      <use xlink:href="#DejaVuSans-15" transform="translate(261.671875 0)"/>
      <use xlink:href="#DejaVuSans-c" transform="translate(325.296875 0)"/>
     </g>
    </g>
    <g id="patch_22">
     <path d="M 1193.658084 346.83127 
L 1207.658084 346.83127 
L 1207.658084 341.93127 
L 1193.658084 341.93127 
z
" style="fill: #e65100; stroke: #ffffff; stroke-width: 1.5; stroke-linejoin: miter"/>
    </g>
    <g id="text_14">
     <!-- Reconnaissance -->
     <g transform="translate(1213.258084 341.789766) scale(0.07 -0.07)">
      <defs>
       <path id="DejaVuSans-35" d="M 2841 2188 
Q 3044 2119 3236 1894 
Q 3428 1669 3622 1275 
L 4263 0 
L 3584 0 
L 2988 1197 
Q 2756 1666 2539 1819 
Q 2322 1972 1947 1972 
L 1259 1972 
L 1259 0 
L 628 0 
L 628 4666 
L 2053 4666 
Q 2853 4666 3247 4331 
Q 3641 3997 3641 3322 
Q 3641 2881 3436 2590 
Q 3231 2300 2841 2188 
z
M 1259 4147 
L 1259 2491 
L 2053 2491 
Q 2509 2491 2742 2702 
Q 2975 2913 2975 3322 
Q 2975 3731 2742 3939 
Q 2509 4147 2053 4147 
L 1259 4147 
z
" transform="scale(0.015625)"/>
      </defs>
      <use xlink:href="#DejaVuSans-35"/>
      <use xlink:href="#DejaVuSans-48" transform="translate(65 0)"/>
      <use xlink:href="#DejaVuSans-46" transform="translate(126.53125 0)"/>
      <use xlink:href="#DejaVuSans-52" transform="translate(181.515625 0)"/>
      <use xlink:href="#DejaVuSans-51" transform="translate(242.703125 0)"/>
      <use xlink:href="#DejaVuSans-51" transform="translate(306.078125 0)"/>
      <use xlink:href="#DejaVuSans-44" transform="translate(369.453125 0)"/>
      <use xlink:href="#DejaVuSans-4c" transform="translate(430.734375 0)"/>
      <use xlink:href="#DejaVuSans-56" transform="translate(458.515625 0)"/>
      <use xlink:href="#DejaVuSans-56" transform="translate(510.609375 0)"/>
      <use xlink:href="#DejaVuSans-44" transform="translate(562.703125 0)"/>
      <use xlink:href="#DejaVuSans-51" transform="translate(623.984375 0)"/>
      <use xlink:href="#DejaVuSans-46" transform="translate(687.359375 0)"/>
      <use xlink:href="#DejaVuSans-48" transform="translate(742.34375 0)"/>
     </g>
     <!-- (8,941) -->
     <g transform="translate(1213.258084 350.191133) scale(0.07 -0.07)">
      <use xlink:href="#DejaVuSans-b"/>
      <use xlink:href="#DejaVuSans-1b" transform="translate(39.015625 0)"/>
      <use xlink:href="#DejaVuSans-f" transform="translate(102.640625 0)"/>
      <use xlink:href="#DejaVuSans-1c" transform="translate(134.421875 0)"/>
      <use xlink:href="#DejaVuSans-17" transform="translate(198.046875 0)"/>
      <use xlink:href="#DejaVuSans-14" transform="translate(261.671875 0)"/>
      <use xlink:href="#DejaVuSans-c" transform="translate(325.296875 0)"/>
     </g>
    </g>
    <g id="patch_23">
     <path d="M 1193.658084 367.134277 
L 1207.658084 367.134277 
L 1207.658084 362.234277 
L 1193.658084 362.234277 
z
" style="fill: #4a148c; stroke: #ffffff; stroke-width: 1.5; stroke-linejoin: miter"/>
    </g>
    <g id="text_15">
     <!-- DoS/DDoS -->
     <g transform="translate(1213.258084 362.0925) scale(0.07 -0.07)">
      <use xlink:href="#DejaVuSans-27"/>
      <use xlink:href="#DejaVuSans-52" transform="translate(77 0)"/>
      <use xlink:href="#DejaVuSans-36" transform="translate(138.1875 0)"/>
      <use xlink:href="#DejaVuSans-12" transform="translate(201.671875 0)"/>
      <use xlink:href="#DejaVuSans-27" transform="translate(235.359375 0)"/>
      <use xlink:href="#DejaVuSans-27" transform="translate(312.359375 0)"/>
      <use xlink:href="#DejaVuSans-52" transform="translate(389.359375 0)"/>
      <use xlink:href="#DejaVuSans-36" transform="translate(450.546875 0)"/>
     </g>
     <!-- (3,311) -->
     <g transform="translate(1213.258084 370.493867) scale(0.07 -0.07)">
      <use xlink:href="#DejaVuSans-b"/>
      <use xlink:href="#DejaVuSans-16" transform="translate(39.015625 0)"/>
      <use xlink:href="#DejaVuSans-f" transform="translate(102.640625 0)"/>
      <use xlink:href="#DejaVuSans-16" transform="translate(134.421875 0)"/>
      <use xlink:href="#DejaVuSans-14" transform="translate(198.046875 0)"/>
      <use xlink:href="#DejaVuSans-14" transform="translate(261.671875 0)"/>
      <use xlink:href="#DejaVuSans-c" transform="translate(325.296875 0)"/>
     </g>
    </g>
    <g id="patch_24">
     <path d="M 1193.658084 387.437285 
L 1207.658084 387.437285 
L 1207.658084 382.537285 
L 1193.658084 382.537285 
z
" style="fill: #004d40; stroke: #ffffff; stroke-width: 1.5; stroke-linejoin: miter"/>
    </g>
    <g id="text_16">
     <!-- Backdoor -->
     <g transform="translate(1213.258084 382.395781) scale(0.07 -0.07)">
      <defs>
       <path id="DejaVuSans-47" d="M 2906 2969 
L 2906 4863 
L 3481 4863 
L 3481 0 
L 2906 0 
L 2906 525 
Q 2725 213 2448 61 
Q 2172 -91 1784 -91 
Q 1150 -91 751 415 
Q 353 922 353 1747 
Q 353 2572 751 3078 
Q 1150 3584 1784 3584 
Q 2172 3584 2448 3432 
Q 2725 3281 2906 2969 
z
M 947 1747 
Q 947 1113 1208 752 
Q 1469 391 1925 391 
Q 2381 391 2643 752 
Q 2906 1113 2906 1747 
Q 2906 2381 2643 2742 
Q 2381 3103 1925 3103 
Q 1469 3103 1208 2742 
Q 947 2381 947 1747 
z
" transform="scale(0.015625)"/>
      </defs>
      <use xlink:href="#DejaVuSans-25"/>
      <use xlink:href="#DejaVuSans-44" transform="translate(68.609375 0)"/>
      <use xlink:href="#DejaVuSans-46" transform="translate(129.890625 0)"/>
      <use xlink:href="#DejaVuSans-4e" transform="translate(184.875 0)"/>
      <use xlink:href="#DejaVuSans-47" transform="translate(242.78125 0)"/>
      <use xlink:href="#DejaVuSans-52" transform="translate(306.265625 0)"/>
      <use xlink:href="#DejaVuSans-52" transform="translate(367.453125 0)"/>
      <use xlink:href="#DejaVuSans-55" transform="translate(428.640625 0)"/>
     </g>
     <!-- (3,311) -->
     <g transform="translate(1213.258084 390.797148) scale(0.07 -0.07)">
      <use xlink:href="#DejaVuSans-b"/>
      <use xlink:href="#DejaVuSans-16" transform="translate(39.015625 0)"/>
      <use xlink:href="#DejaVuSans-f" transform="translate(102.640625 0)"/>
      <use xlink:href="#DejaVuSans-16" transform="translate(134.421875 0)"/>
      <use xlink:href="#DejaVuSans-14" transform="translate(198.046875 0)"/>
      <use xlink:href="#DejaVuSans-14" transform="translate(261.671875 0)"/>
      <use xlink:href="#DejaVuSans-c" transform="translate(325.296875 0)"/>
     </g>
    </g>
    <g id="patch_25">
     <path d="M 1193.658084 407.740566 
L 1207.658084 407.740566 
L 1207.658084 402.840566 
L 1193.658084 402.840566 
z
" style="fill: #bf360c; stroke: #ffffff; stroke-width: 1.5; stroke-linejoin: miter"/>
    </g>
    <g id="text_17">
     <!-- Shellcode/Worms -->
     <g transform="translate(1213.258084 402.699062) scale(0.07 -0.07)">
      <defs>
       <path id="DejaVuSans-4b" d="M 3513 2113 
L 3513 0 
L 2938 0 
L 2938 2094 
Q 2938 2591 2744 2837 
Q 2550 3084 2163 3084 
Q 1697 3084 1428 2787 
Q 1159 2491 1159 1978 
L 1159 0 
L 581 0 
L 581 4863 
L 1159 4863 
L 1159 2956 
Q 1366 3272 1645 3428 
Q 1925 3584 2291 3584 
Q 2894 3584 3203 3211 
Q 3513 2838 3513 2113 
z
" transform="scale(0.015625)"/>
       <path id="DejaVuSans-50" d="M 3328 2828 
Q 3544 3216 3844 3400 
Q 4144 3584 4550 3584 
Q 5097 3584 5394 3201 
Q 5691 2819 5691 2113 
L 5691 0 
L 5113 0 
L 5113 2094 
Q 5113 2597 4934 2840 
Q 4756 3084 4391 3084 
Q 3944 3084 3684 2787 
Q 3425 2491 3425 1978 
L 3425 0 
L 2847 0 
L 2847 2094 
Q 2847 2600 2669 2842 
Q 2491 3084 2119 3084 
Q 1678 3084 1418 2786 
Q 1159 2488 1159 1978 
L 1159 0 
L 581 0 
L 581 3500 
L 1159 3500 
L 1159 2956 
Q 1356 3278 1631 3431 
Q 1906 3584 2284 3584 
Q 2666 3584 2933 3390 
Q 3200 3197 3328 2828 
z
" transform="scale(0.015625)"/>
      </defs>
      <use xlink:href="#DejaVuSans-36"/>
      <use xlink:href="#DejaVuSans-4b" transform="translate(63.484375 0)"/>
      <use xlink:href="#DejaVuSans-48" transform="translate(126.859375 0)"/>
      <use xlink:href="#DejaVuSans-4f" transform="translate(188.390625 0)"/>
      <use xlink:href="#DejaVuSans-4f" transform="translate(216.171875 0)"/>
      <use xlink:href="#DejaVuSans-46" transform="translate(243.953125 0)"/>
      <use xlink:href="#DejaVuSans-52" transform="translate(298.9375 0)"/>
      <use xlink:href="#DejaVuSans-47" transform="translate(360.125 0)"/>
      <use xlink:href="#DejaVuSans-48" transform="translate(423.609375 0)"/>
      <use xlink:href="#DejaVuSans-12" transform="translate(485.140625 0)"/>
      <use xlink:href="#DejaVuSans-3a" transform="translate(518.828125 0)"/>
      <use xlink:href="#DejaVuSans-52" transform="translate(611.84375 0)"/>
      <use xlink:href="#DejaVuSans-55" transform="translate(673.03125 0)"/>
      <use xlink:href="#DejaVuSans-50" transform="translate(712.390625 0)"/>
      <use xlink:href="#DejaVuSans-56" transform="translate(809.796875 0)"/>
     </g>
     <!-- (1,490) -->
     <g transform="translate(1213.258084 411.10043) scale(0.07 -0.07)">
      <use xlink:href="#DejaVuSans-b"/>
      <use xlink:href="#DejaVuSans-14" transform="translate(39.015625 0)"/>
      <use xlink:href="#DejaVuSans-f" transform="translate(102.640625 0)"/>
      <use xlink:href="#DejaVuSans-17" transform="translate(134.421875 0)"/>
      <use xlink:href="#DejaVuSans-1c" transform="translate(198.046875 0)"/>
      <use xlink:href="#DejaVuSans-13" transform="translate(261.671875 0)"/>
      <use xlink:href="#DejaVuSans-c" transform="translate(325.296875 0)"/>
     </g>
    </g>
   </g>
  </g>
  <g id="axes_3">
   <g id="text_18">
    <g id="patch_26">
     <path d="M 233.922202 919.107324 
L 367.933139 919.107324 
Q 372.933139 919.107324 372.933139 914.107324 
L 372.933139 878.011621 
Q 372.933139 873.011621 367.933139 873.011621 
L 233.922202 873.011621 
Q 228.922202 873.011621 228.922202 878.011621 
L 228.922202 914.107324 
Q 228.922202 919.107324 233.922202 919.107324 
z
" style="fill: #f5f5f5; stroke: #bdbdbd; stroke-linejoin: miter"/>
    </g>
    <!-- Blind test (in-schema) -->
    <g transform="translate(245.799545 886.611035) scale(0.1 -0.1)">
     <defs>
      <path id="DejaVuSans-10" d="M 313 2009 
L 1997 2009 
L 1997 1497 
L 313 1497 
L 313 2009 
z
" transform="scale(0.015625)"/>
     </defs>
     <use xlink:href="#DejaVuSans-25"/>
     <use xlink:href="#DejaVuSans-4f" transform="translate(68.609375 0)"/>
     <use xlink:href="#DejaVuSans-4c" transform="translate(96.390625 0)"/>
     <use xlink:href="#DejaVuSans-51" transform="translate(124.171875 0)"/>
     <use xlink:href="#DejaVuSans-47" transform="translate(187.546875 0)"/>
     <use xlink:href="#DejaVuSans-3" transform="translate(251.03125 0)"/>
     <use xlink:href="#DejaVuSans-57" transform="translate(282.8125 0)"/>
     <use xlink:href="#DejaVuSans-48" transform="translate(322.015625 0)"/>
     <use xlink:href="#DejaVuSans-56" transform="translate(383.546875 0)"/>
     <use xlink:href="#DejaVuSans-57" transform="translate(435.640625 0)"/>
     <use xlink:href="#DejaVuSans-3" transform="translate(474.84375 0)"/>
     <use xlink:href="#DejaVuSans-b" transform="translate(506.625 0)"/>
     <use xlink:href="#DejaVuSans-4c" transform="translate(545.640625 0)"/>
     <use xlink:href="#DejaVuSans-51" transform="translate(573.421875 0)"/>
     <use xlink:href="#DejaVuSans-10" transform="translate(636.796875 0)"/>
     <use xlink:href="#DejaVuSans-56" transform="translate(672.875 0)"/>
     <use xlink:href="#DejaVuSans-46" transform="translate(724.96875 0)"/>
     <use xlink:href="#DejaVuSans-4b" transform="translate(779.953125 0)"/>
     <use xlink:href="#DejaVuSans-48" transform="translate(843.328125 0)"/>
     <use xlink:href="#DejaVuSans-50" transform="translate(904.859375 0)"/>
     <use xlink:href="#DejaVuSans-44" transform="translate(1002.265625 0)"/>
     <use xlink:href="#DejaVuSans-c" transform="translate(1063.546875 0)"/>
    </g>
    <!-- 27.5M flows | 144.6h span -->
    <g transform="translate(235.043295 898.65752) scale(0.1 -0.1)">
     <defs>
      <path id="DejaVuSans-11" d="M 684 794 
L 1344 794 
L 1344 0 
L 684 0 
L 684 794 
z
" transform="scale(0.015625)"/>
      <path id="DejaVuSans-30" d="M 628 4666 
L 1569 4666 
L 2759 1491 
L 3956 4666 
L 4897 4666 
L 4897 0 
L 4281 0 
L 4281 4097 
L 3078 897 
L 2444 897 
L 1241 4097 
L 1241 0 
L 628 0 
L 628 4666 
z
" transform="scale(0.015625)"/>
      <path id="DejaVuSans-13b0" d="M 1831 4863 
L 3431 4863 
L 3431 0 
L 2853 0 
L 2853 4384 
L 1825 4384 
Q 1516 4384 1395 4259 
Q 1275 4134 1275 3809 
L 1275 3500 
L 2222 3500 
L 2222 3053 
L 1275 3053 
L 1275 0 
L 697 0 
L 697 3053 
L 147 3053 
L 147 3500 
L 697 3500 
L 697 3744 
Q 697 4328 969 4595 
Q 1241 4863 1831 4863 
z
" transform="scale(0.015625)"/>
      <path id="DejaVuSans-5a" d="M 269 3500 
L 844 3500 
L 1563 769 
L 2278 3500 
L 2956 3500 
L 3675 769 
L 4391 3500 
L 4966 3500 
L 4050 0 
L 3372 0 
L 2619 2869 
L 1863 0 
L 1184 0 
L 269 3500 
z
" transform="scale(0.015625)"/>
      <path id="DejaVuSans-5f" d="M 1344 4891 
L 1344 -1509 
L 813 -1509 
L 813 4891 
L 1344 4891 
z
" transform="scale(0.015625)"/>
     </defs>
     <use xlink:href="#DejaVuSans-15"/>
     <use xlink:href="#DejaVuSans-1a" transform="translate(63.625 0)"/>
     <use xlink:href="#DejaVuSans-11" transform="translate(127.25 0)"/>
     <use xlink:href="#DejaVuSans-18" transform="translate(159.03125 0)"/>
     <use xlink:href="#DejaVuSans-30" transform="translate(222.65625 0)"/>
     <use xlink:href="#DejaVuSans-3" transform="translate(308.9375 0)"/>
     <use xlink:href="#DejaVuSans-13b0" transform="translate(340.71875 0)"/>
     <use xlink:href="#DejaVuSans-52" transform="translate(403.703125 0)"/>
     <use xlink:href="#DejaVuSans-5a" transform="translate(464.890625 0)"/>
     <use xlink:href="#DejaVuSans-56" transform="translate(546.671875 0)"/>
     <use xlink:href="#DejaVuSans-3" transform="translate(598.765625 0)"/>
     <use xlink:href="#DejaVuSans-5f" transform="translate(630.546875 0)"/>
     <use xlink:href="#DejaVuSans-3" transform="translate(664.234375 0)"/>
     <use xlink:href="#DejaVuSans-14" transform="translate(696.015625 0)"/>
     <use xlink:href="#DejaVuSans-17" transform="translate(759.640625 0)"/>
     <use xlink:href="#DejaVuSans-17" transform="translate(823.265625 0)"/>
     <use xlink:href="#DejaVuSans-11" transform="translate(886.890625 0)"/>
     <use xlink:href="#DejaVuSans-19" transform="translate(918.671875 0)"/>
     <use xlink:href="#DejaVuSans-4b" transform="translate(982.296875 0)"/>
     <use xlink:href="#DejaVuSans-3" transform="translate(1045.671875 0)"/>
     <use xlink:href="#DejaVuSans-56" transform="translate(1077.453125 0)"/>
     <use xlink:href="#DejaVuSans-53" transform="translate(1129.546875 0)"/>
     <use xlink:href="#DejaVuSans-44" transform="translate(1193.03125 0)"/>
     <use xlink:href="#DejaVuSans-51" transform="translate(1254.3125 0)"/>
    </g>
    <!-- Benign: 61% | Attack: 39% -->
    <g transform="translate(233.922202 910.704004) scale(0.1 -0.1)">
     <defs>
      <path id="DejaVuSans-1d" d="M 750 794 
L 1409 794 
L 1409 0 
L 750 0 
L 750 794 
z
M 750 3309 
L 1409 3309 
L 1409 2516 
L 750 2516 
L 750 3309 
z
" transform="scale(0.015625)"/>
      <path id="DejaVuSans-8" d="M 4653 2053 
Q 4381 2053 4226 1822 
Q 4072 1591 4072 1178 
Q 4072 772 4226 539 
Q 4381 306 4653 306 
Q 4919 306 5073 539 
Q 5228 772 5228 1178 
Q 5228 1588 5073 1820 
Q 4919 2053 4653 2053 
z
M 4653 2450 
Q 5147 2450 5437 2106 
Q 5728 1763 5728 1178 
Q 5728 594 5436 251 
Q 5144 -91 4653 -91 
Q 4153 -91 3862 251 
Q 3572 594 3572 1178 
Q 3572 1766 3864 2108 
Q 4156 2450 4653 2450 
z
M 1428 4353 
Q 1159 4353 1004 4120 
Q 850 3888 850 3481 
Q 850 3069 1003 2837 
Q 1156 2606 1428 2606 
Q 1700 2606 1854 2837 
Q 2009 3069 2009 3481 
Q 2009 3884 1853 4118 
Q 1697 4353 1428 4353 
z
M 4250 4750 
L 4750 4750 
L 1831 -91 
L 1331 -91 
L 4250 4750 
z
M 1428 4750 
Q 1922 4750 2215 4408 
Q 2509 4066 2509 3481 
Q 2509 2891 2217 2550 
Q 1925 2209 1428 2209 
Q 931 2209 642 2551 
Q 353 2894 353 3481 
Q 353 4063 643 4406 
Q 934 4750 1428 4750 
z
" transform="scale(0.015625)"/>
     </defs>
     <use xlink:href="#DejaVuSans-25"/>
     <use xlink:href="#DejaVuSans-48" transform="translate(68.609375 0)"/>
     <use xlink:href="#DejaVuSans-51" transform="translate(130.140625 0)"/>
     <use xlink:href="#DejaVuSans-4c" transform="translate(193.515625 0)"/>
     <use xlink:href="#DejaVuSans-4a" transform="translate(221.296875 0)"/>
     <use xlink:href="#DejaVuSans-51" transform="translate(284.78125 0)"/>
     <use xlink:href="#DejaVuSans-1d" transform="translate(348.15625 0)"/>
     <use xlink:href="#DejaVuSans-3" transform="translate(381.84375 0)"/>
     <use xlink:href="#DejaVuSans-19" transform="translate(413.625 0)"/>
     <use xlink:href="#DejaVuSans-14" transform="translate(477.25 0)"/>
     <use xlink:href="#DejaVuSans-8" transform="translate(540.875 0)"/>
     <use xlink:href="#DejaVuSans-3" transform="translate(635.890625 0)"/>
     <use xlink:href="#DejaVuSans-5f" transform="translate(667.671875 0)"/>
     <use xlink:href="#DejaVuSans-3" transform="translate(701.359375 0)"/>
     <use xlink:href="#DejaVuSans-24" transform="translate(733.140625 0)"/>
     <use xlink:href="#DejaVuSans-57" transform="translate(799.796875 0)"/>
     <use xlink:href="#DejaVuSans-57" transform="translate(839 0)"/>
     <use xlink:href="#DejaVuSans-44" transform="translate(878.203125 0)"/>
     <use xlink:href="#DejaVuSans-46" transform="translate(939.484375 0)"/>
     <use xlink:href="#DejaVuSans-4e" transform="translate(994.46875 0)"/>
     <use xlink:href="#DejaVuSans-1d" transform="translate(1052.375 0)"/>
     <use xlink:href="#DejaVuSans-3" transform="translate(1086.0625 0)"/>
     <use xlink:href="#DejaVuSans-16" transform="translate(1117.84375 0)"/>
     <use xlink:href="#DejaVuSans-1c" transform="translate(1181.46875 0)"/>
     <use xlink:href="#DejaVuSans-8" transform="translate(1245.09375 0)"/>
    </g>
   </g>
   <g id="text_19">
    <!-- NF-ToN-IoT -->
    <g transform="translate(265.007358 622.198945) scale(0.12 -0.12)">
     <defs>
      <path id="DejaVuSans-Bold-37" d="M 31 4666 
L 4331 4666 
L 4331 3756 
L 2784 3756 
L 2784 0 
L 1581 0 
L 1581 3756 
L 31 3756 
L 31 4666 
z
" transform="scale(0.015625)"/>
     </defs>
     <use xlink:href="#DejaVuSans-Bold-31"/>
     <use xlink:href="#DejaVuSans-Bold-29" transform="translate(83.6875 0)"/>
     <use xlink:href="#DejaVuSans-Bold-10" transform="translate(148.921875 0)"/>
     <use xlink:href="#DejaVuSans-Bold-37" transform="translate(175.71875 0)"/>
     <use xlink:href="#DejaVuSans-Bold-52" transform="translate(230.65625 0)"/>
     <use xlink:href="#DejaVuSans-Bold-31" transform="translate(299.359375 0)"/>
     <use xlink:href="#DejaVuSans-Bold-10" transform="translate(383.046875 0)"/>
     <use xlink:href="#DejaVuSans-Bold-2c" transform="translate(424.546875 0)"/>
     <use xlink:href="#DejaVuSans-Bold-52" transform="translate(461.75 0)"/>
     <use xlink:href="#DejaVuSans-Bold-37" transform="translate(530.453125 0)"/>
    </g>
   </g>
  </g>
  <g id="axes_4">
   <g id="text_20">
    <g id="patch_27">
     <path d="M 850.132713 919.107324 
L 996.862401 919.107324 
Q 1001.862401 919.107324 1001.862401 914.107324 
L 1001.862401 878.011621 
Q 1001.862401 873.011621 996.862401 873.011621 
L 850.132713 873.011621 
Q 845.132713 873.011621 845.132713 878.011621 
L 845.132713 914.107324 
Q 845.132713 919.107324 850.132713 919.107324 
z
" style="fill: #f5f5f5; stroke: #bdbdbd; stroke-linejoin: miter"/>
    </g>
    <!-- Blind test (in-schema) -->
    <g transform="translate(868.369432 886.611035) scale(0.1 -0.1)">
     <use xlink:href="#DejaVuSans-25"/>
     <use xlink:href="#DejaVuSans-4f" transform="translate(68.609375 0)"/>
     <use xlink:href="#DejaVuSans-4c" transform="translate(96.390625 0)"/>
     <use xlink:href="#DejaVuSans-51" transform="translate(124.171875 0)"/>
     <use xlink:href="#DejaVuSans-47" transform="translate(187.546875 0)"/>
     <use xlink:href="#DejaVuSans-3" transform="translate(251.03125 0)"/>
     <use xlink:href="#DejaVuSans-57" transform="translate(282.8125 0)"/>
     <use xlink:href="#DejaVuSans-48" transform="translate(322.015625 0)"/>
     <use xlink:href="#DejaVuSans-56" transform="translate(383.546875 0)"/>
     <use xlink:href="#DejaVuSans-57" transform="translate(435.640625 0)"/>
     <use xlink:href="#DejaVuSans-3" transform="translate(474.84375 0)"/>
     <use xlink:href="#DejaVuSans-b" transform="translate(506.625 0)"/>
     <use xlink:href="#DejaVuSans-4c" transform="translate(545.640625 0)"/>
     <use xlink:href="#DejaVuSans-51" transform="translate(573.421875 0)"/>
     <use xlink:href="#DejaVuSans-10" transform="translate(636.796875 0)"/>
     <use xlink:href="#DejaVuSans-56" transform="translate(672.875 0)"/>
     <use xlink:href="#DejaVuSans-46" transform="translate(724.96875 0)"/>
     <use xlink:href="#DejaVuSans-4b" transform="translate(779.953125 0)"/>
     <use xlink:href="#DejaVuSans-48" transform="translate(843.328125 0)"/>
     <use xlink:href="#DejaVuSans-50" transform="translate(904.859375 0)"/>
     <use xlink:href="#DejaVuSans-44" transform="translate(1002.265625 0)"/>
     <use xlink:href="#DejaVuSans-c" transform="translate(1063.546875 0)"/>
    </g>
    <!-- 16.9M flows | 843.8h span -->
    <g transform="translate(857.613182 898.65752) scale(0.1 -0.1)">
     <use xlink:href="#DejaVuSans-14"/>
     <use xlink:href="#DejaVuSans-19" transform="translate(63.625 0)"/>
     <use xlink:href="#DejaVuSans-11" transform="translate(127.25 0)"/>
     <use xlink:href="#DejaVuSans-1c" transform="translate(159.03125 0)"/>
     <use xlink:href="#DejaVuSans-30" transform="translate(222.65625 0)"/>
     <use xlink:href="#DejaVuSans-3" transform="translate(308.9375 0)"/>
     <use xlink:href="#DejaVuSans-13b0" transform="translate(340.71875 0)"/>
     <use xlink:href="#DejaVuSans-52" transform="translate(403.703125 0)"/>
     <use xlink:href="#DejaVuSans-5a" transform="translate(464.890625 0)"/>
     <use xlink:href="#DejaVuSans-56" transform="translate(546.671875 0)"/>
     <use xlink:href="#DejaVuSans-3" transform="translate(598.765625 0)"/>
     <use xlink:href="#DejaVuSans-5f" transform="translate(630.546875 0)"/>
     <use xlink:href="#DejaVuSans-3" transform="translate(664.234375 0)"/>
     <use xlink:href="#DejaVuSans-1b" transform="translate(696.015625 0)"/>
     <use xlink:href="#DejaVuSans-17" transform="translate(759.640625 0)"/>
     <use xlink:href="#DejaVuSans-16" transform="translate(823.265625 0)"/>
     <use xlink:href="#DejaVuSans-11" transform="translate(886.890625 0)"/>
     <use xlink:href="#DejaVuSans-1b" transform="translate(918.671875 0)"/>
     <use xlink:href="#DejaVuSans-4b" transform="translate(982.296875 0)"/>
     <use xlink:href="#DejaVuSans-3" transform="translate(1045.671875 0)"/>
     <use xlink:href="#DejaVuSans-56" transform="translate(1077.453125 0)"/>
     <use xlink:href="#DejaVuSans-53" transform="translate(1129.546875 0)"/>
     <use xlink:href="#DejaVuSans-44" transform="translate(1193.03125 0)"/>
     <use xlink:href="#DejaVuSans-51" transform="translate(1254.3125 0)"/>
    </g>
    <!-- Benign: 0.3% | Attack: 99.7% -->
    <g transform="translate(850.132713 910.704004) scale(0.1 -0.1)">
     <use xlink:href="#DejaVuSans-25"/>
     <use xlink:href="#DejaVuSans-48" transform="translate(68.609375 0)"/>
     <use xlink:href="#DejaVuSans-51" transform="translate(130.140625 0)"/>
     <use xlink:href="#DejaVuSans-4c" transform="translate(193.515625 0)"/>
     <use xlink:href="#DejaVuSans-4a" transform="translate(221.296875 0)"/>
     <use xlink:href="#DejaVuSans-51" transform="translate(284.78125 0)"/>
     <use xlink:href="#DejaVuSans-1d" transform="translate(348.15625 0)"/>
     <use xlink:href="#DejaVuSans-3" transform="translate(381.84375 0)"/>
     <use xlink:href="#DejaVuSans-13" transform="translate(413.625 0)"/>
     <use xlink:href="#DejaVuSans-11" transform="translate(477.25 0)"/>
     <use xlink:href="#DejaVuSans-16" transform="translate(509.03125 0)"/>
     <use xlink:href="#DejaVuSans-8" transform="translate(572.65625 0)"/>
     <use xlink:href="#DejaVuSans-3" transform="translate(667.671875 0)"/>
     <use xlink:href="#DejaVuSans-5f" transform="translate(699.453125 0)"/>
     <use xlink:href="#DejaVuSans-3" transform="translate(733.140625 0)"/>
     <use xlink:href="#DejaVuSans-24" transform="translate(764.921875 0)"/>
     <use xlink:href="#DejaVuSans-57" transform="translate(831.578125 0)"/>
     <use xlink:href="#DejaVuSans-57" transform="translate(870.78125 0)"/>
     <use xlink:href="#DejaVuSans-44" transform="translate(909.984375 0)"/>
     <use xlink:href="#DejaVuSans-46" transform="translate(971.265625 0)"/>
     <use xlink:href="#DejaVuSans-4e" transform="translate(1026.25 0)"/>
     <use xlink:href="#DejaVuSans-1d" transform="translate(1084.15625 0)"/>
     <use xlink:href="#DejaVuSans-3" transform="translate(1117.84375 0)"/>
     <use xlink:href="#DejaVuSans-1c" transform="translate(1149.625 0)"/>
     <use xlink:href="#DejaVuSans-1c" transform="translate(1213.25 0)"/>
     <use xlink:href="#DejaVuSans-11" transform="translate(1276.875 0)"/>
     <use xlink:href="#DejaVuSans-1a" transform="translate(1308.65625 0)"/>
     <use xlink:href="#DejaVuSans-8" transform="translate(1372.28125 0)"/>
    </g>
   </g>
   <g id="text_21">
    <!-- NF-BoT-IoT -->
    <g transform="translate(887.228494 622.198945) scale(0.12 -0.12)">
     <use xlink:href="#DejaVuSans-Bold-31"/>
     <use xlink:href="#DejaVuSans-Bold-29" transform="translate(83.6875 0)"/>
     <use xlink:href="#DejaVuSans-Bold-10" transform="translate(148.921875 0)"/>
     <use xlink:href="#DejaVuSans-Bold-25" transform="translate(190.421875 0)"/>
     <use xlink:href="#DejaVuSans-Bold-52" transform="translate(266.640625 0)"/>
     <use xlink:href="#DejaVuSans-Bold-37" transform="translate(335.34375 0)"/>
     <use xlink:href="#DejaVuSans-Bold-10" transform="translate(388.859375 0)"/>
     <use xlink:href="#DejaVuSans-Bold-2c" transform="translate(430.359375 0)"/>
     <use xlink:href="#DejaVuSans-Bold-52" transform="translate(467.5625 0)"/>
     <use xlink:href="#DejaVuSans-Bold-37" transform="translate(536.265625 0)"/>
    </g>
   </g>
  </g>
  <g id="text_22">
   <!-- Dataset Composition — Training Split Distribution -->
   <g transform="translate(433.892578 18.597656) scale(0.15 -0.15)">
    <defs>
     <path id="DejaVuSans-Bold-44" d="M 2106 1575 
Q 1756 1575 1579 1456 
Q 1403 1338 1403 1106 
Q 1403 894 1545 773 
Q 1688 653 1941 653 
Q 2256 653 2472 879 
Q 2688 1106 2688 1447 
L 2688 1575 
L 2106 1575 
z
M 3816 1997 
L 3816 0 
L 2688 0 
L 2688 519 
Q 2463 200 2181 54 
Q 1900 -91 1497 -91 
Q 953 -91 614 226 
Q 275 544 275 1050 
Q 275 1666 698 1953 
Q 1122 2241 2028 2241 
L 2688 2241 
L 2688 2328 
Q 2688 2594 2478 2717 
Q 2269 2841 1825 2841 
Q 1466 2841 1156 2769 
Q 847 2697 581 2553 
L 581 3406 
Q 941 3494 1303 3539 
Q 1666 3584 2028 3584 
Q 2975 3584 3395 3211 
Q 3816 2838 3816 1997 
z
" transform="scale(0.015625)"/>
     <path id="DejaVuSans-Bold-57" d="M 1759 4494 
L 1759 3500 
L 2913 3500 
L 2913 2700 
L 1759 2700 
L 1759 1216 
Q 1759 972 1856 886 
Q 1953 800 2241 800 
L 2816 800 
L 2816 0 
L 1856 0 
Q 1194 0 917 276 
Q 641 553 641 1216 
L 641 2700 
L 84 2700 
L 84 3500 
L 641 3500 
L 641 4494 
L 1759 4494 
z
" transform="scale(0.015625)"/>
     <path id="DejaVuSans-Bold-48" d="M 4031 1759 
L 4031 1441 
L 1416 1441 
Q 1456 1047 1700 850 
Q 1944 653 2381 653 
Q 2734 653 3104 758 
Q 3475 863 3866 1075 
L 3866 213 
Q 3469 63 3072 -14 
Q 2675 -91 2278 -91 
Q 1328 -91 801 392 
Q 275 875 275 1747 
Q 275 2603 792 3093 
Q 1309 3584 2216 3584 
Q 3041 3584 3536 3087 
Q 4031 2591 4031 1759 
z
M 2881 2131 
Q 2881 2450 2695 2645 
Q 2509 2841 2209 2841 
Q 1884 2841 1681 2658 
Q 1478 2475 1428 2131 
L 2881 2131 
z
" transform="scale(0.015625)"/>
     <path id="DejaVuSans-Bold-3" transform="scale(0.015625)"/>
     <path id="DejaVuSans-Bold-50" d="M 3781 2919 
Q 3994 3244 4286 3414 
Q 4578 3584 4928 3584 
Q 5531 3584 5847 3212 
Q 6163 2841 6163 2131 
L 6163 0 
L 5038 0 
L 5038 1825 
Q 5041 1866 5042 1909 
Q 5044 1953 5044 2034 
Q 5044 2406 4934 2573 
Q 4825 2741 4581 2741 
Q 4263 2741 4089 2478 
Q 3916 2216 3909 1719 
L 3909 0 
L 2784 0 
L 2784 1825 
Q 2784 2406 2684 2573 
Q 2584 2741 2328 2741 
Q 2006 2741 1831 2477 
Q 1656 2213 1656 1722 
L 1656 0 
L 531 0 
L 531 3500 
L 1656 3500 
L 1656 2988 
Q 1863 3284 2130 3434 
Q 2397 3584 2719 3584 
Q 3081 3584 3359 3409 
Q 3638 3234 3781 2919 
z
" transform="scale(0.015625)"/>
     <path id="DejaVuSans-Bold-53" d="M 1656 506 
L 1656 -1331 
L 538 -1331 
L 538 3500 
L 1656 3500 
L 1656 2988 
Q 1888 3294 2169 3439 
Q 2450 3584 2816 3584 
Q 3463 3584 3878 3070 
Q 4294 2556 4294 1747 
Q 4294 938 3878 423 
Q 3463 -91 2816 -91 
Q 2450 -91 2169 54 
Q 1888 200 1656 506 
z
M 2400 2772 
Q 2041 2772 1848 2508 
Q 1656 2244 1656 1747 
Q 1656 1250 1848 986 
Q 2041 722 2400 722 
Q 2759 722 2948 984 
Q 3138 1247 3138 1747 
Q 3138 2247 2948 2509 
Q 2759 2772 2400 2772 
z
" transform="scale(0.015625)"/>
     <path id="DejaVuSans-Bold-4c" d="M 538 3500 
L 1656 3500 
L 1656 0 
L 538 0 
L 538 3500 
z
M 538 4863 
L 1656 4863 
L 1656 3950 
L 538 3950 
L 538 4863 
z
" transform="scale(0.015625)"/>
     <path id="DejaVuSans-Bold-51" d="M 4056 2131 
L 4056 0 
L 2931 0 
L 2931 347 
L 2931 1631 
Q 2931 2084 2911 2256 
Q 2891 2428 2841 2509 
Q 2775 2619 2662 2680 
Q 2550 2741 2406 2741 
Q 2056 2741 1856 2470 
Q 1656 2200 1656 1722 
L 1656 0 
L 538 0 
L 538 3500 
L 1656 3500 
L 1656 2988 
Q 1909 3294 2193 3439 
Q 2478 3584 2822 3584 
Q 3428 3584 3742 3212 
Q 4056 2841 4056 2131 
z
" transform="scale(0.015625)"/>
     <path id="DejaVuSans-Bold-af6" d="M 344 2156 
L 6056 2156 
L 6056 1350 
L 344 1350 
L 344 2156 
z
" transform="scale(0.015625)"/>
     <path id="DejaVuSans-Bold-55" d="M 3138 2547 
Q 2991 2616 2845 2648 
Q 2700 2681 2553 2681 
Q 2122 2681 1889 2404 
Q 1656 2128 1656 1613 
L 1656 0 
L 538 0 
L 538 3500 
L 1656 3500 
L 1656 2925 
Q 1872 3269 2151 3426 
Q 2431 3584 2822 3584 
Q 2878 3584 2943 3579 
Q 3009 3575 3134 3559 
L 3138 2547 
z
" transform="scale(0.015625)"/>
     <path id="DejaVuSans-Bold-4a" d="M 2919 594 
Q 2688 288 2409 144 
Q 2131 0 1766 0 
Q 1125 0 706 504 
Q 288 1009 288 1791 
Q 288 2575 706 3076 
Q 1125 3578 1766 3578 
Q 2131 3578 2409 3434 
Q 2688 3291 2919 2981 
L 2919 3500 
L 4044 3500 
L 4044 353 
Q 4044 -491 3511 -936 
Q 2978 -1381 1966 -1381 
Q 1638 -1381 1331 -1331 
Q 1025 -1281 716 -1178 
L 716 -306 
Q 1009 -475 1290 -558 
Q 1572 -641 1856 -641 
Q 2406 -641 2662 -400 
Q 2919 -159 2919 353 
L 2919 594 
z
M 2181 2772 
Q 1834 2772 1640 2515 
Q 1447 2259 1447 1791 
Q 1447 1309 1634 1061 
Q 1822 813 2181 813 
Q 2531 813 2725 1069 
Q 2919 1325 2919 1791 
Q 2919 2259 2725 2515 
Q 2531 2772 2181 2772 
z
" transform="scale(0.015625)"/>
     <path id="DejaVuSans-Bold-4f" d="M 538 4863 
L 1656 4863 
L 1656 0 
L 538 0 
L 538 4863 
z
" transform="scale(0.015625)"/>
     <path id="DejaVuSans-Bold-45" d="M 2400 722 
Q 2759 722 2948 984 
Q 3138 1247 3138 1747 
Q 3138 2247 2948 2509 
Q 2759 2772 2400 2772 
Q 2041 2772 1848 2508 
Q 1656 2244 1656 1747 
Q 1656 1250 1848 986 
Q 2041 722 2400 722 
z
M 1656 2988 
Q 1888 3294 2169 3439 
Q 2450 3584 2816 3584 
Q 3463 3584 3878 3070 
Q 4294 2556 4294 1747 
Q 4294 938 3878 423 
Q 3463 -91 2816 -91 
Q 2450 -91 2169 54 
Q 1888 200 1656 506 
L 1656 0 
L 538 0 
L 538 4863 
L 1656 4863 
L 1656 2988 
z
" transform="scale(0.015625)"/>
     <path id="DejaVuSans-Bold-58" d="M 500 1363 
L 500 3500 
L 1625 3500 
L 1625 3150 
Q 1625 2866 1622 2436 
Q 1619 2006 1619 1863 
Q 1619 1441 1641 1255 
Q 1663 1069 1716 984 
Q 1784 875 1895 815 
Q 2006 756 2150 756 
Q 2500 756 2700 1025 
Q 2900 1294 2900 1772 
L 2900 3500 
L 4019 3500 
L 4019 0 
L 2900 0 
L 2900 506 
Q 2647 200 2364 54 
Q 2081 -91 1741 -91 
Q 1134 -91 817 281 
Q 500 653 500 1363 
z
" transform="scale(0.015625)"/>
    </defs>
    <use xlink:href="#DejaVuSans-Bold-27"/>
    <use xlink:href="#DejaVuSans-Bold-44" transform="translate(83.015625 0)"/>
    <use xlink:href="#DejaVuSans-Bold-57" transform="translate(150.5 0)"/>
    <use xlink:href="#DejaVuSans-Bold-44" transform="translate(198.296875 0)"/>
    <use xlink:href="#DejaVuSans-Bold-56" transform="translate(265.78125 0)"/>
    <use xlink:href="#DejaVuSans-Bold-48" transform="translate(325.296875 0)"/>
    <use xlink:href="#DejaVuSans-Bold-57" transform="translate(393.125 0)"/>
    <use xlink:href="#DejaVuSans-Bold-3" transform="translate(440.921875 0)"/>
    <use xlink:href="#DejaVuSans-Bold-26" transform="translate(475.734375 0)"/>
    <use xlink:href="#DejaVuSans-Bold-52" transform="translate(549.125 0)"/>
    <use xlink:href="#DejaVuSans-Bold-50" transform="translate(617.828125 0)"/>
    <use xlink:href="#DejaVuSans-Bold-53" transform="translate(722.03125 0)"/>
    <use xlink:href="#DejaVuSans-Bold-52" transform="translate(793.609375 0)"/>
    <use xlink:href="#DejaVuSans-Bold-56" transform="translate(862.3125 0)"/>
    <use xlink:href="#DejaVuSans-Bold-4c" transform="translate(921.828125 0)"/>
    <use xlink:href="#DejaVuSans-Bold-57" transform="translate(956.109375 0)"/>
    <use xlink:href="#DejaVuSans-Bold-4c" transform="translate(1003.90625 0)"/>
    <use xlink:href="#DejaVuSans-Bold-52" transform="translate(1038.1875 0)"/>
    <use xlink:href="#DejaVuSans-Bold-51" transform="translate(1106.890625 0)"/>
    <use xlink:href="#DejaVuSans-Bold-3" transform="translate(1178.078125 0)"/>
    <use xlink:href="#DejaVuSans-Bold-af6" transform="translate(1212.890625 0)"/>
    <use xlink:href="#DejaVuSans-Bold-3" transform="translate(1312.890625 0)"/>
    <use xlink:href="#DejaVuSans-Bold-37" transform="translate(1347.703125 0)"/>
    <use xlink:href="#DejaVuSans-Bold-55" transform="translate(1404.9375 0)"/>
    <use xlink:href="#DejaVuSans-Bold-44" transform="translate(1454.25 0)"/>
    <use xlink:href="#DejaVuSans-Bold-4c" transform="translate(1521.734375 0)"/>
    <use xlink:href="#DejaVuSans-Bold-51" transform="translate(1556.015625 0)"/>
    <use xlink:href="#DejaVuSans-Bold-4c" transform="translate(1627.203125 0)"/>
    <use xlink:href="#DejaVuSans-Bold-51" transform="translate(1661.484375 0)"/>
    <use xlink:href="#DejaVuSans-Bold-4a" transform="translate(1732.671875 0)"/>
    <use xlink:href="#DejaVuSans-Bold-3" transform="translate(1804.25 0)"/>
    <use xlink:href="#DejaVuSans-Bold-36" transform="translate(1839.0625 0)"/>
    <use xlink:href="#DejaVuSans-Bold-53" transform="translate(1911.078125 0)"/>
    <use xlink:href="#DejaVuSans-Bold-4f" transform="translate(1982.65625 0)"/>
    <use xlink:href="#DejaVuSans-Bold-4c" transform="translate(2016.9375 0)"/>
    <use xlink:href="#DejaVuSans-Bold-57" transform="translate(2051.21875 0)"/>
    <use xlink:href="#DejaVuSans-Bold-3" transform="translate(2099.015625 0)"/>
    <use xlink:href="#DejaVuSans-Bold-27" transform="translate(2133.828125 0)"/>
    <use xlink:href="#DejaVuSans-Bold-4c" transform="translate(2216.84375 0)"/>
    <use xlink:href="#DejaVuSans-Bold-56" transform="translate(2251.125 0)"/>
    <use xlink:href="#DejaVuSans-Bold-57" transform="translate(2310.640625 0)"/>
    <use xlink:href="#DejaVuSans-Bold-55" transform="translate(2358.4375 0)"/>
    <use xlink:href="#DejaVuSans-Bold-4c" transform="translate(2407.75 0)"/>
    <use xlink:href="#DejaVuSans-Bold-45" transform="translate(2442.03125 0)"/>
    <use xlink:href="#DejaVuSans-Bold-58" transform="translate(2513.609375 0)"/>
    <use xlink:href="#DejaVuSans-Bold-57" transform="translate(2584.796875 0)"/>
    <use xlink:href="#DejaVuSans-Bold-4c" transform="translate(2632.59375 0)"/>
    <use xlink:href="#DejaVuSans-Bold-52" transform="translate(2666.875 0)"/>
    <use xlink:href="#DejaVuSans-Bold-51" transform="translate(2735.578125 0)"/>
   </g>
  </g>
 </g>
</svg>
