<?xml version="1.0" encoding="utf-8" standalone="no"?>
<!DOCTYPE svg PUBLIC "-//W3C//DTD SVG 1.1//EN"
  "http://www.w3.org/Graphics/SVG/1.1/DTD/svg11.dtd">
<svg xmlns:xlink="http://www.w3.org/1999/xlink" width="775.941479pt" height="710.28pt" viewBox="0 0 775.941479 710.28" xmlns="http://www.w3.org/2000/svg" version="1.1">
 <metadata>
  <rdf:RDF xmlns:dc="http://purl.org/dc/elements/1.1/" xmlns:cc="http://creativecommons.org/ns#" xmlns:rdf="http://www.w3.org/1999/02/22-rdf-syntax-ns#">
   <cc:Work>
    <dc:type rdf:resource="http://purl.org/dc/dcmitype/StillImage"/>
    <dc:date>2026-07-20T19:56:24.297660</dc:date>
    <dc:format>image/svg+xml</dc:format>
    <dc:creator>
     <cc:Agent>
      <dc:title>Matplotlib v3.11.0, https://matplotlib.org/</dc:title>
     </cc:Agent>
    </dc:creator>
   </cc:Work>
  </rdf:RDF>
 </metadata>
 <defs>
  <style type="text/css">*{stroke-linejoin: round; stroke-linecap: butt}</style>
 </defs>
 <g id="figure_1">
  <g id="patch_1">
   <path d="M 0 710.28 
L 775.941479 710.28 
L 775.941479 0 
L 0 0 
z
" style="fill: #ffffff"/>
  </g>
  <g id="axes_1">
   <g id="patch_2">
    <path d="M 265.548463 216.273076 
C 265.548463 202.970242 263.236631 189.768039 258.716332 177.256753 
C 254.196034 164.745467 247.535657 153.114383 239.032994 142.883542 
C 230.530332 132.6527 220.314023 123.976885 208.840851 117.244003 
C 197.367679 110.511121 184.811223 105.823034 171.732898 103.389353 
C 158.654573 100.955673 145.252244 100.813217 132.125144 102.968356 
C 118.998044 105.123495 106.344775 109.543623 94.731082 116.031111 
C 83.117388 122.5186 72.718975 130.975297 64.000767 141.023095 
C 55.28256 151.070893 48.376458 162.557777 43.591242 174.970153 
C 38.806025 187.382529 36.214091 200.532609 35.931327 213.832438 
C 35.648563 227.132266 37.679247 240.380626 41.932585 252.985169 
C 46.185924 265.589712 52.597567 277.35974 60.880842 287.769002 
C 69.164117 298.178264 79.193705 307.069276 90.521172 314.04451 
C 101.848638 321.019744 114.302607 325.97367 127.326247 328.684793 
C 140.349887 331.395916 153.74616 331.823219 166.916104 329.947595 
C 180.086048 328.071972 192.830411 323.921799 204.579379 317.682637 
C 216.328346 311.443474 226.904165 303.209715 235.833978 293.349501 
L 150.726924 216.273076 
z
" style="fill: #8dd3c7"/>
   </g>
   <g id="patch_3">
    <path d="M 235.833978 293.349501 
C 241.750238 286.816822 246.894718 279.624629 251.16571 271.915112 
C 255.436701 264.205595 258.805872 256.029898 261.206611 247.549658 
L 150.726924 216.273076 
z
" style="fill: #fb8072"/>
   </g>
   <g id="patch_4">
    <path d="M 261.206611 247.549658 
C 261.549535 246.33833 261.872515 245.121445 262.175418 243.899495 
C 262.478321 242.677545 262.761107 241.450696 263.023661 240.219446 
L 150.726924 216.273076 
z
" style="fill: #b3de69"/>
   </g>
   <g id="patch_5">
    <path d="M 263.023661 240.219446 
C 263.6244 237.402275 264.118915 234.563496 264.506157 231.709134 
C 264.893399 228.854772 265.173094 225.986849 265.344647 223.111452 
L 150.726924 216.273076 
z
" style="fill: #bc80bd"/>
   </g>
   <g id="patch_6">
    <path d="M 265.344647 223.111452 
C 265.412567 221.973051 265.463523 220.833702 265.497498 219.693782 
C 265.531473 218.553863 265.548463 217.413501 265.548463 216.273076 
L 150.726924 216.273076 
z
" style="fill: #ffed6f"/>
   </g>
   <g id="matplotlib.axis_1"/>
   <g id="matplotlib.axis_2"/>
   <g id="text_1">
    <!-- Benign -->
    <g transform="translate(11.988299 172.398689) scale(0.06 -0.06)">
     <defs>
      <path id="DejaVuSans-25" d="M 1259 2228 
L 1259 519 
L 2272 519 
Q 2781 519 3026 730 
Q 3272 941 3272 1375 
Q 3272 1813 3026 2020 
Q 2781 2228 2272 2228 
L 1259 2228 
z
M 1259 4147 
L 1259 2741 
L 2194 2741 
Q 2656 2741 2882 2914 
Q 3109 3088 3109 3444 
Q 3109 3797 2882 3972 
Q 2656 4147 2194 4147 
L 1259 4147 
z
M 628 4666 
L 2241 4666 
Q 2963 4666 3353 4366 
Q 3744 4066 3744 3513 
Q 3744 3084 3544 2831 
Q 3344 2578 2956 2516 
Q 3422 2416 3680 2098 
Q 3938 1781 3938 1306 
Q 3938 681 3513 340 
Q 3088 0 2303 0 
L 628 0 
L 628 4666 
z
" transform="scale(0.015625)"/>
      <path id="DejaVuSans-48" d="M 3597 1894 
L 3597 1613 
L 953 1613 
Q 991 1019 1311 708 
Q 1631 397 2203 397 
Q 2534 397 2845 478 
Q 3156 559 3463 722 
L 3463 178 
Q 3153 47 2828 -22 
Q 2503 -91 2169 -91 
Q 1331 -91 842 396 
Q 353 884 353 1716 
Q 353 2575 817 3079 
Q 1281 3584 2069 3584 
Q 2775 3584 3186 3129 
Q 3597 2675 3597 1894 
z
M 3022 2063 
Q 3016 2534 2758 2815 
Q 2500 3097 2075 3097 
Q 1594 3097 1305 2825 
Q 1016 2553 972 2059 
L 3022 2063 
z
" transform="scale(0.015625)"/>
      <path id="DejaVuSans-51" d="M 3513 2113 
L 3513 0 
L 2938 0 
L 2938 2094 
Q 2938 2591 2744 2837 
Q 2550 3084 2163 3084 
Q 1697 3084 1428 2787 
Q 1159 2491 1159 1978 
L 1159 0 
L 581 0 
L 581 3500 
L 1159 3500 
L 1159 2956 
Q 1366 3272 1645 3428 
Q 1925 3584 2291 3584 
Q 2894 3584 3203 3211 
Q 3513 2838 3513 2113 
z
" transform="scale(0.015625)"/>
      <path id="DejaVuSans-4c" d="M 603 3500 
L 1178 3500 
L 1178 0 
L 603 0 
L 603 3500 
z
M 603 4863 
L 1178 4863 
L 1178 4134 
L 603 4134 
L 603 4863 
z
" transform="scale(0.015625)"/>
      <path id="DejaVuSans-4a" d="M 2906 1791 
Q 2906 2416 2648 2759 
Q 2391 3103 1925 3103 
Q 1463 3103 1205 2759 
Q 947 2416 947 1791 
Q 947 1169 1205 825 
Q 1463 481 1925 481 
Q 2391 481 2648 825 
Q 2906 1169 2906 1791 
z
M 3481 434 
Q 3481 -459 3084 -895 
Q 2688 -1331 1869 -1331 
Q 1566 -1331 1297 -1286 
Q 1028 -1241 775 -1147 
L 775 -588 
Q 1028 -725 1275 -790 
Q 1522 -856 1778 -856 
Q 2344 -856 2625 -561 
Q 2906 -266 2906 331 
L 2906 616 
Q 2728 306 2450 153 
Q 2172 0 1784 0 
Q 1141 0 747 490 
Q 353 981 353 1791 
Q 353 2603 747 3093 
Q 1141 3584 1784 3584 
Q 2172 3584 2450 3431 
Q 2728 3278 2906 2969 
L 2906 3500 
L 3481 3500 
L 3481 434 
z
" transform="scale(0.015625)"/>
     </defs>
     <use xlink:href="#DejaVuSans-25"/>
     <use xlink:href="#DejaVuSans-48" transform="translate(68.609375 0)"/>
     <use xlink:href="#DejaVuSans-51" transform="translate(130.140625 0)"/>
     <use xlink:href="#DejaVuSans-4c" transform="translate(193.515625 0)"/>
     <use xlink:href="#DejaVuSans-4a" transform="translate(221.296875 0)"/>
     <use xlink:href="#DejaVuSans-51" transform="translate(284.78125 0)"/>
    </g>
   </g>
   <g id="text_2">
    <!-- DoS/DDoS -->
    <g transform="translate(261.209588 279.037909) scale(0.06 -0.06)">
     <defs>
      <path id="DejaVuSans-27" d="M 1259 4147 
L 1259 519 
L 2022 519 
Q 2988 519 3436 956 
Q 3884 1394 3884 2338 
Q 3884 3275 3436 3711 
Q 2988 4147 2022 4147 
L 1259 4147 
z
M 628 4666 
L 1925 4666 
Q 3281 4666 3915 4102 
Q 4550 3538 4550 2338 
Q 4550 1131 3912 565 
Q 3275 0 1925 0 
L 628 0 
L 628 4666 
z
" transform="scale(0.015625)"/>
      <path id="DejaVuSans-52" d="M 1959 3097 
Q 1497 3097 1228 2736 
Q 959 2375 959 1747 
Q 959 1119 1226 758 
Q 1494 397 1959 397 
Q 2419 397 2687 759 
Q 2956 1122 2956 1747 
Q 2956 2369 2687 2733 
Q 2419 3097 1959 3097 
z
M 1959 3584 
Q 2709 3584 3137 3096 
Q 3566 2609 3566 1747 
Q 3566 888 3137 398 
Q 2709 -91 1959 -91 
Q 1206 -91 779 398 
Q 353 888 353 1747 
Q 353 2609 779 3096 
Q 1206 3584 1959 3584 
z
" transform="scale(0.015625)"/>
      <path id="DejaVuSans-36" d="M 3425 4513 
L 3425 3897 
Q 3066 4069 2747 4153 
Q 2428 4238 2131 4238 
Q 1616 4238 1336 4038 
Q 1056 3838 1056 3469 
Q 1056 3159 1242 3001 
Q 1428 2844 1947 2747 
L 2328 2669 
Q 3034 2534 3370 2195 
Q 3706 1856 3706 1288 
Q 3706 609 3251 259 
Q 2797 -91 1919 -91 
Q 1588 -91 1214 -16 
Q 841 59 441 206 
L 441 856 
Q 825 641 1194 531 
Q 1563 422 1919 422 
Q 2459 422 2753 634 
Q 3047 847 3047 1241 
Q 3047 1584 2836 1778 
Q 2625 1972 2144 2069 
L 1759 2144 
Q 1053 2284 737 2584 
Q 422 2884 422 3419 
Q 422 4038 858 4394 
Q 1294 4750 2059 4750 
Q 2388 4750 2728 4690 
Q 3069 4631 3425 4513 
z
" transform="scale(0.015625)"/>
      <path id="DejaVuSans-12" d="M 1625 4666 
L 2156 4666 
L 531 -594 
L 0 -594 
L 1625 4666 
z
" transform="scale(0.015625)"/>
     </defs>
     <use xlink:href="#DejaVuSans-27"/>
     <use xlink:href="#DejaVuSans-52" transform="translate(77 0)"/>
     <use xlink:href="#DejaVuSans-36" transform="translate(138.1875 0)"/>
     <use xlink:href="#DejaVuSans-12" transform="translate(201.671875 0)"/>
     <use xlink:href="#DejaVuSans-27" transform="translate(235.359375 0)"/>
     <use xlink:href="#DejaVuSans-27" transform="translate(312.359375 0)"/>
     <use xlink:href="#DejaVuSans-52" transform="translate(389.359375 0)"/>
     <use xlink:href="#DejaVuSans-36" transform="translate(450.546875 0)"/>
    </g>
   </g>
   <g id="text_3">
    <!-- Bot -->
    <g transform="translate(273.320267 248.22073) scale(0.06 -0.06)">
     <defs>
      <path id="DejaVuSans-57" d="M 1172 4494 
L 1172 3500 
L 2356 3500 
L 2356 3053 
L 1172 3053 
L 1172 1153 
Q 1172 725 1289 603 
Q 1406 481 1766 481 
L 2356 481 
L 2356 0 
L 1766 0 
Q 1100 0 847 248 
Q 594 497 594 1153 
L 594 3053 
L 172 3053 
L 172 3500 
L 594 3500 
L 594 4494 
L 1172 4494 
z
" transform="scale(0.015625)"/>
     </defs>
     <use xlink:href="#DejaVuSans-25"/>
     <use xlink:href="#DejaVuSans-52" transform="translate(68.609375 0)"/>
     <use xlink:href="#DejaVuSans-57" transform="translate(129.796875 0)"/>
    </g>
   </g>
   <g id="text_4">
    <!-- Brute Forc -->
    <g transform="translate(275.884081 234.811334) scale(0.06 -0.06)">
     <defs>
      <path id="DejaVuSans-55" d="M 2631 2963 
Q 2534 3019 2420 3045 
Q 2306 3072 2169 3072 
Q 1681 3072 1420 2755 
Q 1159 2438 1159 1844 
L 1159 0 
L 581 0 
L 581 3500 
L 1159 3500 
L 1159 2956 
Q 1341 3275 1631 3429 
Q 1922 3584 2338 3584 
Q 2397 3584 2469 3576 
Q 2541 3569 2628 3553 
L 2631 2963 
z
" transform="scale(0.015625)"/>
      <path id="DejaVuSans-58" d="M 544 1381 
L 544 3500 
L 1119 3500 
L 1119 1403 
Q 1119 906 1312 657 
Q 1506 409 1894 409 
Q 2359 409 2629 706 
Q 2900 1003 2900 1516 
L 2900 3500 
L 3475 3500 
L 3475 0 
L 2900 0 
L 2900 538 
Q 2691 219 2414 64 
Q 2138 -91 1772 -91 
Q 1169 -91 856 284 
Q 544 659 544 1381 
z
M 1991 3584 
L 1991 3584 
z
" transform="scale(0.015625)"/>
      <path id="DejaVuSans-3" transform="scale(0.015625)"/>
      <path id="DejaVuSans-29" d="M 628 4666 
L 3309 4666 
L 3309 4134 
L 1259 4134 
L 1259 2759 
L 3109 2759 
L 3109 2228 
L 1259 2228 
L 1259 0 
L 628 0 
L 628 4666 
z
" transform="scale(0.015625)"/>
      <path id="DejaVuSans-46" d="M 3122 3366 
L 3122 2828 
Q 2878 2963 2633 3030 
Q 2388 3097 2138 3097 
Q 1578 3097 1268 2742 
Q 959 2388 959 1747 
Q 959 1106 1268 751 
Q 1578 397 2138 397 
Q 2388 397 2633 464 
Q 2878 531 3122 666 
L 3122 134 
Q 2881 22 2623 -34 
Q 2366 -91 2075 -91 
Q 1284 -91 818 406 
Q 353 903 353 1747 
Q 353 2603 823 3093 
Q 1294 3584 2113 3584 
Q 2378 3584 2631 3529 
Q 2884 3475 3122 3366 
z
" transform="scale(0.015625)"/>
     </defs>
     <use xlink:href="#DejaVuSans-25"/>
     <use xlink:href="#DejaVuSans-55" transform="translate(68.609375 0)"/>
     <use xlink:href="#DejaVuSans-58" transform="translate(109.71875 0)"/>
     <use xlink:href="#DejaVuSans-57" transform="translate(173.09375 0)"/>
     <use xlink:href="#DejaVuSans-48" transform="translate(212.296875 0)"/>
     <use xlink:href="#DejaVuSans-3" transform="translate(273.828125 0)"/>
     <use xlink:href="#DejaVuSans-29" transform="translate(305.609375 0)"/>
     <use xlink:href="#DejaVuSans-52" transform="translate(359.5625 0)"/>
     <use xlink:href="#DejaVuSans-55" transform="translate(420.75 0)"/>
     <use xlink:href="#DejaVuSans-46" transform="translate(459.65625 0)"/>
    </g>
   </g>
   <g id="text_5">
    <!-- Infiltrati -->
    <g transform="translate(276.974555 221.594681) scale(0.06 -0.06)">
     <defs>
      <path id="DejaVuSans-2c" d="M 628 4666 
L 1259 4666 
L 1259 0 
L 628 0 
L 628 4666 
z
" transform="scale(0.015625)"/>
      <path id="DejaVuSans-13af" d="M 3431 3500 
L 3431 0 
L 2853 0 
L 2853 3053 
L 1275 3053 
L 1275 0 
L 697 0 
L 697 3053 
L 147 3053 
L 147 3500 
L 697 3500 
L 697 3744 
Q 697 4316 967 4589 
Q 1238 4863 1797 4863 
L 2375 4863 
L 2375 4384 
L 1825 4384 
Q 1516 4384 1395 4259 
Q 1275 4134 1275 3809 
L 1275 3500 
L 3431 3500 
z
M 2853 4856 
L 3431 4856 
L 3431 4128 
L 2853 4128 
L 2853 4856 
z
" transform="scale(0.015625)"/>
      <path id="DejaVuSans-4f" d="M 603 4863 
L 1178 4863 
L 1178 0 
L 603 0 
L 603 4863 
z
" transform="scale(0.015625)"/>
      <path id="DejaVuSans-44" d="M 2194 1759 
Q 1497 1759 1228 1600 
Q 959 1441 959 1056 
Q 959 750 1161 570 
Q 1363 391 1709 391 
Q 2188 391 2477 730 
Q 2766 1069 2766 1631 
L 2766 1759 
L 2194 1759 
z
M 3341 1997 
L 3341 0 
L 2766 0 
L 2766 531 
Q 2569 213 2275 61 
Q 1981 -91 1556 -91 
Q 1019 -91 701 211 
Q 384 513 384 1019 
Q 384 1609 779 1909 
Q 1175 2209 1959 2209 
L 2766 2209 
L 2766 2266 
Q 2766 2663 2505 2880 
Q 2244 3097 1772 3097 
Q 1472 3097 1187 3025 
Q 903 2953 641 2809 
L 641 3341 
Q 956 3463 1253 3523 
Q 1550 3584 1831 3584 
Q 2591 3584 2966 3190 
Q 3341 2797 3341 1997 
z
" transform="scale(0.015625)"/>
     </defs>
     <use xlink:href="#DejaVuSans-2c"/>
     <use xlink:href="#DejaVuSans-51" transform="translate(29.5 0)"/>
     <use xlink:href="#DejaVuSans-13af" transform="translate(92.875 0)"/>
     <use xlink:href="#DejaVuSans-4f" transform="translate(155.859375 0)"/>
     <use xlink:href="#DejaVuSans-57" transform="translate(183.640625 0)"/>
     <use xlink:href="#DejaVuSans-55" transform="translate(222.84375 0)"/>
     <use xlink:href="#DejaVuSans-44" transform="translate(263.953125 0)"/>
     <use xlink:href="#DejaVuSans-57" transform="translate(325.234375 0)"/>
     <use xlink:href="#DejaVuSans-4c" transform="translate(364.4375 0)"/>
    </g>
   </g>
   <g id="text_6">
    <!-- 88.3% -->
    <g transform="translate(76.915358 193.049916) scale(0.06 -0.06)">
     <defs>
      <path id="DejaVuSans-1b" d="M 2034 2216 
Q 1584 2216 1326 1975 
Q 1069 1734 1069 1313 
Q 1069 891 1326 650 
Q 1584 409 2034 409 
Q 2484 409 2743 651 
Q 3003 894 3003 1313 
Q 3003 1734 2745 1975 
Q 2488 2216 2034 2216 
z
M 1403 2484 
Q 997 2584 770 2862 
Q 544 3141 544 3541 
Q 544 4100 942 4425 
Q 1341 4750 2034 4750 
Q 2731 4750 3128 4425 
Q 3525 4100 3525 3541 
Q 3525 3141 3298 2862 
Q 3072 2584 2669 2484 
Q 3125 2378 3379 2068 
Q 3634 1759 3634 1313 
Q 3634 634 3220 271 
Q 2806 -91 2034 -91 
Q 1263 -91 848 271 
Q 434 634 434 1313 
Q 434 1759 690 2068 
Q 947 2378 1403 2484 
z
M 1172 3481 
Q 1172 3119 1398 2916 
Q 1625 2713 2034 2713 
Q 2441 2713 2670 2916 
Q 2900 3119 2900 3481 
Q 2900 3844 2670 4047 
Q 2441 4250 2034 4250 
Q 1625 4250 1398 4047 
Q 1172 3844 1172 3481 
z
" transform="scale(0.015625)"/>
      <path id="DejaVuSans-11" d="M 684 794 
L 1344 794 
L 1344 0 
L 684 0 
L 684 794 
z
" transform="scale(0.015625)"/>
      <path id="DejaVuSans-16" d="M 2597 2516 
Q 3050 2419 3304 2112 
Q 3559 1806 3559 1356 
Q 3559 666 3084 287 
Q 2609 -91 1734 -91 
Q 1441 -91 1130 -33 
Q 819 25 488 141 
L 488 750 
Q 750 597 1062 519 
Q 1375 441 1716 441 
Q 2309 441 2620 675 
Q 2931 909 2931 1356 
Q 2931 1769 2642 2001 
Q 2353 2234 1838 2234 
L 1294 2234 
L 1294 2753 
L 1863 2753 
Q 2328 2753 2575 2939 
Q 2822 3125 2822 3475 
Q 2822 3834 2567 4026 
Q 2313 4219 1838 4219 
Q 1578 4219 1281 4162 
Q 984 4106 628 3988 
L 628 4550 
Q 988 4650 1302 4700 
Q 1616 4750 1894 4750 
Q 2613 4750 3031 4423 
Q 3450 4097 3450 3541 
Q 3450 3153 3228 2886 
Q 3006 2619 2597 2516 
z
" transform="scale(0.015625)"/>
      <path id="DejaVuSans-8" d="M 4653 2053 
Q 4381 2053 4226 1822 
Q 4072 1591 4072 1178 
Q 4072 772 4226 539 
Q 4381 306 4653 306 
Q 4919 306 5073 539 
Q 5228 772 5228 1178 
Q 5228 1588 5073 1820 
Q 4919 2053 4653 2053 
z
M 4653 2450 
Q 5147 2450 5437 2106 
Q 5728 1763 5728 1178 
Q 5728 594 5436 251 
Q 5144 -91 4653 -91 
Q 4153 -91 3862 251 
Q 3572 594 3572 1178 
Q 3572 1766 3864 2108 
Q 4156 2450 4653 2450 
z
M 1428 4353 
Q 1159 4353 1004 4120 
Q 850 3888 850 3481 
Q 850 3069 1003 2837 
Q 1156 2606 1428 2606 
Q 1700 2606 1854 2837 
Q 2009 3069 2009 3481 
Q 2009 3884 1853 4118 
Q 1697 4353 1428 4353 
z
M 4250 4750 
L 4750 4750 
L 1831 -91 
L 1331 -91 
L 4250 4750 
z
M 1428 4750 
Q 1922 4750 2215 4408 
Q 2509 4066 2509 3481 
Q 2509 2891 2217 2550 
Q 1925 2209 1428 2209 
Q 931 2209 642 2551 
Q 353 2894 353 3481 
Q 353 4063 643 4406 
Q 934 4750 1428 4750 
z
" transform="scale(0.015625)"/>
     </defs>
     <use xlink:href="#DejaVuSans-1b"/>
     <use xlink:href="#DejaVuSans-1b" transform="translate(63.625 0)"/>
     <use xlink:href="#DejaVuSans-11" transform="translate(127.25 0)"/>
     <use xlink:href="#DejaVuSans-16" transform="translate(159.03125 0)"/>
     <use xlink:href="#DejaVuSans-8" transform="translate(222.65625 0)"/>
    </g>
   </g>
   <g id="text_7">
    <!-- 7.3% -->
    <g transform="translate(203.368789 251.216891) scale(0.06 -0.06)">
     <defs>
      <path id="DejaVuSans-1a" d="M 525 4666 
L 3525 4666 
L 3525 4397 
L 1831 0 
L 1172 0 
L 2766 4134 
L 525 4134 
L 525 4666 
z
" transform="scale(0.015625)"/>
     </defs>
     <use xlink:href="#DejaVuSans-1a"/>
     <use xlink:href="#DejaVuSans-11" transform="translate(63.625 0)"/>
     <use xlink:href="#DejaVuSans-16" transform="translate(95.40625 0)"/>
     <use xlink:href="#DejaVuSans-8" transform="translate(159.03125 0)"/>
    </g>
   </g>
   <g id="text_8">
    <!-- 1.0% -->
    <g transform="translate(209.974614 234.407521) scale(0.06 -0.06)">
     <defs>
      <path id="DejaVuSans-14" d="M 794 531 
L 1825 531 
L 1825 4091 
L 703 3866 
L 703 4441 
L 1819 4666 
L 2450 4666 
L 2450 531 
L 3481 531 
L 3481 0 
L 794 0 
L 794 531 
z
" transform="scale(0.015625)"/>
      <path id="DejaVuSans-13" d="M 2034 4250 
Q 1547 4250 1301 3770 
Q 1056 3291 1056 2328 
Q 1056 1369 1301 889 
Q 1547 409 2034 409 
Q 2525 409 2770 889 
Q 3016 1369 3016 2328 
Q 3016 3291 2770 3770 
Q 2525 4250 2034 4250 
z
M 2034 4750 
Q 2819 4750 3233 4129 
Q 3647 3509 3647 2328 
Q 3647 1150 3233 529 
Q 2819 -91 2034 -91 
Q 1250 -91 836 529 
Q 422 1150 422 2328 
Q 422 3509 836 4129 
Q 1250 4750 2034 4750 
z
" transform="scale(0.015625)"/>
     </defs>
     <use xlink:href="#DejaVuSans-14"/>
     <use xlink:href="#DejaVuSans-11" transform="translate(63.625 0)"/>
     <use xlink:href="#DejaVuSans-13" transform="translate(95.40625 0)"/>
     <use xlink:href="#DejaVuSans-8" transform="translate(159.03125 0)"/>
    </g>
   </g>
   <g id="text_9">
    <!-- 2.4% -->
    <g transform="translate(211.373058 227.093305) scale(0.06 -0.06)">
     <defs>
      <path id="DejaVuSans-15" d="M 1228 531 
L 3431 531 
L 3431 0 
L 469 0 
L 469 531 
Q 828 903 1448 1529 
Q 2069 2156 2228 2338 
Q 2531 2678 2651 2914 
Q 2772 3150 2772 3378 
Q 2772 3750 2511 3984 
Q 2250 4219 1831 4219 
Q 1534 4219 1204 4116 
Q 875 4013 500 3803 
L 500 4441 
Q 881 4594 1212 4672 
Q 1544 4750 1819 4750 
Q 2544 4750 2975 4387 
Q 3406 4025 3406 3419 
Q 3406 3131 3298 2873 
Q 3191 2616 2906 2266 
Q 2828 2175 2409 1742 
Q 1991 1309 1228 531 
z
" transform="scale(0.015625)"/>
      <path id="DejaVuSans-17" d="M 2419 4116 
L 825 1625 
L 2419 1625 
L 2419 4116 
z
M 2253 4666 
L 3047 4666 
L 3047 1625 
L 3713 1625 
L 3713 1100 
L 3047 1100 
L 3047 0 
L 2419 0 
L 2419 1100 
L 313 1100 
L 313 1709 
L 2253 4666 
z
" transform="scale(0.015625)"/>
     </defs>
     <use xlink:href="#DejaVuSans-15"/>
     <use xlink:href="#DejaVuSans-11" transform="translate(63.625 0)"/>
     <use xlink:href="#DejaVuSans-17" transform="translate(95.40625 0)"/>
     <use xlink:href="#DejaVuSans-8" transform="translate(159.03125 0)"/>
    </g>
   </g>
   <g id="text_10">
    <!-- 0.9% -->
    <g transform="translate(211.967862 219.884094) scale(0.06 -0.06)">
     <defs>
      <path id="DejaVuSans-1c" d="M 703 97 
L 703 672 
Q 941 559 1184 500 
Q 1428 441 1663 441 
Q 2288 441 2617 861 
Q 2947 1281 2994 2138 
Q 2813 1869 2534 1725 
Q 2256 1581 1919 1581 
Q 1219 1581 811 2004 
Q 403 2428 403 3163 
Q 403 3881 828 4315 
Q 1253 4750 1959 4750 
Q 2769 4750 3195 4129 
Q 3622 3509 3622 2328 
Q 3622 1225 3098 567 
Q 2575 -91 1691 -91 
Q 1453 -91 1209 -44 
Q 966 3 703 97 
z
M 1959 2075 
Q 2384 2075 2632 2365 
Q 2881 2656 2881 3163 
Q 2881 3666 2632 3958 
Q 2384 4250 1959 4250 
Q 1534 4250 1286 3958 
Q 1038 3666 1038 3163 
Q 1038 2656 1286 2365 
Q 1534 2075 1959 2075 
z
" transform="scale(0.015625)"/>
     </defs>
     <use xlink:href="#DejaVuSans-13"/>
     <use xlink:href="#DejaVuSans-11" transform="translate(63.625 0)"/>
     <use xlink:href="#DejaVuSans-1c" transform="translate(95.40625 0)"/>
     <use xlink:href="#DejaVuSans-8" transform="translate(159.03125 0)"/>
    </g>
   </g>
   <g id="text_11">
    <!-- NF-CICIDS2018 -->
    <g transform="translate(112.704033 34.299395) scale(0.09 -0.09)">
     <defs>
      <path id="DejaVuSans-Bold-31" d="M 588 4666 
L 1931 4666 
L 3628 1466 
L 3628 4666 
L 4769 4666 
L 4769 0 
L 3425 0 
L 1728 3200 
L 1728 0 
L 588 0 
L 588 4666 
z
" transform="scale(0.015625)"/>
      <path id="DejaVuSans-Bold-29" d="M 588 4666 
L 3834 4666 
L 3834 3756 
L 1791 3756 
L 1791 2888 
L 3713 2888 
L 3713 1978 
L 1791 1978 
L 1791 0 
L 588 0 
L 588 4666 
z
" transform="scale(0.015625)"/>
      <path id="DejaVuSans-Bold-10" d="M 347 2297 
L 2309 2297 
L 2309 1388 
L 347 1388 
L 347 2297 
z
" transform="scale(0.015625)"/>
      <path id="DejaVuSans-Bold-26" d="M 4288 256 
Q 3956 84 3597 -3 
Q 3238 -91 2847 -91 
Q 1681 -91 1000 561 
Q 319 1213 319 2328 
Q 319 3447 1000 4098 
Q 1681 4750 2847 4750 
Q 3238 4750 3597 4662 
Q 3956 4575 4288 4403 
L 4288 3438 
Q 3953 3666 3628 3772 
Q 3303 3878 2944 3878 
Q 2300 3878 1931 3465 
Q 1563 3053 1563 2328 
Q 1563 1606 1931 1193 
Q 2300 781 2944 781 
Q 3303 781 3628 887 
Q 3953 994 4288 1222 
L 4288 256 
z
" transform="scale(0.015625)"/>
      <path id="DejaVuSans-Bold-2c" d="M 588 4666 
L 1791 4666 
L 1791 0 
L 588 0 
L 588 4666 
z
" transform="scale(0.015625)"/>
      <path id="DejaVuSans-Bold-27" d="M 1791 3756 
L 1791 909 
L 2222 909 
Q 2959 909 3348 1275 
Q 3738 1641 3738 2338 
Q 3738 3031 3350 3393 
Q 2963 3756 2222 3756 
L 1791 3756 
z
M 588 4666 
L 1856 4666 
Q 2919 4666 3439 4514 
Q 3959 4363 4331 4000 
Q 4659 3684 4818 3271 
Q 4978 2859 4978 2338 
Q 4978 1809 4818 1395 
Q 4659 981 4331 666 
Q 3956 303 3431 151 
Q 2906 0 1856 0 
L 588 0 
L 588 4666 
z
" transform="scale(0.015625)"/>
      <path id="DejaVuSans-Bold-36" d="M 3834 4519 
L 3834 3531 
Q 3450 3703 3084 3790 
Q 2719 3878 2394 3878 
Q 1963 3878 1756 3759 
Q 1550 3641 1550 3391 
Q 1550 3203 1689 3098 
Q 1828 2994 2194 2919 
L 2706 2816 
Q 3484 2659 3812 2340 
Q 4141 2022 4141 1434 
Q 4141 663 3683 286 
Q 3225 -91 2284 -91 
Q 1841 -91 1394 -6 
Q 947 78 500 244 
L 500 1259 
Q 947 1022 1364 901 
Q 1781 781 2169 781 
Q 2563 781 2772 912 
Q 2981 1044 2981 1288 
Q 2981 1506 2839 1625 
Q 2697 1744 2272 1838 
L 1806 1941 
Q 1106 2091 782 2419 
Q 459 2747 459 3303 
Q 459 4000 909 4375 
Q 1359 4750 2203 4750 
Q 2588 4750 2994 4692 
Q 3400 4634 3834 4519 
z
" transform="scale(0.015625)"/>
      <path id="DejaVuSans-Bold-15" d="M 1844 884 
L 3897 884 
L 3897 0 
L 506 0 
L 506 884 
L 2209 2388 
Q 2438 2594 2547 2791 
Q 2656 2988 2656 3200 
Q 2656 3528 2436 3728 
Q 2216 3928 1850 3928 
Q 1569 3928 1234 3808 
Q 900 3688 519 3450 
L 519 4475 
Q 925 4609 1322 4679 
Q 1719 4750 2100 4750 
Q 2938 4750 3402 4381 
Q 3866 4013 3866 3353 
Q 3866 2972 3669 2642 
Q 3472 2313 2841 1759 
L 1844 884 
z
" transform="scale(0.015625)"/>
      <path id="DejaVuSans-Bold-13" d="M 2944 2338 
Q 2944 3213 2780 3570 
Q 2616 3928 2228 3928 
Q 1841 3928 1675 3570 
Q 1509 3213 1509 2338 
Q 1509 1453 1675 1090 
Q 1841 728 2228 728 
Q 2613 728 2778 1090 
Q 2944 1453 2944 2338 
z
M 4147 2328 
Q 4147 1169 3647 539 
Q 3147 -91 2228 -91 
Q 1306 -91 806 539 
Q 306 1169 306 2328 
Q 306 3491 806 4120 
Q 1306 4750 2228 4750 
Q 3147 4750 3647 4120 
Q 4147 3491 4147 2328 
z
" transform="scale(0.015625)"/>
      <path id="DejaVuSans-Bold-14" d="M 750 831 
L 1813 831 
L 1813 3847 
L 722 3622 
L 722 4441 
L 1806 4666 
L 2950 4666 
L 2950 831 
L 4013 831 
L 4013 0 
L 750 0 
L 750 831 
z
" transform="scale(0.015625)"/>
      <path id="DejaVuSans-Bold-1b" d="M 2228 2088 
Q 1891 2088 1709 1903 
Q 1528 1719 1528 1375 
Q 1528 1031 1709 848 
Q 1891 666 2228 666 
Q 2563 666 2741 848 
Q 2919 1031 2919 1375 
Q 2919 1722 2741 1905 
Q 2563 2088 2228 2088 
z
M 1350 2484 
Q 925 2613 709 2878 
Q 494 3144 494 3541 
Q 494 4131 934 4440 
Q 1375 4750 2228 4750 
Q 3075 4750 3515 4442 
Q 3956 4134 3956 3541 
Q 3956 3144 3739 2878 
Q 3522 2613 3097 2484 
Q 3572 2353 3814 2058 
Q 4056 1763 4056 1313 
Q 4056 619 3595 264 
Q 3134 -91 2228 -91 
Q 1319 -91 855 264 
Q 391 619 391 1313 
Q 391 1763 633 2058 
Q 875 2353 1350 2484 
z
M 1631 3419 
Q 1631 3141 1786 2991 
Q 1941 2841 2228 2841 
Q 2509 2841 2662 2991 
Q 2816 3141 2816 3419 
Q 2816 3697 2662 3845 
Q 2509 3994 2228 3994 
Q 1941 3994 1786 3844 
Q 1631 3694 1631 3419 
z
" transform="scale(0.015625)"/>
     </defs>
     <use xlink:href="#DejaVuSans-Bold-31"/>
     <use xlink:href="#DejaVuSans-Bold-29" transform="translate(83.6875 0)"/>
     <use xlink:href="#DejaVuSans-Bold-10" transform="translate(148.921875 0)"/>
     <use xlink:href="#DejaVuSans-Bold-26" transform="translate(190.421875 0)"/>
     <use xlink:href="#DejaVuSans-Bold-2c" transform="translate(263.8125 0)"/>
     <use xlink:href="#DejaVuSans-Bold-26" transform="translate(301.015625 0)"/>
     <use xlink:href="#DejaVuSans-Bold-2c" transform="translate(374.40625 0)"/>
     <use xlink:href="#DejaVuSans-Bold-27" transform="translate(411.609375 0)"/>
     <use xlink:href="#DejaVuSans-Bold-36" transform="translate(494.625 0)"/>
     <use xlink:href="#DejaVuSans-Bold-15" transform="translate(566.640625 0)"/>
     <use xlink:href="#DejaVuSans-Bold-13" transform="translate(636.21875 0)"/>
     <use xlink:href="#DejaVuSans-Bold-14" transform="translate(705.796875 0)"/>
     <use xlink:href="#DejaVuSans-Bold-1b" transform="translate(775.375 0)"/>
    </g>
    <!-- Train/Val/Test -->
    <g transform="translate(116.692158 45.101855) scale(0.09 -0.09)">
     <defs>
      <path id="DejaVuSans-Bold-37" d="M 31 4666 
L 4331 4666 
L 4331 3756 
L 2784 3756 
L 2784 0 
L 1581 0 
L 1581 3756 
L 31 3756 
L 31 4666 
z
" transform="scale(0.015625)"/>
      <path id="DejaVuSans-Bold-55" d="M 3138 2547 
Q 2991 2616 2845 2648 
Q 2700 2681 2553 2681 
Q 2122 2681 1889 2404 
Q 1656 2128 1656 1613 
L 1656 0 
L 538 0 
L 538 3500 
L 1656 3500 
L 1656 2925 
Q 1872 3269 2151 3426 
Q 2431 3584 2822 3584 
Q 2878 3584 2943 3579 
Q 3009 3575 3134 3559 
L 3138 2547 
z
" transform="scale(0.015625)"/>
      <path id="DejaVuSans-Bold-44" d="M 2106 1575 
Q 1756 1575 1579 1456 
Q 1403 1338 1403 1106 
Q 1403 894 1545 773 
Q 1688 653 1941 653 
Q 2256 653 2472 879 
Q 2688 1106 2688 1447 
L 2688 1575 
L 2106 1575 
z
M 3816 1997 
L 3816 0 
L 2688 0 
L 2688 519 
Q 2463 200 2181 54 
Q 1900 -91 1497 -91 
Q 953 -91 614 226 
Q 275 544 275 1050 
Q 275 1666 698 1953 
Q 1122 2241 2028 2241 
L 2688 2241 
L 2688 2328 
Q 2688 2594 2478 2717 
Q 2269 2841 1825 2841 
Q 1466 2841 1156 2769 
Q 847 2697 581 2553 
L 581 3406 
Q 941 3494 1303 3539 
Q 1666 3584 2028 3584 
Q 2975 3584 3395 3211 
Q 3816 2838 3816 1997 
z
" transform="scale(0.015625)"/>
      <path id="DejaVuSans-Bold-4c" d="M 538 3500 
L 1656 3500 
L 1656 0 
L 538 0 
L 538 3500 
z
M 538 4863 
L 1656 4863 
L 1656 3950 
L 538 3950 
L 538 4863 
z
" transform="scale(0.015625)"/>
      <path id="DejaVuSans-Bold-51" d="M 4056 2131 
L 4056 0 
L 2931 0 
L 2931 347 
L 2931 1631 
Q 2931 2084 2911 2256 
Q 2891 2428 2841 2509 
Q 2775 2619 2662 2680 
Q 2550 2741 2406 2741 
Q 2056 2741 1856 2470 
Q 1656 2200 1656 1722 
L 1656 0 
L 538 0 
L 538 3500 
L 1656 3500 
L 1656 2988 
Q 1909 3294 2193 3439 
Q 2478 3584 2822 3584 
Q 3428 3584 3742 3212 
Q 4056 2841 4056 2131 
z
" transform="scale(0.015625)"/>
      <path id="DejaVuSans-Bold-12" d="M 1644 4666 
L 2338 4666 
L 691 -594 
L 0 -594 
L 1644 4666 
z
" transform="scale(0.015625)"/>
      <path id="DejaVuSans-Bold-39" d="M 31 4666 
L 1241 4666 
L 2478 1222 
L 3713 4666 
L 4922 4666 
L 3194 0 
L 1759 0 
L 31 4666 
z
" transform="scale(0.015625)"/>
      <path id="DejaVuSans-Bold-4f" d="M 538 4863 
L 1656 4863 
L 1656 0 
L 538 0 
L 538 4863 
z
" transform="scale(0.015625)"/>
      <path id="DejaVuSans-Bold-48" d="M 4031 1759 
L 4031 1441 
L 1416 1441 
Q 1456 1047 1700 850 
Q 1944 653 2381 653 
Q 2734 653 3104 758 
Q 3475 863 3866 1075 
L 3866 213 
Q 3469 63 3072 -14 
Q 2675 -91 2278 -91 
Q 1328 -91 801 392 
Q 275 875 275 1747 
Q 275 2603 792 3093 
Q 1309 3584 2216 3584 
Q 3041 3584 3536 3087 
Q 4031 2591 4031 1759 
z
M 2881 2131 
Q 2881 2450 2695 2645 
Q 2509 2841 2209 2841 
Q 1884 2841 1681 2658 
Q 1478 2475 1428 2131 
L 2881 2131 
z
" transform="scale(0.015625)"/>
      <path id="DejaVuSans-Bold-56" d="M 3272 3391 
L 3272 2541 
Q 2913 2691 2578 2766 
Q 2244 2841 1947 2841 
Q 1628 2841 1473 2761 
Q 1319 2681 1319 2516 
Q 1319 2381 1436 2309 
Q 1553 2238 1856 2203 
L 2053 2175 
Q 2913 2066 3209 1816 
Q 3506 1566 3506 1031 
Q 3506 472 3093 190 
Q 2681 -91 1863 -91 
Q 1516 -91 1145 -36 
Q 775 19 384 128 
L 384 978 
Q 719 816 1070 734 
Q 1422 653 1784 653 
Q 2113 653 2278 743 
Q 2444 834 2444 1013 
Q 2444 1163 2330 1236 
Q 2216 1309 1875 1350 
L 1678 1375 
Q 931 1469 631 1722 
Q 331 1975 331 2491 
Q 331 3047 712 3315 
Q 1094 3584 1881 3584 
Q 2191 3584 2531 3537 
Q 2872 3491 3272 3391 
z
" transform="scale(0.015625)"/>
      <path id="DejaVuSans-Bold-57" d="M 1759 4494 
L 1759 3500 
L 2913 3500 
L 2913 2700 
L 1759 2700 
L 1759 1216 
Q 1759 972 1856 886 
Q 1953 800 2241 800 
L 2816 800 
L 2816 0 
L 1856 0 
Q 1194 0 917 276 
Q 641 553 641 1216 
L 641 2700 
L 84 2700 
L 84 3500 
L 641 3500 
L 641 4494 
L 1759 4494 
z
" transform="scale(0.015625)"/>
     </defs>
     <use xlink:href="#DejaVuSans-Bold-37"/>
     <use xlink:href="#DejaVuSans-Bold-55" transform="translate(57.234375 0)"/>
     <use xlink:href="#DejaVuSans-Bold-44" transform="translate(106.546875 0)"/>
     <use xlink:href="#DejaVuSans-Bold-4c" transform="translate(174.03125 0)"/>
     <use xlink:href="#DejaVuSans-Bold-51" transform="translate(208.3125 0)"/>
     <use xlink:href="#DejaVuSans-Bold-12" transform="translate(279.5 0)"/>
     <use xlink:href="#DejaVuSans-Bold-39" transform="translate(316.03125 0)"/>
     <use xlink:href="#DejaVuSans-Bold-44" transform="translate(387.953125 0)"/>
     <use xlink:href="#DejaVuSans-Bold-4f" transform="translate(455.4375 0)"/>
     <use xlink:href="#DejaVuSans-Bold-12" transform="translate(489.71875 0)"/>
     <use xlink:href="#DejaVuSans-Bold-37" transform="translate(526.25 0)"/>
     <use xlink:href="#DejaVuSans-Bold-48" transform="translate(581.1875 0)"/>
     <use xlink:href="#DejaVuSans-Bold-56" transform="translate(649.015625 0)"/>
     <use xlink:href="#DejaVuSans-Bold-57" transform="translate(708.53125 0)"/>
    </g>
    <!-- 20.1M flows | 87.1% benign -->
    <g transform="translate(80.917861 55.943691) scale(0.09 -0.09)">
     <defs>
      <path id="DejaVuSans-Bold-11" d="M 653 1209 
L 1778 1209 
L 1778 0 
L 653 0 
L 653 1209 
z
" transform="scale(0.015625)"/>
      <path id="DejaVuSans-Bold-30" d="M 588 4666 
L 2119 4666 
L 3181 2169 
L 4250 4666 
L 5778 4666 
L 5778 0 
L 4641 0 
L 4641 3413 
L 3566 897 
L 2803 897 
L 1728 3413 
L 1728 0 
L 588 0 
L 588 4666 
z
" transform="scale(0.015625)"/>
      <path id="DejaVuSans-Bold-3" transform="scale(0.015625)"/>
      <path id="DejaVuSans-Bold-13ac" d="M 1984 4863 
L 4206 4863 
L 4206 0 
L 3078 0 
L 3078 4128 
L 2222 4128 
Q 1984 4128 1890 4042 
Q 1797 3956 1797 3744 
L 1797 3500 
L 2675 3500 
L 2675 2700 
L 1797 2700 
L 1797 0 
L 678 0 
L 678 2700 
L 122 2700 
L 122 3500 
L 678 3500 
L 678 3744 
Q 678 4316 997 4589 
Q 1316 4863 1984 4863 
z
" transform="scale(0.015625)"/>
      <path id="DejaVuSans-Bold-52" d="M 2203 2784 
Q 1831 2784 1636 2517 
Q 1441 2250 1441 1747 
Q 1441 1244 1636 976 
Q 1831 709 2203 709 
Q 2569 709 2762 976 
Q 2956 1244 2956 1747 
Q 2956 2250 2762 2517 
Q 2569 2784 2203 2784 
z
M 2203 3584 
Q 3106 3584 3614 3096 
Q 4122 2609 4122 1747 
Q 4122 884 3614 396 
Q 3106 -91 2203 -91 
Q 1297 -91 786 396 
Q 275 884 275 1747 
Q 275 2609 786 3096 
Q 1297 3584 2203 3584 
z
" transform="scale(0.015625)"/>
      <path id="DejaVuSans-Bold-5a" d="M 225 3500 
L 1313 3500 
L 1900 1088 
L 2491 3500 
L 3425 3500 
L 4013 1113 
L 4603 3500 
L 5691 3500 
L 4769 0 
L 3547 0 
L 2956 2406 
L 2369 0 
L 1147 0 
L 225 3500 
z
" transform="scale(0.015625)"/>
      <path id="DejaVuSans-Bold-5f" d="M 1522 4891 
L 1522 -1509 
L 813 -1509 
L 813 4891 
L 1522 4891 
z
" transform="scale(0.015625)"/>
      <path id="DejaVuSans-Bold-1a" d="M 428 4666 
L 3944 4666 
L 3944 3988 
L 2125 0 
L 953 0 
L 2675 3781 
L 428 3781 
L 428 4666 
z
" transform="scale(0.015625)"/>
      <path id="DejaVuSans-Bold-8" d="M 4959 1925 
Q 4738 1925 4616 1733 
Q 4494 1541 4494 1184 
Q 4494 825 4614 633 
Q 4734 441 4959 441 
Q 5184 441 5303 633 
Q 5422 825 5422 1184 
Q 5422 1541 5301 1733 
Q 5181 1925 4959 1925 
z
M 4959 2450 
Q 5541 2450 5875 2112 
Q 6209 1775 6209 1184 
Q 6209 594 5875 251 
Q 5541 -91 4959 -91 
Q 4378 -91 4042 251 
Q 3706 594 3706 1184 
Q 3706 1772 4042 2111 
Q 4378 2450 4959 2450 
z
M 2094 -91 
L 1403 -91 
L 4319 4750 
L 5013 4750 
L 2094 -91 
z
M 1453 4750 
Q 2034 4750 2367 4411 
Q 2700 4072 2700 3481 
Q 2700 2891 2367 2550 
Q 2034 2209 1453 2209 
Q 872 2209 539 2550 
Q 206 2891 206 3481 
Q 206 4072 539 4411 
Q 872 4750 1453 4750 
z
M 1453 4225 
Q 1228 4225 1106 4031 
Q 984 3838 984 3481 
Q 984 3122 1106 2926 
Q 1228 2731 1453 2731 
Q 1678 2731 1798 2926 
Q 1919 3122 1919 3481 
Q 1919 3838 1797 4031 
Q 1675 4225 1453 4225 
z
" transform="scale(0.015625)"/>
      <path id="DejaVuSans-Bold-45" d="M 2400 722 
Q 2759 722 2948 984 
Q 3138 1247 3138 1747 
Q 3138 2247 2948 2509 
Q 2759 2772 2400 2772 
Q 2041 2772 1848 2508 
Q 1656 2244 1656 1747 
Q 1656 1250 1848 986 
Q 2041 722 2400 722 
z
M 1656 2988 
Q 1888 3294 2169 3439 
Q 2450 3584 2816 3584 
Q 3463 3584 3878 3070 
Q 4294 2556 4294 1747 
Q 4294 938 3878 423 
Q 3463 -91 2816 -91 
Q 2450 -91 2169 54 
Q 1888 200 1656 506 
L 1656 0 
L 538 0 
L 538 4863 
L 1656 4863 
L 1656 2988 
z
" transform="scale(0.015625)"/>
      <path id="DejaVuSans-Bold-4a" d="M 2919 594 
Q 2688 288 2409 144 
Q 2131 0 1766 0 
Q 1125 0 706 504 
Q 288 1009 288 1791 
Q 288 2575 706 3076 
Q 1125 3578 1766 3578 
Q 2131 3578 2409 3434 
Q 2688 3291 2919 2981 
L 2919 3500 
L 4044 3500 
L 4044 353 
Q 4044 -491 3511 -936 
Q 2978 -1381 1966 -1381 
Q 1638 -1381 1331 -1331 
Q 1025 -1281 716 -1178 
L 716 -306 
Q 1009 -475 1290 -558 
Q 1572 -641 1856 -641 
Q 2406 -641 2662 -400 
Q 2919 -159 2919 353 
L 2919 594 
z
M 2181 2772 
Q 1834 2772 1640 2515 
Q 1447 2259 1447 1791 
Q 1447 1309 1634 1061 
Q 1822 813 2181 813 
Q 2531 813 2725 1069 
Q 2919 1325 2919 1791 
Q 2919 2259 2725 2515 
Q 2531 2772 2181 2772 
z
" transform="scale(0.015625)"/>
     </defs>
     <use xlink:href="#DejaVuSans-Bold-15"/>
     <use xlink:href="#DejaVuSans-Bold-13" transform="translate(69.578125 0)"/>
     <use xlink:href="#DejaVuSans-Bold-11" transform="translate(139.15625 0)"/>
     <use xlink:href="#DejaVuSans-Bold-14" transform="translate(177.140625 0)"/>
     <use xlink:href="#DejaVuSans-Bold-30" transform="translate(246.71875 0)"/>
     <use xlink:href="#DejaVuSans-Bold-3" transform="translate(346.234375 0)"/>
     <use xlink:href="#DejaVuSans-Bold-13ac" transform="translate(381.046875 0)"/>
     <use xlink:href="#DejaVuSans-Bold-52" transform="translate(455.171875 0)"/>
     <use xlink:href="#DejaVuSans-Bold-5a" transform="translate(523.875 0)"/>
     <use xlink:href="#DejaVuSans-Bold-56" transform="translate(616.265625 0)"/>
     <use xlink:href="#DejaVuSans-Bold-3" transform="translate(675.78125 0)"/>
     <use xlink:href="#DejaVuSans-Bold-5f" transform="translate(710.59375 0)"/>
     <use xlink:href="#DejaVuSans-Bold-3" transform="translate(747.125 0)"/>
     <use xlink:href="#DejaVuSans-Bold-1b" transform="translate(781.9375 0)"/>
     <use xlink:href="#DejaVuSans-Bold-1a" transform="translate(851.515625 0)"/>
     <use xlink:href="#DejaVuSans-Bold-11" transform="translate(921.09375 0)"/>
     <use xlink:href="#DejaVuSans-Bold-14" transform="translate(959.078125 0)"/>
     <use xlink:href="#DejaVuSans-Bold-8" transform="translate(1028.65625 0)"/>
     <use xlink:href="#DejaVuSans-Bold-3" transform="translate(1128.859375 0)"/>
     <use xlink:href="#DejaVuSans-Bold-45" transform="translate(1163.671875 0)"/>
     <use xlink:href="#DejaVuSans-Bold-48" transform="translate(1235.25 0)"/>
     <use xlink:href="#DejaVuSans-Bold-51" transform="translate(1303.078125 0)"/>
     <use xlink:href="#DejaVuSans-Bold-4c" transform="translate(1374.265625 0)"/>
     <use xlink:href="#DejaVuSans-Bold-4a" transform="translate(1408.546875 0)"/>
     <use xlink:href="#DejaVuSans-Bold-51" transform="translate(1480.125 0)"/>
    </g>
    <!-- 392h span -->
    <g transform="translate(124.424424 66.746152) scale(0.09 -0.09)">
     <defs>
      <path id="DejaVuSans-Bold-16" d="M 2981 2516 
Q 3453 2394 3698 2092 
Q 3944 1791 3944 1325 
Q 3944 631 3412 270 
Q 2881 -91 1863 -91 
Q 1503 -91 1142 -33 
Q 781 25 428 141 
L 428 1069 
Q 766 900 1098 814 
Q 1431 728 1753 728 
Q 2231 728 2486 893 
Q 2741 1059 2741 1369 
Q 2741 1688 2480 1852 
Q 2219 2016 1709 2016 
L 1228 2016 
L 1228 2791 
L 1734 2791 
Q 2188 2791 2409 2933 
Q 2631 3075 2631 3366 
Q 2631 3634 2415 3781 
Q 2200 3928 1806 3928 
Q 1516 3928 1219 3862 
Q 922 3797 628 3669 
L 628 4550 
Q 984 4650 1334 4700 
Q 1684 4750 2022 4750 
Q 2931 4750 3382 4451 
Q 3834 4153 3834 3553 
Q 3834 3144 3618 2883 
Q 3403 2622 2981 2516 
z
" transform="scale(0.015625)"/>
      <path id="DejaVuSans-Bold-1c" d="M 641 103 
L 641 966 
Q 928 831 1190 764 
Q 1453 697 1709 697 
Q 2247 697 2547 995 
Q 2847 1294 2900 1881 
Q 2688 1725 2447 1647 
Q 2206 1569 1925 1569 
Q 1209 1569 770 1986 
Q 331 2403 331 3084 
Q 331 3838 820 4291 
Q 1309 4744 2131 4744 
Q 3044 4744 3544 4128 
Q 4044 3513 4044 2388 
Q 4044 1231 3459 570 
Q 2875 -91 1856 -91 
Q 1528 -91 1228 -42 
Q 928 6 641 103 
z
M 2125 2350 
Q 2441 2350 2600 2554 
Q 2759 2759 2759 3169 
Q 2759 3575 2600 3781 
Q 2441 3988 2125 3988 
Q 1809 3988 1650 3781 
Q 1491 3575 1491 3169 
Q 1491 2759 1650 2554 
Q 1809 2350 2125 2350 
z
" transform="scale(0.015625)"/>
      <path id="DejaVuSans-Bold-4b" d="M 4056 2131 
L 4056 0 
L 2931 0 
L 2931 347 
L 2931 1625 
Q 2931 2084 2911 2256 
Q 2891 2428 2841 2509 
Q 2775 2619 2662 2680 
Q 2550 2741 2406 2741 
Q 2056 2741 1856 2470 
Q 1656 2200 1656 1722 
L 1656 0 
L 538 0 
L 538 4863 
L 1656 4863 
L 1656 2988 
Q 1909 3294 2193 3439 
Q 2478 3584 2822 3584 
Q 3428 3584 3742 3212 
Q 4056 2841 4056 2131 
z
" transform="scale(0.015625)"/>
      <path id="DejaVuSans-Bold-53" d="M 1656 506 
L 1656 -1331 
L 538 -1331 
L 538 3500 
L 1656 3500 
L 1656 2988 
Q 1888 3294 2169 3439 
Q 2450 3584 2816 3584 
Q 3463 3584 3878 3070 
Q 4294 2556 4294 1747 
Q 4294 938 3878 423 
Q 3463 -91 2816 -91 
Q 2450 -91 2169 54 
Q 1888 200 1656 506 
z
M 2400 2772 
Q 2041 2772 1848 2508 
Q 1656 2244 1656 1747 
Q 1656 1250 1848 986 
Q 2041 722 2400 722 
Q 2759 722 2948 984 
Q 3138 1247 3138 1747 
Q 3138 2247 2948 2509 
Q 2759 2772 2400 2772 
z
" transform="scale(0.015625)"/>
     </defs>
     <use xlink:href="#DejaVuSans-Bold-16"/>
     <use xlink:href="#DejaVuSans-Bold-1c" transform="translate(69.578125 0)"/>
     <use xlink:href="#DejaVuSans-Bold-15" transform="translate(139.15625 0)"/>
     <use xlink:href="#DejaVuSans-Bold-4b" transform="translate(208.734375 0)"/>
     <use xlink:href="#DejaVuSans-Bold-3" transform="translate(279.921875 0)"/>
     <use xlink:href="#DejaVuSans-Bold-56" transform="translate(314.734375 0)"/>
     <use xlink:href="#DejaVuSans-Bold-53" transform="translate(374.25 0)"/>
     <use xlink:href="#DejaVuSans-Bold-44" transform="translate(445.828125 0)"/>
     <use xlink:href="#DejaVuSans-Bold-51" transform="translate(513.3125 0)"/>
    </g>
   </g>
  </g>
  <g id="axes_2">
   <g id="patch_7">
    <path d="M 723.354074 216.273076 
C 723.354074 202.236925 720.780338 188.319005 715.760788 175.211081 
C 710.741239 162.103157 703.360439 150.026055 693.985238 139.580043 
C 684.610037 129.134032 673.398376 120.495093 660.907509 114.092609 
C 648.416643 107.690125 634.857002 103.631957 620.902541 102.119807 
C 606.948081 100.607658 592.83389 101.667003 579.261487 105.24519 
C 565.689084 108.823376 552.887119 114.860123 541.491891 123.055385 
C 530.096663 131.250647 520.300144 141.466361 512.589251 153.194775 
C 504.878358 164.923188 499.382995 177.966715 496.376298 191.677051 
C 493.369601 205.387388 492.902224 219.533559 494.997397 233.412457 
C 497.09257 247.291354 501.714995 260.669164 508.634924 272.880967 
C 515.554854 285.09277 524.655708 295.932836 535.485148 304.862382 
C 546.314587 313.791928 558.690171 320.660519 571.996793 325.126764 
C 585.303416 329.59301 599.316903 331.581669 613.340743 330.993898 
C 627.364582 330.406127 641.162517 327.251829 654.048747 321.687782 
C 666.934978 316.123735 678.692412 308.243675 688.736669 298.439265 
C 698.780926 288.634856 706.942794 277.07127 712.816601 264.323252 
L 608.532535 216.273076 
z
" style="fill: #8dd3c7"/>
   </g>
   <g id="patch_8">
    <path d="M 712.816601 264.323252 
C 713.672467 262.465751 714.478553 260.585714 715.233994 258.685155 
C 715.989435 256.784595 716.693963 254.86419 717.346822 252.925997 
L 608.532535 216.273076 
z
" style="fill: #ffffb3"/>
   </g>
   <g id="patch_9">
    <path d="M 717.346822 252.925997 
C 717.639148 252.058148 717.921081 251.186833 718.19256 250.312239 
C 718.46404 249.437645 718.725047 248.559834 718.975525 247.678995 
L 608.532535 216.273076 
z
" style="fill: #fb8072"/>
   </g>
   <g id="patch_10">
    <path d="M 718.975525 247.678995 
C 720.023687 243.992995 720.886665 240.256831 721.561216 236.484535 
C 722.235767 232.712238 722.721047 228.908535 723.015232 225.087711 
L 608.532535 216.273076 
z
" style="fill: #fdb462"/>
   </g>
   <g id="patch_11">
    <path d="M 723.015232 225.087711 
C 723.03313 224.855258 723.05032 224.622751 723.066801 224.390194 
C 723.083283 224.157636 723.099056 223.925029 723.114121 223.692375 
L 608.532535 216.273076 
z
" style="fill: #b3de69"/>
   </g>
   <g id="patch_12">
    <path d="M 723.114121 223.692375 
C 723.122327 223.565637 723.130323 223.438885 723.138109 223.31212 
C 723.145895 223.185355 723.15347 223.058577 723.160836 222.931787 
L 608.532535 216.273076 
z
" style="fill: #d9d9d9"/>
   </g>
   <g id="patch_13">
    <path d="M 723.160836 222.931787 
C 723.217863 221.950074 723.262276 220.967669 723.294065 219.984815 
C 723.325853 219.001962 723.345014 218.01874 723.351543 217.035394 
L 608.532535 216.273076 
z
" style="fill: #ccebc5"/>
   </g>
   <g id="patch_14">
    <path d="M 723.351543 217.035394 
C 723.352387 216.908343 723.353019 216.78129 723.353441 216.654237 
C 723.353863 216.527184 723.354074 216.40013 723.354074 216.273076 
L 608.532535 216.273076 
z
" style="fill: #ffed6f"/>
   </g>
   <g id="matplotlib.axis_3"/>
   <g id="matplotlib.axis_4"/>
   <g id="text_12">
    <!-- Benign -->
    <g transform="translate(464.271299 190.776277) scale(0.06 -0.06)">
     <use xlink:href="#DejaVuSans-25"/>
     <use xlink:href="#DejaVuSans-48" transform="translate(68.609375 0)"/>
     <use xlink:href="#DejaVuSans-51" transform="translate(130.140625 0)"/>
     <use xlink:href="#DejaVuSans-4c" transform="translate(193.515625 0)"/>
     <use xlink:href="#DejaVuSans-4a" transform="translate(221.296875 0)"/>
     <use xlink:href="#DejaVuSans-51" transform="translate(284.78125 0)"/>
    </g>
   </g>
   <g id="text_13">
    <!-- DoS/DDoS -->
    <g transform="translate(725.90414 264.484956) scale(0.06 -0.06)">
     <use xlink:href="#DejaVuSans-27"/>
     <use xlink:href="#DejaVuSans-52" transform="translate(77 0)"/>
     <use xlink:href="#DejaVuSans-36" transform="translate(138.1875 0)"/>
     <use xlink:href="#DejaVuSans-12" transform="translate(201.671875 0)"/>
     <use xlink:href="#DejaVuSans-27" transform="translate(235.359375 0)"/>
     <use xlink:href="#DejaVuSans-27" transform="translate(312.359375 0)"/>
     <use xlink:href="#DejaVuSans-52" transform="translate(389.359375 0)"/>
     <use xlink:href="#DejaVuSans-36" transform="translate(450.546875 0)"/>
    </g>
   </g>
   <g id="text_14">
    <!-- Reconnaiss -->
    <g transform="translate(729.158563 255.274983) scale(0.06 -0.06)">
     <defs>
      <path id="DejaVuSans-35" d="M 2841 2188 
Q 3044 2119 3236 1894 
Q 3428 1669 3622 1275 
L 4263 0 
L 3584 0 
L 2988 1197 
Q 2756 1666 2539 1819 
Q 2322 1972 1947 1972 
L 1259 1972 
L 1259 0 
L 628 0 
L 628 4666 
L 2053 4666 
Q 2853 4666 3247 4331 
Q 3641 3997 3641 3322 
Q 3641 2881 3436 2590 
Q 3231 2300 2841 2188 
z
M 1259 4147 
L 1259 2491 
L 2053 2491 
Q 2509 2491 2742 2702 
Q 2975 2913 2975 3322 
Q 2975 3731 2742 3939 
Q 2509 4147 2053 4147 
L 1259 4147 
z
" transform="scale(0.015625)"/>
      <path id="DejaVuSans-56" d="M 2834 3397 
L 2834 2853 
Q 2591 2978 2328 3040 
Q 2066 3103 1784 3103 
Q 1356 3103 1142 2972 
Q 928 2841 928 2578 
Q 928 2378 1081 2264 
Q 1234 2150 1697 2047 
L 1894 2003 
Q 2506 1872 2764 1633 
Q 3022 1394 3022 966 
Q 3022 478 2636 193 
Q 2250 -91 1575 -91 
Q 1294 -91 989 -36 
Q 684 19 347 128 
L 347 722 
Q 666 556 975 473 
Q 1284 391 1588 391 
Q 1994 391 2212 530 
Q 2431 669 2431 922 
Q 2431 1156 2273 1281 
Q 2116 1406 1581 1522 
L 1381 1569 
Q 847 1681 609 1914 
Q 372 2147 372 2553 
Q 372 3047 722 3315 
Q 1072 3584 1716 3584 
Q 2034 3584 2315 3537 
Q 2597 3491 2834 3397 
z
" transform="scale(0.015625)"/>
     </defs>
     <use xlink:href="#DejaVuSans-35"/>
     <use xlink:href="#DejaVuSans-48" transform="translate(65 0)"/>
     <use xlink:href="#DejaVuSans-46" transform="translate(126.53125 0)"/>
     <use xlink:href="#DejaVuSans-52" transform="translate(181.515625 0)"/>
     <use xlink:href="#DejaVuSans-51" transform="translate(242.703125 0)"/>
     <use xlink:href="#DejaVuSans-51" transform="translate(306.078125 0)"/>
     <use xlink:href="#DejaVuSans-44" transform="translate(369.453125 0)"/>
     <use xlink:href="#DejaVuSans-4c" transform="translate(430.734375 0)"/>
     <use xlink:href="#DejaVuSans-56" transform="translate(458.515625 0)"/>
     <use xlink:href="#DejaVuSans-56" transform="translate(510.609375 0)"/>
    </g>
   </g>
   <g id="text_15">
    <!-- Exploits -->
    <g transform="translate(732.864084 240.064509) scale(0.06 -0.06)">
     <defs>
      <path id="DejaVuSans-28" d="M 628 4666 
L 3578 4666 
L 3578 4134 
L 1259 4134 
L 1259 2753 
L 3481 2753 
L 3481 2222 
L 1259 2222 
L 1259 531 
L 3634 531 
L 3634 0 
L 628 0 
L 628 4666 
z
" transform="scale(0.015625)"/>
      <path id="DejaVuSans-5b" d="M 3513 3500 
L 2247 1797 
L 3578 0 
L 2900 0 
L 1881 1375 
L 863 0 
L 184 0 
L 1544 1831 
L 300 3500 
L 978 3500 
L 1906 2253 
L 2834 3500 
L 3513 3500 
z
" transform="scale(0.015625)"/>
      <path id="DejaVuSans-53" d="M 1159 525 
L 1159 -1331 
L 581 -1331 
L 581 3500 
L 1159 3500 
L 1159 2969 
Q 1341 3281 1617 3432 
Q 1894 3584 2278 3584 
Q 2916 3584 3314 3078 
Q 3713 2572 3713 1747 
Q 3713 922 3314 415 
Q 2916 -91 2278 -91 
Q 1894 -91 1617 61 
Q 1341 213 1159 525 
z
M 3116 1747 
Q 3116 2381 2855 2742 
Q 2594 3103 2138 3103 
Q 1681 3103 1420 2742 
Q 1159 2381 1159 1747 
Q 1159 1113 1420 752 
Q 1681 391 2138 391 
Q 2594 391 2855 752 
Q 3116 1113 3116 1747 
z
" transform="scale(0.015625)"/>
     </defs>
     <use xlink:href="#DejaVuSans-28"/>
     <use xlink:href="#DejaVuSans-5b" transform="translate(63.1875 0)"/>
     <use xlink:href="#DejaVuSans-53" transform="translate(122.375 0)"/>
     <use xlink:href="#DejaVuSans-4f" transform="translate(185.859375 0)"/>
     <use xlink:href="#DejaVuSans-52" transform="translate(213.640625 0)"/>
     <use xlink:href="#DejaVuSans-4c" transform="translate(274.828125 0)"/>
     <use xlink:href="#DejaVuSans-57" transform="translate(302.609375 0)"/>
     <use xlink:href="#DejaVuSans-56" transform="translate(341.8125 0)"/>
    </g>
   </g>
   <g id="text_16">
    <!-- Backdoor -->
    <g transform="translate(734.520228 226.760734) scale(0.06 -0.06)">
     <defs>
      <path id="DejaVuSans-4e" d="M 581 4863 
L 1159 4863 
L 1159 1991 
L 2875 3500 
L 3609 3500 
L 1753 1863 
L 3688 0 
L 2938 0 
L 1159 1709 
L 1159 0 
L 581 0 
L 581 4863 
z
" transform="scale(0.015625)"/>
      <path id="DejaVuSans-47" d="M 2906 2969 
L 2906 4863 
L 3481 4863 
L 3481 0 
L 2906 0 
L 2906 525 
Q 2725 213 2448 61 
Q 2172 -91 1784 -91 
Q 1150 -91 751 415 
Q 353 922 353 1747 
Q 353 2572 751 3078 
Q 1150 3584 1784 3584 
Q 2172 3584 2448 3432 
Q 2725 3281 2906 2969 
z
M 947 1747 
Q 947 1113 1208 752 
Q 1469 391 1925 391 
Q 2381 391 2643 752 
Q 2906 1113 2906 1747 
Q 2906 2381 2643 2742 
Q 2381 3103 1925 3103 
Q 1469 3103 1208 2742 
Q 947 2381 947 1747 
z
" transform="scale(0.015625)"/>
     </defs>
     <use xlink:href="#DejaVuSans-25"/>
     <use xlink:href="#DejaVuSans-44" transform="translate(68.609375 0)"/>
     <use xlink:href="#DejaVuSans-46" transform="translate(129.890625 0)"/>
     <use xlink:href="#DejaVuSans-4e" transform="translate(184.875 0)"/>
     <use xlink:href="#DejaVuSans-47" transform="translate(242.78125 0)"/>
     <use xlink:href="#DejaVuSans-52" transform="translate(306.265625 0)"/>
     <use xlink:href="#DejaVuSans-52" transform="translate(367.453125 0)"/>
     <use xlink:href="#DejaVuSans-55" transform="translate(428.640625 0)"/>
    </g>
   </g>
   <g id="text_17">
    <!-- Web Attack -->
    <g transform="translate(734.598667 225.574852) scale(0.06 -0.06)">
     <defs>
      <path id="DejaVuSans-3a" d="M 213 4666 
L 850 4666 
L 1831 722 
L 2809 4666 
L 3519 4666 
L 4500 722 
L 5478 4666 
L 6119 4666 
L 4947 0 
L 4153 0 
L 3169 4050 
L 2175 0 
L 1381 0 
L 213 4666 
z
" transform="scale(0.015625)"/>
      <path id="DejaVuSans-45" d="M 3116 1747 
Q 3116 2381 2855 2742 
Q 2594 3103 2138 3103 
Q 1681 3103 1420 2742 
Q 1159 2381 1159 1747 
Q 1159 1113 1420 752 
Q 1681 391 2138 391 
Q 2594 391 2855 752 
Q 3116 1113 3116 1747 
z
M 1159 2969 
Q 1341 3281 1617 3432 
Q 1894 3584 2278 3584 
Q 2916 3584 3314 3078 
Q 3713 2572 3713 1747 
Q 3713 922 3314 415 
Q 2916 -91 2278 -91 
Q 1894 -91 1617 61 
Q 1341 213 1159 525 
L 1159 0 
L 581 0 
L 581 4863 
L 1159 4863 
L 1159 2969 
z
" transform="scale(0.015625)"/>
      <path id="DejaVuSans-24" d="M 2188 4044 
L 1331 1722 
L 3047 1722 
L 2188 4044 
z
M 1831 4666 
L 2547 4666 
L 4325 0 
L 3669 0 
L 3244 1197 
L 1141 1197 
L 716 0 
L 50 0 
L 1831 4666 
z
" transform="scale(0.015625)"/>
     </defs>
     <use xlink:href="#DejaVuSans-3a"/>
     <use xlink:href="#DejaVuSans-48" transform="translate(93.015625 0)"/>
     <use xlink:href="#DejaVuSans-45" transform="translate(154.546875 0)"/>
     <use xlink:href="#DejaVuSans-3" transform="translate(218.03125 0)"/>
     <use xlink:href="#DejaVuSans-24" transform="translate(249.8125 0)"/>
     <use xlink:href="#DejaVuSans-57" transform="translate(316.46875 0)"/>
     <use xlink:href="#DejaVuSans-57" transform="translate(355.671875 0)"/>
     <use xlink:href="#DejaVuSans-44" transform="translate(394.875 0)"/>
     <use xlink:href="#DejaVuSans-46" transform="translate(456.15625 0)"/>
     <use xlink:href="#DejaVuSans-4e" transform="translate(511.140625 0)"/>
    </g>
   </g>
   <g id="text_18">
    <!-- Generic -->
    <g transform="translate(734.770218 221.914818) scale(0.06 -0.06)">
     <defs>
      <path id="DejaVuSans-2a" d="M 3809 666 
L 3809 1919 
L 2778 1919 
L 2778 2438 
L 4434 2438 
L 4434 434 
Q 4069 175 3628 42 
Q 3188 -91 2688 -91 
Q 1594 -91 976 548 
Q 359 1188 359 2328 
Q 359 3472 976 4111 
Q 1594 4750 2688 4750 
Q 3144 4750 3555 4637 
Q 3966 4525 4313 4306 
L 4313 3634 
Q 3963 3931 3569 4081 
Q 3175 4231 2741 4231 
Q 1884 4231 1454 3753 
Q 1025 3275 1025 2328 
Q 1025 1384 1454 906 
Q 1884 428 2741 428 
Q 3075 428 3337 486 
Q 3600 544 3809 666 
z
" transform="scale(0.015625)"/>
     </defs>
     <use xlink:href="#DejaVuSans-2a"/>
     <use xlink:href="#DejaVuSans-48" transform="translate(77.484375 0)"/>
     <use xlink:href="#DejaVuSans-51" transform="translate(139.015625 0)"/>
     <use xlink:href="#DejaVuSans-48" transform="translate(202.390625 0)"/>
     <use xlink:href="#DejaVuSans-55" transform="translate(263.921875 0)"/>
     <use xlink:href="#DejaVuSans-4c" transform="translate(305.03125 0)"/>
     <use xlink:href="#DejaVuSans-46" transform="translate(332.8125 0)"/>
    </g>
   </g>
   <g id="text_19">
    <!-- Shellcode/ -->
    <g transform="translate(734.835532 218.251181) scale(0.06 -0.06)">
     <defs>
      <path id="DejaVuSans-4b" d="M 3513 2113 
L 3513 0 
L 2938 0 
L 2938 2094 
Q 2938 2591 2744 2837 
Q 2550 3084 2163 3084 
Q 1697 3084 1428 2787 
Q 1159 2491 1159 1978 
L 1159 0 
L 581 0 
L 581 4863 
L 1159 4863 
L 1159 2956 
Q 1366 3272 1645 3428 
Q 1925 3584 2291 3584 
Q 2894 3584 3203 3211 
Q 3513 2838 3513 2113 
z
" transform="scale(0.015625)"/>
     </defs>
     <use xlink:href="#DejaVuSans-36"/>
     <use xlink:href="#DejaVuSans-4b" transform="translate(63.484375 0)"/>
     <use xlink:href="#DejaVuSans-48" transform="translate(126.859375 0)"/>
     <use xlink:href="#DejaVuSans-4f" transform="translate(188.390625 0)"/>
     <use xlink:href="#DejaVuSans-4f" transform="translate(216.171875 0)"/>
     <use xlink:href="#DejaVuSans-46" transform="translate(243.953125 0)"/>
     <use xlink:href="#DejaVuSans-52" transform="translate(298.9375 0)"/>
     <use xlink:href="#DejaVuSans-47" transform="translate(360.125 0)"/>
     <use xlink:href="#DejaVuSans-48" transform="translate(423.609375 0)"/>
     <use xlink:href="#DejaVuSans-12" transform="translate(485.140625 0)"/>
    </g>
   </g>
   <g id="text_20">
    <!-- NF-UNSW-NB15 -->
    <g transform="translate(569.215894 34.299395) scale(0.09 -0.09)">
     <defs>
      <path id="DejaVuSans-Bold-38" d="M 588 4666 
L 1791 4666 
L 1791 1869 
Q 1791 1291 1980 1042 
Q 2169 794 2597 794 
Q 3028 794 3217 1042 
Q 3406 1291 3406 1869 
L 3406 4666 
L 4609 4666 
L 4609 1869 
Q 4609 878 4112 393 
Q 3616 -91 2597 -91 
Q 1581 -91 1084 393 
Q 588 878 588 1869 
L 588 4666 
z
" transform="scale(0.015625)"/>
      <path id="DejaVuSans-Bold-3a" d="M 191 4666 
L 1344 4666 
L 2150 1275 
L 2950 4666 
L 4109 4666 
L 4909 1275 
L 5716 4666 
L 6859 4666 
L 5759 0 
L 4372 0 
L 3525 3547 
L 2688 0 
L 1300 0 
L 191 4666 
z
" transform="scale(0.015625)"/>
      <path id="DejaVuSans-Bold-25" d="M 2456 2859 
Q 2741 2859 2887 2984 
Q 3034 3109 3034 3353 
Q 3034 3594 2887 3720 
Q 2741 3847 2456 3847 
L 1791 3847 
L 1791 2859 
L 2456 2859 
z
M 2497 819 
Q 2859 819 3042 972 
Q 3225 1125 3225 1434 
Q 3225 1738 3044 1889 
Q 2863 2041 2497 2041 
L 1791 2041 
L 1791 819 
L 2497 819 
z
M 3616 2497 
Q 4003 2384 4215 2081 
Q 4428 1778 4428 1338 
Q 4428 663 3972 331 
Q 3516 0 2584 0 
L 588 0 
L 588 4666 
L 2394 4666 
Q 3366 4666 3802 4372 
Q 4238 4078 4238 3431 
Q 4238 3091 4078 2852 
Q 3919 2613 3616 2497 
z
" transform="scale(0.015625)"/>
      <path id="DejaVuSans-Bold-18" d="M 678 4666 
L 3669 4666 
L 3669 3781 
L 1638 3781 
L 1638 3059 
Q 1775 3097 1914 3117 
Q 2053 3138 2203 3138 
Q 3056 3138 3531 2711 
Q 4006 2284 4006 1522 
Q 4006 766 3489 337 
Q 2972 -91 2053 -91 
Q 1656 -91 1267 -14 
Q 878 63 494 219 
L 494 1166 
Q 875 947 1217 837 
Q 1559 728 1863 728 
Q 2300 728 2551 942 
Q 2803 1156 2803 1522 
Q 2803 1891 2551 2103 
Q 2300 2316 1863 2316 
Q 1603 2316 1309 2248 
Q 1016 2181 678 2041 
L 678 4666 
z
" transform="scale(0.015625)"/>
     </defs>
     <use xlink:href="#DejaVuSans-Bold-31"/>
     <use xlink:href="#DejaVuSans-Bold-29" transform="translate(83.6875 0)"/>
     <use xlink:href="#DejaVuSans-Bold-10" transform="translate(148.921875 0)"/>
     <use xlink:href="#DejaVuSans-Bold-38" transform="translate(190.421875 0)"/>
     <use xlink:href="#DejaVuSans-Bold-31" transform="translate(271.625 0)"/>
     <use xlink:href="#DejaVuSans-Bold-36" transform="translate(355.3125 0)"/>
     <use xlink:href="#DejaVuSans-Bold-3a" transform="translate(427.328125 0)"/>
     <use xlink:href="#DejaVuSans-Bold-10" transform="translate(533.140625 0)"/>
     <use xlink:href="#DejaVuSans-Bold-31" transform="translate(574.640625 0)"/>
     <use xlink:href="#DejaVuSans-Bold-25" transform="translate(658.328125 0)"/>
     <use xlink:href="#DejaVuSans-Bold-14" transform="translate(734.546875 0)"/>
     <use xlink:href="#DejaVuSans-Bold-18" transform="translate(804.125 0)"/>
    </g>
    <!-- Train/Val/Test -->
    <g transform="translate(574.497769 45.101855) scale(0.09 -0.09)">
     <use xlink:href="#DejaVuSans-Bold-37"/>
     <use xlink:href="#DejaVuSans-Bold-55" transform="translate(57.234375 0)"/>
     <use xlink:href="#DejaVuSans-Bold-44" transform="translate(106.546875 0)"/>
     <use xlink:href="#DejaVuSans-Bold-4c" transform="translate(174.03125 0)"/>
     <use xlink:href="#DejaVuSans-Bold-51" transform="translate(208.3125 0)"/>
     <use xlink:href="#DejaVuSans-Bold-12" transform="translate(279.5 0)"/>
     <use xlink:href="#DejaVuSans-Bold-39" transform="translate(316.03125 0)"/>
     <use xlink:href="#DejaVuSans-Bold-44" transform="translate(387.953125 0)"/>
     <use xlink:href="#DejaVuSans-Bold-4f" transform="translate(455.4375 0)"/>
     <use xlink:href="#DejaVuSans-Bold-12" transform="translate(489.71875 0)"/>
     <use xlink:href="#DejaVuSans-Bold-37" transform="translate(526.25 0)"/>
     <use xlink:href="#DejaVuSans-Bold-48" transform="translate(581.1875 0)"/>
     <use xlink:href="#DejaVuSans-Bold-56" transform="translate(649.015625 0)"/>
     <use xlink:href="#DejaVuSans-Bold-57" transform="translate(708.53125 0)"/>
    </g>
    <!-- 2.4M flows | 94.6% benign -->
    <g transform="translate(541.854488 55.943691) scale(0.09 -0.09)">
     <defs>
      <path id="DejaVuSans-Bold-17" d="M 2356 3675 
L 1038 1722 
L 2356 1722 
L 2356 3675 
z
M 2156 4666 
L 3494 4666 
L 3494 1722 
L 4159 1722 
L 4159 850 
L 3494 850 
L 3494 0 
L 2356 0 
L 2356 850 
L 288 850 
L 288 1881 
L 2156 4666 
z
" transform="scale(0.015625)"/>
      <path id="DejaVuSans-Bold-19" d="M 2316 2303 
Q 2000 2303 1842 2098 
Q 1684 1894 1684 1484 
Q 1684 1075 1842 870 
Q 2000 666 2316 666 
Q 2634 666 2792 870 
Q 2950 1075 2950 1484 
Q 2950 1894 2792 2098 
Q 2634 2303 2316 2303 
z
M 3803 4544 
L 3803 3681 
Q 3506 3822 3243 3889 
Q 2981 3956 2731 3956 
Q 2194 3956 1894 3657 
Q 1594 3359 1544 2772 
Q 1750 2925 1990 3001 
Q 2231 3078 2516 3078 
Q 3231 3078 3670 2659 
Q 4109 2241 4109 1563 
Q 4109 813 3618 361 
Q 3128 -91 2303 -91 
Q 1394 -91 895 523 
Q 397 1138 397 2266 
Q 397 3422 980 4083 
Q 1563 4744 2578 4744 
Q 2900 4744 3203 4694 
Q 3506 4644 3803 4544 
z
" transform="scale(0.015625)"/>
     </defs>
     <use xlink:href="#DejaVuSans-Bold-15"/>
     <use xlink:href="#DejaVuSans-Bold-11" transform="translate(69.578125 0)"/>
     <use xlink:href="#DejaVuSans-Bold-17" transform="translate(107.5625 0)"/>
     <use xlink:href="#DejaVuSans-Bold-30" transform="translate(177.140625 0)"/>
     <use xlink:href="#DejaVuSans-Bold-3" transform="translate(276.65625 0)"/>
     <use xlink:href="#DejaVuSans-Bold-13ac" transform="translate(311.46875 0)"/>
     <use xlink:href="#DejaVuSans-Bold-52" transform="translate(385.59375 0)"/>
     <use xlink:href="#DejaVuSans-Bold-5a" transform="translate(454.296875 0)"/>
     <use xlink:href="#DejaVuSans-Bold-56" transform="translate(546.6875 0)"/>
     <use xlink:href="#DejaVuSans-Bold-3" transform="translate(606.203125 0)"/>
     <use xlink:href="#DejaVuSans-Bold-5f" transform="translate(641.015625 0)"/>
     <use xlink:href="#DejaVuSans-Bold-3" transform="translate(677.546875 0)"/>
     <use xlink:href="#DejaVuSans-Bold-1c" transform="translate(712.359375 0)"/>
     <use xlink:href="#DejaVuSans-Bold-17" transform="translate(781.9375 0)"/>
     <use xlink:href="#DejaVuSans-Bold-11" transform="translate(851.515625 0)"/>
     <use xlink:href="#DejaVuSans-Bold-19" transform="translate(889.5 0)"/>
     <use xlink:href="#DejaVuSans-Bold-8" transform="translate(959.078125 0)"/>
     <use xlink:href="#DejaVuSans-Bold-3" transform="translate(1059.28125 0)"/>
     <use xlink:href="#DejaVuSans-Bold-45" transform="translate(1094.09375 0)"/>
     <use xlink:href="#DejaVuSans-Bold-48" transform="translate(1165.671875 0)"/>
     <use xlink:href="#DejaVuSans-Bold-51" transform="translate(1233.5 0)"/>
     <use xlink:href="#DejaVuSans-Bold-4c" transform="translate(1304.6875 0)"/>
     <use xlink:href="#DejaVuSans-Bold-4a" transform="translate(1338.96875 0)"/>
     <use xlink:href="#DejaVuSans-Bold-51" transform="translate(1410.546875 0)"/>
    </g>
    <!-- 649h span -->
    <g transform="translate(582.230035 66.746152) scale(0.09 -0.09)">
     <use xlink:href="#DejaVuSans-Bold-19"/>
     <use xlink:href="#DejaVuSans-Bold-17" transform="translate(69.578125 0)"/>
     <use xlink:href="#DejaVuSans-Bold-1c" transform="translate(139.15625 0)"/>
     <use xlink:href="#DejaVuSans-Bold-4b" transform="translate(208.734375 0)"/>
     <use xlink:href="#DejaVuSans-Bold-3" transform="translate(279.921875 0)"/>
     <use xlink:href="#DejaVuSans-Bold-56" transform="translate(314.734375 0)"/>
     <use xlink:href="#DejaVuSans-Bold-53" transform="translate(374.25 0)"/>
     <use xlink:href="#DejaVuSans-Bold-44" transform="translate(445.828125 0)"/>
     <use xlink:href="#DejaVuSans-Bold-51" transform="translate(513.3125 0)"/>
    </g>
   </g>
  </g>
  <g id="axes_3">
   <g id="patch_15">
    <path d="M 265.548463 559.553076 
C 265.548463 547.401323 263.619403 535.32625 259.833408 523.77933 
C 256.047414 512.232411 250.452265 501.359372 243.257159 491.566744 
C 236.062054 481.774117 227.357795 473.185487 217.469828 466.121975 
C 207.58186 459.058464 196.634972 453.609214 185.038458 449.977967 
C 173.441943 446.346721 161.342153 444.579306 149.191487 444.741804 
C 137.040821 444.904302 124.992623 446.994662 113.497364 450.934727 
C 102.002105 454.874793 91.204858 460.61484 81.509322 467.940253 
C 71.813785 475.265666 63.34232 484.083997 56.411666 494.065536 
C 49.481011 504.047075 44.178634 515.065854 40.702786 526.70989 
C 37.226937 538.353926 35.621483 550.476268 35.94645 562.623675 
C 36.271416 574.771082 38.522702 586.79025 42.616135 598.231793 
C 46.709567 609.673336 52.593486 620.392859 60.047896 629.989571 
C 67.502306 639.586282 76.433132 647.939067 86.506458 654.735625 
C 96.579784 661.532183 107.668483 666.686738 119.357958 670.006568 
C 131.047433 673.326397 143.190161 674.769603 155.332136 674.282226 
C 167.474111 673.794849 179.462099 671.383039 190.84788 667.136972 
L 150.726924 559.553076 
z
" style="fill: #8dd3c7"/>
   </g>
   <g id="patch_16">
    <path d="M 190.84788 667.136972 
C 211.326552 659.49992 229.205115 646.172127 242.372483 628.727329 
C 255.539851 611.282532 263.456526 590.435485 265.187712 568.647793 
L 150.726924 559.553076 
z
" style="fill: #bebada"/>
   </g>
   <g id="patch_17">
    <path d="M 265.187712 568.647793 
C 265.193432 568.575805 265.199084 568.503812 265.204668 568.431813 
C 265.210252 568.359815 265.215768 568.287811 265.221216 568.215802 
L 150.726924 559.553076 
z
" style="fill: #80b1d3"/>
   </g>
   <g id="patch_18">
    <path d="M 265.221216 568.215802 
C 265.224812 568.168276 265.228378 568.120748 265.231915 568.073218 
C 265.235452 568.025687 265.238959 567.978155 265.242436 567.93062 
L 150.726924 559.553076 
z
" style="fill: #b3de69"/>
   </g>
   <g id="patch_19">
    <path d="M 265.242436 567.93062 
C 265.339386 566.605378 265.413324 565.278552 265.464217 563.950743 
C 265.515109 562.622934 265.542948 561.294341 265.547722 559.965566 
L 150.726924 559.553076 
z
" style="fill: #d9d9d9"/>
   </g>
   <g id="patch_20">
    <path d="M 265.547722 559.965566 
C 265.547861 559.926859 265.54798 559.888152 265.54808 559.849445 
C 265.54818 559.810738 265.548261 559.772031 265.548321 559.733324 
L 150.726924 559.553076 
z
" style="fill: #ccebc5"/>
   </g>
   <g id="patch_21">
    <path d="M 265.548321 559.733324 
C 265.548369 559.703283 265.548404 559.673241 265.548428 559.6432 
C 265.548451 559.613159 265.548463 559.583117 265.548463 559.553076 
L 150.726924 559.553076 
z
" style="fill: #ffed6f"/>
   </g>
   <g id="matplotlib.axis_5"/>
   <g id="matplotlib.axis_6"/>
   <g id="text_21">
    <!-- Benign -->
    <g transform="translate(26.090765 489.07561) scale(0.06 -0.06)">
     <use xlink:href="#DejaVuSans-25"/>
     <use xlink:href="#DejaVuSans-48" transform="translate(68.609375 0)"/>
     <use xlink:href="#DejaVuSans-51" transform="translate(130.140625 0)"/>
     <use xlink:href="#DejaVuSans-4c" transform="translate(193.515625 0)"/>
     <use xlink:href="#DejaVuSans-4a" transform="translate(221.296875 0)"/>
     <use xlink:href="#DejaVuSans-51" transform="translate(284.78125 0)"/>
    </g>
   </g>
   <g id="text_22">
    <!-- DoS/DDoS -->
    <g transform="translate(251.537039 637.203348) scale(0.06 -0.06)">
     <use xlink:href="#DejaVuSans-27"/>
     <use xlink:href="#DejaVuSans-52" transform="translate(77 0)"/>
     <use xlink:href="#DejaVuSans-36" transform="translate(138.1875 0)"/>
     <use xlink:href="#DejaVuSans-12" transform="translate(201.671875 0)"/>
     <use xlink:href="#DejaVuSans-27" transform="translate(235.359375 0)"/>
     <use xlink:href="#DejaVuSans-27" transform="translate(312.359375 0)"/>
     <use xlink:href="#DejaVuSans-52" transform="translate(389.359375 0)"/>
     <use xlink:href="#DejaVuSans-36" transform="translate(450.546875 0)"/>
    </g>
   </g>
   <g id="text_23">
    <!-- Reconnaiss -->
    <g transform="translate(276.652442 570.878515) scale(0.06 -0.06)">
     <use xlink:href="#DejaVuSans-35"/>
     <use xlink:href="#DejaVuSans-48" transform="translate(65 0)"/>
     <use xlink:href="#DejaVuSans-46" transform="translate(126.53125 0)"/>
     <use xlink:href="#DejaVuSans-52" transform="translate(181.515625 0)"/>
     <use xlink:href="#DejaVuSans-51" transform="translate(242.703125 0)"/>
     <use xlink:href="#DejaVuSans-51" transform="translate(306.078125 0)"/>
     <use xlink:href="#DejaVuSans-44" transform="translate(369.453125 0)"/>
     <use xlink:href="#DejaVuSans-4c" transform="translate(430.734375 0)"/>
     <use xlink:href="#DejaVuSans-56" transform="translate(458.515625 0)"/>
     <use xlink:href="#DejaVuSans-56" transform="translate(510.609375 0)"/>
    </g>
   </g>
   <g id="text_24">
    <!-- Backdoor -->
    <g transform="translate(276.682414 570.48406) scale(0.06 -0.06)">
     <use xlink:href="#DejaVuSans-25"/>
     <use xlink:href="#DejaVuSans-44" transform="translate(68.609375 0)"/>
     <use xlink:href="#DejaVuSans-46" transform="translate(129.890625 0)"/>
     <use xlink:href="#DejaVuSans-4e" transform="translate(184.875 0)"/>
     <use xlink:href="#DejaVuSans-47" transform="translate(242.78125 0)"/>
     <use xlink:href="#DejaVuSans-52" transform="translate(306.265625 0)"/>
     <use xlink:href="#DejaVuSans-52" transform="translate(367.453125 0)"/>
     <use xlink:href="#DejaVuSans-55" transform="translate(428.640625 0)"/>
    </g>
   </g>
   <g id="text_25">
    <!-- Brute Forc -->
    <g transform="translate(276.937946 565.949103) scale(0.06 -0.06)">
     <use xlink:href="#DejaVuSans-25"/>
     <use xlink:href="#DejaVuSans-55" transform="translate(68.609375 0)"/>
     <use xlink:href="#DejaVuSans-58" transform="translate(109.71875 0)"/>
     <use xlink:href="#DejaVuSans-57" transform="translate(173.09375 0)"/>
     <use xlink:href="#DejaVuSans-48" transform="translate(212.296875 0)"/>
     <use xlink:href="#DejaVuSans-3" transform="translate(273.828125 0)"/>
     <use xlink:href="#DejaVuSans-29" transform="translate(305.609375 0)"/>
     <use xlink:href="#DejaVuSans-52" transform="translate(359.5625 0)"/>
     <use xlink:href="#DejaVuSans-55" transform="translate(420.75 0)"/>
     <use xlink:href="#DejaVuSans-46" transform="translate(459.65625 0)"/>
    </g>
   </g>
   <g id="text_26">
    <!-- Web Attack -->
    <g transform="translate(277.030196 561.43791) scale(0.06 -0.06)">
     <use xlink:href="#DejaVuSans-3a"/>
     <use xlink:href="#DejaVuSans-48" transform="translate(93.015625 0)"/>
     <use xlink:href="#DejaVuSans-45" transform="translate(154.546875 0)"/>
     <use xlink:href="#DejaVuSans-3" transform="translate(218.03125 0)"/>
     <use xlink:href="#DejaVuSans-24" transform="translate(249.8125 0)"/>
     <use xlink:href="#DejaVuSans-57" transform="translate(316.46875 0)"/>
     <use xlink:href="#DejaVuSans-57" transform="translate(355.671875 0)"/>
     <use xlink:href="#DejaVuSans-44" transform="translate(394.875 0)"/>
     <use xlink:href="#DejaVuSans-46" transform="translate(456.15625 0)"/>
     <use xlink:href="#DejaVuSans-4e" transform="translate(511.140625 0)"/>
    </g>
   </g>
   <g id="text_27">
    <!-- Generic -->
    <g transform="translate(277.030578 561.211041) scale(0.06 -0.06)">
     <use xlink:href="#DejaVuSans-2a"/>
     <use xlink:href="#DejaVuSans-48" transform="translate(77.484375 0)"/>
     <use xlink:href="#DejaVuSans-51" transform="translate(139.015625 0)"/>
     <use xlink:href="#DejaVuSans-48" transform="translate(202.390625 0)"/>
     <use xlink:href="#DejaVuSans-55" transform="translate(263.921875 0)"/>
     <use xlink:href="#DejaVuSans-4c" transform="translate(305.03125 0)"/>
     <use xlink:href="#DejaVuSans-46" transform="translate(332.8125 0)"/>
    </g>
   </g>
   <g id="text_28">
    <!-- 80.7% -->
    <g transform="translate(84.607613 521.819146) scale(0.06 -0.06)">
     <use xlink:href="#DejaVuSans-1b"/>
     <use xlink:href="#DejaVuSans-13" transform="translate(63.625 0)"/>
     <use xlink:href="#DejaVuSans-11" transform="translate(127.25 0)"/>
     <use xlink:href="#DejaVuSans-1a" transform="translate(159.03125 0)"/>
     <use xlink:href="#DejaVuSans-8" transform="translate(222.65625 0)"/>
    </g>
   </g>
   <g id="text_29">
    <!-- 18.1% -->
    <g transform="translate(196.184103 602.616222) scale(0.06 -0.06)">
     <use xlink:href="#DejaVuSans-14"/>
     <use xlink:href="#DejaVuSans-1b" transform="translate(63.625 0)"/>
     <use xlink:href="#DejaVuSans-11" transform="translate(127.25 0)"/>
     <use xlink:href="#DejaVuSans-14" transform="translate(159.03125 0)"/>
     <use xlink:href="#DejaVuSans-8" transform="translate(222.65625 0)"/>
    </g>
   </g>
   <g id="text_30">
    <!-- 0.1% -->
    <g transform="translate(211.792164 566.438912) scale(0.06 -0.06)">
     <use xlink:href="#DejaVuSans-13"/>
     <use xlink:href="#DejaVuSans-11" transform="translate(63.625 0)"/>
     <use xlink:href="#DejaVuSans-14" transform="translate(95.40625 0)"/>
     <use xlink:href="#DejaVuSans-8" transform="translate(159.03125 0)"/>
    </g>
   </g>
   <g id="text_31">
    <!-- 0.0% -->
    <g transform="translate(211.808512 566.223755) scale(0.06 -0.06)">
     <use xlink:href="#DejaVuSans-13"/>
     <use xlink:href="#DejaVuSans-11" transform="translate(63.625 0)"/>
     <use xlink:href="#DejaVuSans-13" transform="translate(95.40625 0)"/>
     <use xlink:href="#DejaVuSans-8" transform="translate(159.03125 0)"/>
    </g>
   </g>
   <g id="text_32">
    <!-- 1.1% -->
    <g transform="translate(211.947893 563.75027) scale(0.06 -0.06)">
     <use xlink:href="#DejaVuSans-14"/>
     <use xlink:href="#DejaVuSans-11" transform="translate(63.625 0)"/>
     <use xlink:href="#DejaVuSans-14" transform="translate(95.40625 0)"/>
     <use xlink:href="#DejaVuSans-8" transform="translate(159.03125 0)"/>
    </g>
   </g>
   <g id="text_33">
    <!-- 0.0% -->
    <g transform="translate(211.998212 561.289491) scale(0.06 -0.06)">
     <use xlink:href="#DejaVuSans-13"/>
     <use xlink:href="#DejaVuSans-11" transform="translate(63.625 0)"/>
     <use xlink:href="#DejaVuSans-13" transform="translate(95.40625 0)"/>
     <use xlink:href="#DejaVuSans-8" transform="translate(159.03125 0)"/>
    </g>
   </g>
   <g id="text_34">
    <!-- 0.0% -->
    <g transform="translate(211.99842 561.165744) scale(0.06 -0.06)">
     <use xlink:href="#DejaVuSans-13"/>
     <use xlink:href="#DejaVuSans-11" transform="translate(63.625 0)"/>
     <use xlink:href="#DejaVuSans-13" transform="translate(95.40625 0)"/>
     <use xlink:href="#DejaVuSans-8" transform="translate(159.03125 0)"/>
    </g>
   </g>
   <g id="text_35">
    <!-- NF-ToN-IoT -->
    <g transform="translate(123.786689 377.579395) scale(0.09 -0.09)">
     <use xlink:href="#DejaVuSans-Bold-31"/>
     <use xlink:href="#DejaVuSans-Bold-29" transform="translate(83.6875 0)"/>
     <use xlink:href="#DejaVuSans-Bold-10" transform="translate(148.921875 0)"/>
     <use xlink:href="#DejaVuSans-Bold-37" transform="translate(175.71875 0)"/>
     <use xlink:href="#DejaVuSans-Bold-52" transform="translate(230.65625 0)"/>
     <use xlink:href="#DejaVuSans-Bold-31" transform="translate(299.359375 0)"/>
     <use xlink:href="#DejaVuSans-Bold-10" transform="translate(383.046875 0)"/>
     <use xlink:href="#DejaVuSans-Bold-2c" transform="translate(424.546875 0)"/>
     <use xlink:href="#DejaVuSans-Bold-52" transform="translate(461.75 0)"/>
     <use xlink:href="#DejaVuSans-Bold-37" transform="translate(530.453125 0)"/>
    </g>
    <!-- Cross-dataset (in-schema) -->
    <g transform="translate(83.942002 388.381855) scale(0.09 -0.09)">
     <defs>
      <path id="DejaVuSans-Bold-47" d="M 2919 2988 
L 2919 4863 
L 4044 4863 
L 4044 0 
L 2919 0 
L 2919 506 
Q 2688 197 2409 53 
Q 2131 -91 1766 -91 
Q 1119 -91 703 423 
Q 288 938 288 1747 
Q 288 2556 703 3070 
Q 1119 3584 1766 3584 
Q 2128 3584 2408 3439 
Q 2688 3294 2919 2988 
z
M 2181 722 
Q 2541 722 2730 984 
Q 2919 1247 2919 1747 
Q 2919 2247 2730 2509 
Q 2541 2772 2181 2772 
Q 1825 2772 1636 2509 
Q 1447 2247 1447 1747 
Q 1447 1247 1636 984 
Q 1825 722 2181 722 
z
" transform="scale(0.015625)"/>
      <path id="DejaVuSans-Bold-b" d="M 2413 -844 
L 1484 -844 
Q 1006 -72 778 623 
Q 550 1319 550 2003 
Q 550 2688 779 3389 
Q 1009 4091 1484 4856 
L 2413 4856 
Q 2013 4116 1813 3408 
Q 1613 2700 1613 2009 
Q 1613 1319 1811 609 
Q 2009 -100 2413 -844 
z
" transform="scale(0.015625)"/>
      <path id="DejaVuSans-Bold-46" d="M 3366 3391 
L 3366 2478 
Q 3138 2634 2908 2709 
Q 2678 2784 2431 2784 
Q 1963 2784 1702 2511 
Q 1441 2238 1441 1747 
Q 1441 1256 1702 982 
Q 1963 709 2431 709 
Q 2694 709 2930 787 
Q 3166 866 3366 1019 
L 3366 103 
Q 3103 6 2833 -42 
Q 2563 -91 2291 -91 
Q 1344 -91 809 395 
Q 275 881 275 1747 
Q 275 2613 809 3098 
Q 1344 3584 2291 3584 
Q 2566 3584 2833 3536 
Q 3100 3488 3366 3391 
z
" transform="scale(0.015625)"/>
      <path id="DejaVuSans-Bold-50" d="M 3781 2919 
Q 3994 3244 4286 3414 
Q 4578 3584 4928 3584 
Q 5531 3584 5847 3212 
Q 6163 2841 6163 2131 
L 6163 0 
L 5038 0 
L 5038 1825 
Q 5041 1866 5042 1909 
Q 5044 1953 5044 2034 
Q 5044 2406 4934 2573 
Q 4825 2741 4581 2741 
Q 4263 2741 4089 2478 
Q 3916 2216 3909 1719 
L 3909 0 
L 2784 0 
L 2784 1825 
Q 2784 2406 2684 2573 
Q 2584 2741 2328 2741 
Q 2006 2741 1831 2477 
Q 1656 2213 1656 1722 
L 1656 0 
L 531 0 
L 531 3500 
L 1656 3500 
L 1656 2988 
Q 1863 3284 2130 3434 
Q 2397 3584 2719 3584 
Q 3081 3584 3359 3409 
Q 3638 3234 3781 2919 
z
" transform="scale(0.015625)"/>
      <path id="DejaVuSans-Bold-c" d="M 513 -844 
Q 913 -100 1113 609 
Q 1313 1319 1313 2009 
Q 1313 2700 1113 3408 
Q 913 4116 513 4856 
L 1441 4856 
Q 1916 4091 2145 3389 
Q 2375 2688 2375 2003 
Q 2375 1319 2147 623 
Q 1919 -72 1441 -844 
L 513 -844 
z
" transform="scale(0.015625)"/>
     </defs>
     <use xlink:href="#DejaVuSans-Bold-26"/>
     <use xlink:href="#DejaVuSans-Bold-55" transform="translate(73.390625 0)"/>
     <use xlink:href="#DejaVuSans-Bold-52" transform="translate(122.703125 0)"/>
     <use xlink:href="#DejaVuSans-Bold-56" transform="translate(191.40625 0)"/>
     <use xlink:href="#DejaVuSans-Bold-56" transform="translate(250.921875 0)"/>
     <use xlink:href="#DejaVuSans-Bold-10" transform="translate(310.4375 0)"/>
     <use xlink:href="#DejaVuSans-Bold-47" transform="translate(351.9375 0)"/>
     <use xlink:href="#DejaVuSans-Bold-44" transform="translate(423.515625 0)"/>
     <use xlink:href="#DejaVuSans-Bold-57" transform="translate(491 0)"/>
     <use xlink:href="#DejaVuSans-Bold-44" transform="translate(538.796875 0)"/>
     <use xlink:href="#DejaVuSans-Bold-56" transform="translate(606.28125 0)"/>
     <use xlink:href="#DejaVuSans-Bold-48" transform="translate(665.796875 0)"/>
     <use xlink:href="#DejaVuSans-Bold-57" transform="translate(733.625 0)"/>
     <use xlink:href="#DejaVuSans-Bold-3" transform="translate(781.421875 0)"/>
     <use xlink:href="#DejaVuSans-Bold-b" transform="translate(816.234375 0)"/>
     <use xlink:href="#DejaVuSans-Bold-4c" transform="translate(861.9375 0)"/>
     <use xlink:href="#DejaVuSans-Bold-51" transform="translate(896.21875 0)"/>
     <use xlink:href="#DejaVuSans-Bold-10" transform="translate(967.40625 0)"/>
     <use xlink:href="#DejaVuSans-Bold-56" transform="translate(1008.90625 0)"/>
     <use xlink:href="#DejaVuSans-Bold-46" transform="translate(1068.421875 0)"/>
     <use xlink:href="#DejaVuSans-Bold-4b" transform="translate(1127.703125 0)"/>
     <use xlink:href="#DejaVuSans-Bold-48" transform="translate(1198.890625 0)"/>
     <use xlink:href="#DejaVuSans-Bold-50" transform="translate(1266.71875 0)"/>
     <use xlink:href="#DejaVuSans-Bold-44" transform="translate(1370.921875 0)"/>
     <use xlink:href="#DejaVuSans-Bold-c" transform="translate(1438.40625 0)"/>
    </g>
    <!-- 27.5M flows | 61.0% benign -->
    <g transform="translate(80.917861 399.223691) scale(0.09 -0.09)">
     <use xlink:href="#DejaVuSans-Bold-15"/>
     <use xlink:href="#DejaVuSans-Bold-1a" transform="translate(69.578125 0)"/>
     <use xlink:href="#DejaVuSans-Bold-11" transform="translate(139.15625 0)"/>
     <use xlink:href="#DejaVuSans-Bold-18" transform="translate(177.140625 0)"/>
     <use xlink:href="#DejaVuSans-Bold-30" transform="translate(246.71875 0)"/>
     <use xlink:href="#DejaVuSans-Bold-3" transform="translate(346.234375 0)"/>
     <use xlink:href="#DejaVuSans-Bold-13ac" transform="translate(381.046875 0)"/>
     <use xlink:href="#DejaVuSans-Bold-52" transform="translate(455.171875 0)"/>
     <use xlink:href="#DejaVuSans-Bold-5a" transform="translate(523.875 0)"/>
     <use xlink:href="#DejaVuSans-Bold-56" transform="translate(616.265625 0)"/>
     <use xlink:href="#DejaVuSans-Bold-3" transform="translate(675.78125 0)"/>
     <use xlink:href="#DejaVuSans-Bold-5f" transform="translate(710.59375 0)"/>
     <use xlink:href="#DejaVuSans-Bold-3" transform="translate(747.125 0)"/>
     <use xlink:href="#DejaVuSans-Bold-19" transform="translate(781.9375 0)"/>
     <use xlink:href="#DejaVuSans-Bold-14" transform="translate(851.515625 0)"/>
     <use xlink:href="#DejaVuSans-Bold-11" transform="translate(921.09375 0)"/>
     <use xlink:href="#DejaVuSans-Bold-13" transform="translate(959.078125 0)"/>
     <use xlink:href="#DejaVuSans-Bold-8" transform="translate(1028.65625 0)"/>
     <use xlink:href="#DejaVuSans-Bold-3" transform="translate(1128.859375 0)"/>
     <use xlink:href="#DejaVuSans-Bold-45" transform="translate(1163.671875 0)"/>
     <use xlink:href="#DejaVuSans-Bold-48" transform="translate(1235.25 0)"/>
     <use xlink:href="#DejaVuSans-Bold-51" transform="translate(1303.078125 0)"/>
     <use xlink:href="#DejaVuSans-Bold-4c" transform="translate(1374.265625 0)"/>
     <use xlink:href="#DejaVuSans-Bold-4a" transform="translate(1408.546875 0)"/>
     <use xlink:href="#DejaVuSans-Bold-51" transform="translate(1480.125 0)"/>
    </g>
    <!-- 145h span -->
    <g transform="translate(124.424424 410.026152) scale(0.09 -0.09)">
     <use xlink:href="#DejaVuSans-Bold-14"/>
     <use xlink:href="#DejaVuSans-Bold-17" transform="translate(69.578125 0)"/>
     <use xlink:href="#DejaVuSans-Bold-18" transform="translate(139.15625 0)"/>
     <use xlink:href="#DejaVuSans-Bold-4b" transform="translate(208.734375 0)"/>
     <use xlink:href="#DejaVuSans-Bold-3" transform="translate(279.921875 0)"/>
     <use xlink:href="#DejaVuSans-Bold-56" transform="translate(314.734375 0)"/>
     <use xlink:href="#DejaVuSans-Bold-53" transform="translate(374.25 0)"/>
     <use xlink:href="#DejaVuSans-Bold-44" transform="translate(445.828125 0)"/>
     <use xlink:href="#DejaVuSans-Bold-51" transform="translate(513.3125 0)"/>
    </g>
   </g>
  </g>
  <g id="axes_4">
   <g id="patch_22">
    <path d="M 723.354074 559.553076 
C 723.354074 559.184356 723.352298 558.815638 723.348745 558.446935 
C 723.345193 558.078231 723.339865 557.709547 723.332761 557.340896 
L 608.532535 559.553076 
z
" style="fill: #8dd3c7"/>
   </g>
   <g id="patch_23">
    <path d="M 723.332761 557.340896 
C 723.097497 545.131918 720.916098 533.038269 716.870918 521.516508 
C 712.825738 509.994746 706.968329 499.191709 699.519821 489.515232 
C 692.071312 479.838756 683.126631 471.41216 673.023455 464.553566 
C 662.920279 457.694971 651.787368 452.491787 640.04501 449.140442 
C 628.302652 445.789098 616.100497 444.332304 603.899199 444.825059 
C 591.697901 445.317813 579.652958 447.753835 568.219091 452.04116 
C 556.785224 456.328485 546.10815 462.412475 536.590948 470.063446 
C 527.073747 477.714416 518.837709 486.834862 512.193762 497.080468 
C 505.549815 507.326074 500.582631 518.566267 497.479731 530.376706 
C 494.37683 542.187146 493.177759 554.417317 493.927783 566.605505 
C 494.677807 578.793694 497.367369 590.78457 501.894931 602.125454 
C 506.422493 613.466338 512.730356 624.012698 520.580385 633.366389 
C 528.430413 642.72008 537.722564 650.761894 548.106041 657.188237 
C 558.489517 663.614581 569.831989 668.343554 581.705255 671.196629 
C 593.57852 674.049704 605.831263 674.99052 618.000918 673.98356 
C 630.170574 672.976599 642.102047 670.034695 653.344901 665.268911 
L 608.532535 559.553076 
z
" style="fill: #80b1d3"/>
   </g>
   <g id="patch_24">
    <path d="M 653.344901 665.268911 
C 653.529042 665.190854 653.712979 665.112317 653.89671 665.033299 
C 654.08044 664.954282 654.263964 664.874784 654.447279 664.794808 
L 608.532535 559.553076 
z
" style="fill: #d9d9d9"/>
   </g>
   <g id="patch_25">
    <path d="M 654.447279 664.794808 
C 674.924976 655.860821 692.356689 641.141366 704.594982 622.449754 
C 716.833274 603.758142 723.354074 581.89479 723.354074 559.553076 
L 608.532535 559.553076 
z
" style="fill: #ffed6f"/>
   </g>
   <g id="matplotlib.axis_7"/>
   <g id="matplotlib.axis_8"/>
   <g id="text_36">
    <!-- Benign -->
    <g transform="translate(734.830367 559.895149) scale(0.06 -0.06)">
     <use xlink:href="#DejaVuSans-25"/>
     <use xlink:href="#DejaVuSans-48" transform="translate(68.609375 0)"/>
     <use xlink:href="#DejaVuSans-51" transform="translate(130.140625 0)"/>
     <use xlink:href="#DejaVuSans-4c" transform="translate(193.515625 0)"/>
     <use xlink:href="#DejaVuSans-4a" transform="translate(221.296875 0)"/>
     <use xlink:href="#DejaVuSans-51" transform="translate(284.78125 0)"/>
    </g>
   </g>
   <g id="text_37">
    <!-- DoS/DDoS -->
    <g transform="translate(471.71801 492.391801) scale(0.06 -0.06)">
     <use xlink:href="#DejaVuSans-27"/>
     <use xlink:href="#DejaVuSans-52" transform="translate(77 0)"/>
     <use xlink:href="#DejaVuSans-36" transform="translate(138.1875 0)"/>
     <use xlink:href="#DejaVuSans-12" transform="translate(201.671875 0)"/>
     <use xlink:href="#DejaVuSans-27" transform="translate(235.359375 0)"/>
     <use xlink:href="#DejaVuSans-27" transform="translate(312.359375 0)"/>
     <use xlink:href="#DejaVuSans-52" transform="translate(389.359375 0)"/>
     <use xlink:href="#DejaVuSans-36" transform="translate(450.546875 0)"/>
    </g>
   </g>
   <g id="text_38">
    <!-- Reconnaiss -->
    <g transform="translate(658.433127 677.14015) scale(0.06 -0.06)">
     <use xlink:href="#DejaVuSans-35"/>
     <use xlink:href="#DejaVuSans-48" transform="translate(65 0)"/>
     <use xlink:href="#DejaVuSans-46" transform="translate(126.53125 0)"/>
     <use xlink:href="#DejaVuSans-52" transform="translate(181.515625 0)"/>
     <use xlink:href="#DejaVuSans-51" transform="translate(242.703125 0)"/>
     <use xlink:href="#DejaVuSans-51" transform="translate(306.078125 0)"/>
     <use xlink:href="#DejaVuSans-44" transform="translate(369.453125 0)"/>
     <use xlink:href="#DejaVuSans-4c" transform="translate(430.734375 0)"/>
     <use xlink:href="#DejaVuSans-56" transform="translate(458.515625 0)"/>
     <use xlink:href="#DejaVuSans-56" transform="translate(510.609375 0)"/>
    </g>
   </g>
   <g id="text_39">
    <!-- Infiltrati -->
    <g transform="translate(714.201226 630.29825) scale(0.06 -0.06)">
     <use xlink:href="#DejaVuSans-2c"/>
     <use xlink:href="#DejaVuSans-51" transform="translate(29.5 0)"/>
     <use xlink:href="#DejaVuSans-13af" transform="translate(92.875 0)"/>
     <use xlink:href="#DejaVuSans-4f" transform="translate(155.859375 0)"/>
     <use xlink:href="#DejaVuSans-57" transform="translate(183.640625 0)"/>
     <use xlink:href="#DejaVuSans-55" transform="translate(222.84375 0)"/>
     <use xlink:href="#DejaVuSans-44" transform="translate(263.953125 0)"/>
     <use xlink:href="#DejaVuSans-57" transform="translate(325.234375 0)"/>
     <use xlink:href="#DejaVuSans-4c" transform="translate(364.4375 0)"/>
    </g>
   </g>
   <g id="text_40">
    <!-- 0.3% -->
    <g transform="translate(669.800855 560.447985) scale(0.06 -0.06)">
     <use xlink:href="#DejaVuSans-13"/>
     <use xlink:href="#DejaVuSans-11" transform="translate(63.625 0)"/>
     <use xlink:href="#DejaVuSans-16" transform="translate(95.40625 0)"/>
     <use xlink:href="#DejaVuSans-8" transform="translate(159.03125 0)"/>
    </g>
   </g>
   <g id="text_41">
    <!-- 81.1% -->
    <g transform="translate(541.199115 523.628105) scale(0.06 -0.06)">
     <use xlink:href="#DejaVuSans-1b"/>
     <use xlink:href="#DejaVuSans-14" transform="translate(63.625 0)"/>
     <use xlink:href="#DejaVuSans-11" transform="translate(127.25 0)"/>
     <use xlink:href="#DejaVuSans-14" transform="translate(159.03125 0)"/>
     <use xlink:href="#DejaVuSans-8" transform="translate(222.65625 0)"/>
    </g>
   </g>
   <g id="text_42">
    <!-- 0.2% -->
    <g transform="translate(628.129633 624.399804) scale(0.06 -0.06)">
     <use xlink:href="#DejaVuSans-13"/>
     <use xlink:href="#DejaVuSans-11" transform="translate(63.625 0)"/>
     <use xlink:href="#DejaVuSans-15" transform="translate(95.40625 0)"/>
     <use xlink:href="#DejaVuSans-8" transform="translate(159.03125 0)"/>
    </g>
   </g>
   <g id="text_43">
    <!-- 18.5% -->
    <g transform="translate(656.639847 598.849677) scale(0.06 -0.06)">
     <defs>
      <path id="DejaVuSans-18" d="M 691 4666 
L 3169 4666 
L 3169 4134 
L 1269 4134 
L 1269 2991 
Q 1406 3038 1543 3061 
Q 1681 3084 1819 3084 
Q 2600 3084 3056 2656 
Q 3513 2228 3513 1497 
Q 3513 744 3044 326 
Q 2575 -91 1722 -91 
Q 1428 -91 1123 -41 
Q 819 9 494 109 
L 494 744 
Q 775 591 1075 516 
Q 1375 441 1709 441 
Q 2250 441 2565 725 
Q 2881 1009 2881 1497 
Q 2881 1984 2565 2268 
Q 2250 2553 1709 2553 
Q 1456 2553 1204 2497 
Q 953 2441 691 2322 
L 691 4666 
z
" transform="scale(0.015625)"/>
     </defs>
     <use xlink:href="#DejaVuSans-14"/>
     <use xlink:href="#DejaVuSans-1b" transform="translate(63.625 0)"/>
     <use xlink:href="#DejaVuSans-11" transform="translate(127.25 0)"/>
     <use xlink:href="#DejaVuSans-18" transform="translate(159.03125 0)"/>
     <use xlink:href="#DejaVuSans-8" transform="translate(222.65625 0)"/>
    </g>
   </g>
   <g id="text_44">
    <!-- NF-BoT-IoT -->
    <g transform="translate(581.330738 377.579395) scale(0.09 -0.09)">
     <use xlink:href="#DejaVuSans-Bold-31"/>
     <use xlink:href="#DejaVuSans-Bold-29" transform="translate(83.6875 0)"/>
     <use xlink:href="#DejaVuSans-Bold-10" transform="translate(148.921875 0)"/>
     <use xlink:href="#DejaVuSans-Bold-25" transform="translate(190.421875 0)"/>
     <use xlink:href="#DejaVuSans-Bold-52" transform="translate(266.640625 0)"/>
     <use xlink:href="#DejaVuSans-Bold-37" transform="translate(335.34375 0)"/>
     <use xlink:href="#DejaVuSans-Bold-10" transform="translate(388.859375 0)"/>
     <use xlink:href="#DejaVuSans-Bold-2c" transform="translate(430.359375 0)"/>
     <use xlink:href="#DejaVuSans-Bold-52" transform="translate(467.5625 0)"/>
     <use xlink:href="#DejaVuSans-Bold-37" transform="translate(536.265625 0)"/>
    </g>
    <!-- Cross-dataset (in-schema) -->
    <g transform="translate(541.747613 388.381855) scale(0.09 -0.09)">
     <use xlink:href="#DejaVuSans-Bold-26"/>
     <use xlink:href="#DejaVuSans-Bold-55" transform="translate(73.390625 0)"/>
     <use xlink:href="#DejaVuSans-Bold-52" transform="translate(122.703125 0)"/>
     <use xlink:href="#DejaVuSans-Bold-56" transform="translate(191.40625 0)"/>
     <use xlink:href="#DejaVuSans-Bold-56" transform="translate(250.921875 0)"/>
     <use xlink:href="#DejaVuSans-Bold-10" transform="translate(310.4375 0)"/>
     <use xlink:href="#DejaVuSans-Bold-47" transform="translate(351.9375 0)"/>
     <use xlink:href="#DejaVuSans-Bold-44" transform="translate(423.515625 0)"/>
     <use xlink:href="#DejaVuSans-Bold-57" transform="translate(491 0)"/>
     <use xlink:href="#DejaVuSans-Bold-44" transform="translate(538.796875 0)"/>
     <use xlink:href="#DejaVuSans-Bold-56" transform="translate(606.28125 0)"/>
     <use xlink:href="#DejaVuSans-Bold-48" transform="translate(665.796875 0)"/>
     <use xlink:href="#DejaVuSans-Bold-57" transform="translate(733.625 0)"/>
     <use xlink:href="#DejaVuSans-Bold-3" transform="translate(781.421875 0)"/>
     <use xlink:href="#DejaVuSans-Bold-b" transform="translate(816.234375 0)"/>
     <use xlink:href="#DejaVuSans-Bold-4c" transform="translate(861.9375 0)"/>
     <use xlink:href="#DejaVuSans-Bold-51" transform="translate(896.21875 0)"/>
     <use xlink:href="#DejaVuSans-Bold-10" transform="translate(967.40625 0)"/>
     <use xlink:href="#DejaVuSans-Bold-56" transform="translate(1008.90625 0)"/>
     <use xlink:href="#DejaVuSans-Bold-46" transform="translate(1068.421875 0)"/>
     <use xlink:href="#DejaVuSans-Bold-4b" transform="translate(1127.703125 0)"/>
     <use xlink:href="#DejaVuSans-Bold-48" transform="translate(1198.890625 0)"/>
     <use xlink:href="#DejaVuSans-Bold-50" transform="translate(1266.71875 0)"/>
     <use xlink:href="#DejaVuSans-Bold-44" transform="translate(1370.921875 0)"/>
     <use xlink:href="#DejaVuSans-Bold-c" transform="translate(1438.40625 0)"/>
    </g>
    <!-- 16.9M flows | 0.3% benign -->
    <g transform="translate(541.854488 399.223691) scale(0.09 -0.09)">
     <use xlink:href="#DejaVuSans-Bold-14"/>
     <use xlink:href="#DejaVuSans-Bold-19" transform="translate(69.578125 0)"/>
     <use xlink:href="#DejaVuSans-Bold-11" transform="translate(139.15625 0)"/>
     <use xlink:href="#DejaVuSans-Bold-1c" transform="translate(177.140625 0)"/>
     <use xlink:href="#DejaVuSans-Bold-30" transform="translate(246.71875 0)"/>
     <use xlink:href="#DejaVuSans-Bold-3" transform="translate(346.234375 0)"/>
     <use xlink:href="#DejaVuSans-Bold-13ac" transform="translate(381.046875 0)"/>
     <use xlink:href="#DejaVuSans-Bold-52" transform="translate(455.171875 0)"/>
     <use xlink:href="#DejaVuSans-Bold-5a" transform="translate(523.875 0)"/>
     <use xlink:href="#DejaVuSans-Bold-56" transform="translate(616.265625 0)"/>
     <use xlink:href="#DejaVuSans-Bold-3" transform="translate(675.78125 0)"/>
     <use xlink:href="#DejaVuSans-Bold-5f" transform="translate(710.59375 0)"/>
     <use xlink:href="#DejaVuSans-Bold-3" transform="translate(747.125 0)"/>
     <use xlink:href="#DejaVuSans-Bold-13" transform="translate(781.9375 0)"/>
     <use xlink:href="#DejaVuSans-Bold-11" transform="translate(851.515625 0)"/>
     <use xlink:href="#DejaVuSans-Bold-16" transform="translate(889.5 0)"/>
     <use xlink:href="#DejaVuSans-Bold-8" transform="translate(959.078125 0)"/>
     <use xlink:href="#DejaVuSans-Bold-3" transform="translate(1059.28125 0)"/>
     <use xlink:href="#DejaVuSans-Bold-45" transform="translate(1094.09375 0)"/>
     <use xlink:href="#DejaVuSans-Bold-48" transform="translate(1165.671875 0)"/>
     <use xlink:href="#DejaVuSans-Bold-51" transform="translate(1233.5 0)"/>
     <use xlink:href="#DejaVuSans-Bold-4c" transform="translate(1304.6875 0)"/>
     <use xlink:href="#DejaVuSans-Bold-4a" transform="translate(1338.96875 0)"/>
     <use xlink:href="#DejaVuSans-Bold-51" transform="translate(1410.546875 0)"/>
    </g>
    <!-- 844h span -->
    <g transform="translate(582.230035 410.026152) scale(0.09 -0.09)">
     <use xlink:href="#DejaVuSans-Bold-1b"/>
     <use xlink:href="#DejaVuSans-Bold-17" transform="translate(69.578125 0)"/>
     <use xlink:href="#DejaVuSans-Bold-17" transform="translate(139.15625 0)"/>
     <use xlink:href="#DejaVuSans-Bold-4b" transform="translate(208.734375 0)"/>
     <use xlink:href="#DejaVuSans-Bold-3" transform="translate(279.921875 0)"/>
     <use xlink:href="#DejaVuSans-Bold-56" transform="translate(314.734375 0)"/>
     <use xlink:href="#DejaVuSans-Bold-53" transform="translate(374.25 0)"/>
     <use xlink:href="#DejaVuSans-Bold-44" transform="translate(445.828125 0)"/>
     <use xlink:href="#DejaVuSans-Bold-51" transform="translate(513.3125 0)"/>
    </g>
   </g>
  </g>
  <g id="text_45">
   <!-- Figure E: Dataset Composition Overview -->
   <g transform="translate(220.005667 17.837812) scale(0.14 -0.14)">
    <defs>
     <path id="DejaVuSans-Bold-58" d="M 500 1363 
L 500 3500 
L 1625 3500 
L 1625 3150 
Q 1625 2866 1622 2436 
Q 1619 2006 1619 1863 
Q 1619 1441 1641 1255 
Q 1663 1069 1716 984 
Q 1784 875 1895 815 
Q 2006 756 2150 756 
Q 2500 756 2700 1025 
Q 2900 1294 2900 1772 
L 2900 3500 
L 4019 3500 
L 4019 0 
L 2900 0 
L 2900 506 
Q 2647 200 2364 54 
Q 2081 -91 1741 -91 
Q 1134 -91 817 281 
Q 500 653 500 1363 
z
" transform="scale(0.015625)"/>
     <path id="DejaVuSans-Bold-28" d="M 588 4666 
L 3834 4666 
L 3834 3756 
L 1791 3756 
L 1791 2888 
L 3713 2888 
L 3713 1978 
L 1791 1978 
L 1791 909 
L 3903 909 
L 3903 0 
L 588 0 
L 588 4666 
z
" transform="scale(0.015625)"/>
     <path id="DejaVuSans-Bold-1d" d="M 716 3500 
L 1844 3500 
L 1844 2291 
L 716 2291 
L 716 3500 
z
M 716 1209 
L 1844 1209 
L 1844 0 
L 716 0 
L 716 1209 
z
" transform="scale(0.015625)"/>
     <path id="DejaVuSans-Bold-32" d="M 2719 3878 
Q 2169 3878 1866 3472 
Q 1563 3066 1563 2328 
Q 1563 1594 1866 1187 
Q 2169 781 2719 781 
Q 3272 781 3575 1187 
Q 3878 1594 3878 2328 
Q 3878 3066 3575 3472 
Q 3272 3878 2719 3878 
z
M 2719 4750 
Q 3844 4750 4481 4106 
Q 5119 3463 5119 2328 
Q 5119 1197 4481 553 
Q 3844 -91 2719 -91 
Q 1597 -91 958 553 
Q 319 1197 319 2328 
Q 319 3463 958 4106 
Q 1597 4750 2719 4750 
z
" transform="scale(0.015625)"/>
     <path id="DejaVuSans-Bold-59" d="M 97 3500 
L 1216 3500 
L 2088 1081 
L 2956 3500 
L 4078 3500 
L 2700 0 
L 1472 0 
L 97 3500 
z
" transform="scale(0.015625)"/>
    </defs>
    <use xlink:href="#DejaVuSans-Bold-29"/>
    <use xlink:href="#DejaVuSans-Bold-4c" transform="translate(68.3125 0)"/>
    <use xlink:href="#DejaVuSans-Bold-4a" transform="translate(102.59375 0)"/>
    <use xlink:href="#DejaVuSans-Bold-58" transform="translate(174.171875 0)"/>
    <use xlink:href="#DejaVuSans-Bold-55" transform="translate(245.359375 0)"/>
    <use xlink:href="#DejaVuSans-Bold-48" transform="translate(294.671875 0)"/>
    <use xlink:href="#DejaVuSans-Bold-3" transform="translate(362.5 0)"/>
    <use xlink:href="#DejaVuSans-Bold-28" transform="translate(397.3125 0)"/>
    <use xlink:href="#DejaVuSans-Bold-1d" transform="translate(465.625 0)"/>
    <use xlink:href="#DejaVuSans-Bold-3" transform="translate(505.609375 0)"/>
    <use xlink:href="#DejaVuSans-Bold-27" transform="translate(540.421875 0)"/>
    <use xlink:href="#DejaVuSans-Bold-44" transform="translate(623.4375 0)"/>
    <use xlink:href="#DejaVuSans-Bold-57" transform="translate(690.921875 0)"/>
    <use xlink:href="#DejaVuSans-Bold-44" transform="translate(738.71875 0)"/>
    <use xlink:href="#DejaVuSans-Bold-56" transform="translate(806.203125 0)"/>
    <use xlink:href="#DejaVuSans-Bold-48" transform="translate(865.71875 0)"/>
    <use xlink:href="#DejaVuSans-Bold-57" transform="translate(933.546875 0)"/>
    <use xlink:href="#DejaVuSans-Bold-3" transform="translate(981.34375 0)"/>
    <use xlink:href="#DejaVuSans-Bold-26" transform="translate(1016.15625 0)"/>
    <use xlink:href="#DejaVuSans-Bold-52" transform="translate(1089.546875 0)"/>
    <use xlink:href="#DejaVuSans-Bold-50" transform="translate(1158.25 0)"/>
    <use xlink:href="#DejaVuSans-Bold-53" transform="translate(1262.453125 0)"/>
    <use xlink:href="#DejaVuSans-Bold-52" transform="translate(1334.03125 0)"/>
    <use xlink:href="#DejaVuSans-Bold-56" transform="translate(1402.734375 0)"/>
    <use xlink:href="#DejaVuSans-Bold-4c" transform="translate(1462.25 0)"/>
    <use xlink:href="#DejaVuSans-Bold-57" transform="translate(1496.53125 0)"/>
    <use xlink:href="#DejaVuSans-Bold-4c" transform="translate(1544.328125 0)"/>
    <use xlink:href="#DejaVuSans-Bold-52" transform="translate(1578.609375 0)"/>
    <use xlink:href="#DejaVuSans-Bold-51" transform="translate(1647.3125 0)"/>
    <use xlink:href="#DejaVuSans-Bold-3" transform="translate(1718.5 0)"/>
    <use xlink:href="#DejaVuSans-Bold-32" transform="translate(1753.3125 0)"/>
    <use xlink:href="#DejaVuSans-Bold-59" transform="translate(1838.328125 0)"/>
    <use xlink:href="#DejaVuSans-Bold-48" transform="translate(1903.515625 0)"/>
    <use xlink:href="#DejaVuSans-Bold-55" transform="translate(1971.34375 0)"/>
    <use xlink:href="#DejaVuSans-Bold-59" transform="translate(2020.65625 0)"/>
    <use xlink:href="#DejaVuSans-Bold-4c" transform="translate(2085.84375 0)"/>
    <use xlink:href="#DejaVuSans-Bold-48" transform="translate(2120.125 0)"/>
    <use xlink:href="#DejaVuSans-Bold-5a" transform="translate(2187.953125 0)"/>
   </g>
  </g>
 </g>
</svg>
